<svg xmlns="http://www.w3.org/2000/svg" xmlns:xlink="http://www.w3.org/1999/xlink" width="87" zoomAndPan="magnify" viewBox="0 0 65.25 65.25" height="87" preserveAspectRatio="xMidYMid meet" version="1.0"><defs><clipPath id="ad554745a0"><path d="M 0 0 L 64.398438 0 L 64.398438 64.398438 L 0 64.398438 Z M 0 0 " clip-rule="nonzero"/></clipPath><clipPath id="dc4b71b910"><path d="M 32.199219 0 C 14.417969 0 0 14.417969 0 32.199219 C 0 49.984375 14.417969 64.398438 32.199219 64.398438 C 49.984375 64.398438 64.398438 49.984375 64.398438 32.199219 C 64.398438 14.417969 49.984375 0 32.199219 0 Z M 32.199219 0 " clip-rule="nonzero"/></clipPath><clipPath id="646acb1ecd"><path d="M 28 13.496094 L 36 13.496094 L 36 21 L 28 21 Z M 28 13.496094 " clip-rule="nonzero"/></clipPath><clipPath id="f0e7cb9d8b"><path d="M 12.917969 44 L 24 44 L 24 50.570312 L 12.917969 50.570312 Z M 12.917969 44 " clip-rule="nonzero"/></clipPath><clipPath id="b8d8438d4f"><path d="M 40 44 L 51.472656 44 L 51.472656 50.570312 L 40 50.570312 Z M 40 44 " clip-rule="nonzero"/></clipPath></defs><g clip-path="url(#ad554745a0)"><g clip-path="url(#dc4b71b910)"><path fill="#104122" d="M 0 0 L 64.398438 0 L 64.398438 64.398438 L 0 64.398438 Z M 0 0 " fill-opacity="1" fill-rule="nonzero"/></g></g><path fill="#ffffff" d="M 32.195312 30.308594 C 28.257812 30.308594 25.09375 33.472656 25.09375 37.410156 C 25.09375 41.347656 28.257812 44.511719 32.195312 44.511719 C 36.132812 44.511719 39.296875 41.347656 39.296875 37.410156 C 39.296875 33.515625 36.132812 30.308594 32.195312 30.308594 Z M 35.605469 36.679688 L 32.035156 40.25 C 31.832031 40.453125 31.546875 40.574219 31.261719 40.574219 C 30.976562 40.574219 30.695312 40.453125 30.492188 40.25 L 28.625 38.382812 C 28.21875 37.976562 28.21875 37.289062 28.625 36.84375 C 28.828125 36.640625 29.109375 36.515625 29.394531 36.515625 C 29.679688 36.515625 29.964844 36.640625 30.167969 36.84375 L 31.261719 37.9375 L 34.0625 35.136719 C 34.265625 34.933594 34.550781 34.8125 34.832031 34.8125 C 35.117188 34.8125 35.402344 34.933594 35.605469 35.136719 C 36.011719 35.582031 36.011719 36.273438 35.605469 36.679688 Z M 35.605469 36.679688 " fill-opacity="1" fill-rule="nonzero"/><path fill="#ffffff" d="M 26.675781 26.898438 C 26.675781 27.222656 26.917969 27.464844 27.246094 27.464844 L 37.148438 27.464844 C 37.472656 27.464844 37.714844 27.222656 37.714844 26.898438 L 37.714844 24.992188 C 37.714844 23.328125 36.660156 21.90625 35.160156 21.378906 C 34.304688 21.945312 33.292969 22.3125 32.195312 22.3125 C 31.101562 22.3125 30.042969 21.945312 29.234375 21.378906 C 27.730469 21.90625 26.675781 23.328125 26.675781 24.992188 C 26.675781 24.992188 26.675781 26.898438 26.675781 26.898438 Z M 26.675781 26.898438 " fill-opacity="1" fill-rule="nonzero"/><g clip-path="url(#646acb1ecd)"><path fill="#ffffff" d="M 32.195312 20.648438 C 34.183594 20.648438 35.765625 19.066406 35.765625 17.078125 C 35.765625 15.085938 34.183594 13.503906 32.195312 13.503906 C 30.207031 13.503906 28.625 15.085938 28.625 17.078125 C 28.625 19.066406 30.207031 20.648438 32.195312 20.648438 Z M 32.195312 20.648438 " fill-opacity="1" fill-rule="nonzero"/></g><g clip-path="url(#f0e7cb9d8b)"><path fill="#ffffff" d="M 21.398438 44.796875 C 20.546875 45.363281 19.53125 45.730469 18.4375 45.730469 C 17.339844 45.730469 16.285156 45.363281 15.472656 44.796875 C 13.972656 45.324219 12.917969 46.746094 12.917969 48.410156 L 12.917969 50.316406 C 12.917969 50.640625 13.160156 50.886719 13.484375 50.886719 L 23.386719 50.886719 C 23.714844 50.886719 23.957031 50.640625 23.957031 50.316406 L 23.957031 48.410156 C 23.957031 46.746094 22.902344 45.324219 21.398438 44.796875 Z M 21.398438 44.796875 " fill-opacity="1" fill-rule="nonzero"/></g><path fill="#ffffff" d="M 18.4375 44.066406 C 20.425781 44.066406 22.007812 42.484375 22.007812 40.496094 C 22.007812 38.507812 20.425781 36.921875 18.4375 36.921875 C 16.449219 36.921875 14.867188 38.507812 14.867188 40.496094 C 14.867188 42.484375 16.488281 44.066406 18.4375 44.066406 Z M 18.4375 44.066406 " fill-opacity="1" fill-rule="nonzero"/><path fill="#ffffff" d="M 26.757812 19.632812 C 26.757812 19.429688 26.675781 19.226562 26.511719 19.066406 L 24.320312 16.875 C 23.996094 16.550781 23.46875 16.550781 23.144531 16.875 C 22.820312 17.199219 22.820312 17.726562 23.144531 18.050781 L 23.957031 18.863281 L 21.195312 18.863281 C 19.25 18.863281 17.625 20.445312 17.625 22.433594 L 17.625 32.335938 L 16.8125 31.523438 C 16.488281 31.199219 15.960938 31.199219 15.636719 31.523438 C 15.3125 31.851562 15.3125 32.378906 15.636719 32.703125 L 17.828125 34.894531 C 17.992188 35.054688 18.195312 35.136719 18.394531 35.136719 C 18.597656 35.136719 18.800781 35.054688 18.964844 34.894531 L 21.238281 32.621094 C 21.5625 32.296875 21.5625 31.769531 21.238281 31.445312 C 20.914062 31.121094 20.386719 31.121094 20.058594 31.445312 L 19.25 32.253906 L 19.25 22.351562 C 19.25 21.296875 20.101562 20.445312 21.15625 20.445312 L 23.917969 20.445312 L 23.105469 21.257812 C 22.78125 21.582031 22.78125 22.109375 23.105469 22.433594 C 23.265625 22.597656 23.46875 22.675781 23.671875 22.675781 C 23.875 22.675781 24.078125 22.597656 24.242188 22.433594 L 26.433594 20.242188 C 26.675781 20.039062 26.757812 19.835938 26.757812 19.632812 Z M 26.757812 19.632812 " fill-opacity="1" fill-rule="nonzero"/><g clip-path="url(#b8d8438d4f)"><path fill="#ffffff" d="M 48.917969 44.796875 C 48.066406 45.363281 47.050781 45.730469 45.953125 45.730469 C 44.859375 45.730469 43.804688 45.363281 42.992188 44.796875 C 41.488281 45.324219 40.433594 46.746094 40.433594 48.410156 L 40.433594 50.316406 C 40.433594 50.640625 40.679688 50.886719 41.003906 50.886719 L 50.90625 50.886719 C 51.230469 50.886719 51.472656 50.640625 51.472656 50.316406 L 51.472656 48.410156 C 51.472656 46.746094 50.417969 45.324219 48.917969 44.796875 Z M 48.917969 44.796875 " fill-opacity="1" fill-rule="nonzero"/></g><path fill="#ffffff" d="M 45.953125 36.921875 C 43.964844 36.921875 42.382812 38.507812 42.382812 40.496094 C 42.382812 42.484375 43.964844 44.066406 45.953125 44.066406 C 47.941406 44.066406 49.527344 42.484375 49.527344 40.496094 C 49.527344 38.546875 47.902344 36.921875 45.953125 36.921875 Z M 45.953125 36.921875 " fill-opacity="1" fill-rule="nonzero"/><path fill="#ffffff" d="M 41.246094 22.394531 C 41.570312 22.070312 41.570312 21.542969 41.246094 21.214844 L 40.433594 20.40625 L 43.195312 20.40625 C 44.25 20.40625 45.101562 21.257812 45.101562 22.3125 L 45.101562 32.214844 L 44.289062 31.402344 C 43.964844 31.078125 43.4375 31.078125 43.113281 31.402344 C 42.789062 31.726562 42.789062 32.253906 43.113281 32.582031 L 45.304688 34.773438 C 45.46875 34.933594 45.671875 35.015625 45.875 35.015625 C 46.074219 35.015625 46.277344 34.933594 46.441406 34.773438 L 48.632812 32.582031 C 48.957031 32.253906 48.957031 31.726562 48.632812 31.402344 C 48.308594 31.078125 47.78125 31.078125 47.457031 31.402344 L 46.644531 32.214844 L 46.644531 22.351562 C 46.644531 20.40625 45.0625 18.78125 43.074219 18.78125 L 40.3125 18.78125 L 41.125 17.96875 C 41.449219 17.644531 41.449219 17.117188 41.125 16.792969 C 40.800781 16.46875 40.273438 16.46875 39.949219 16.792969 L 37.878906 19.066406 C 37.714844 19.226562 37.632812 19.429688 37.632812 19.632812 C 37.632812 19.835938 37.714844 20.039062 37.878906 20.203125 L 40.070312 22.394531 C 40.230469 22.554688 40.433594 22.636719 40.636719 22.636719 C 40.839844 22.636719 41.085938 22.554688 41.246094 22.394531 Z M 41.246094 22.394531 " fill-opacity="1" fill-rule="nonzero"/><path fill="#ffffff" d="M 37.757812 47.558594 L 26.636719 47.558594 C 26.1875 47.558594 25.824219 47.921875 25.824219 48.367188 C 25.824219 48.816406 26.1875 49.179688 26.636719 49.179688 L 37.796875 49.179688 C 38.242188 49.179688 38.609375 48.816406 38.609375 48.367188 C 38.609375 47.921875 38.242188 47.558594 37.757812 47.558594 Z M 37.757812 47.558594 " fill-opacity="1" fill-rule="nonzero"/></svg>