<svg xmlns="http://www.w3.org/2000/svg" xmlns:xlink="http://www.w3.org/1999/xlink" width="87" zoomAndPan="magnify" viewBox="0 0 65.25 65.25" height="87" preserveAspectRatio="xMidYMid meet" version="1.0"><defs><clipPath id="5f64782570"><path d="M 0 0 L 64.398438 0 L 64.398438 64.398438 L 0 64.398438 Z M 0 0 " clip-rule="nonzero"/></clipPath><clipPath id="9f4a4ee26f"><path d="M 32.199219 0 C 14.417969 0 0 14.417969 0 32.199219 C 0 49.984375 14.417969 64.398438 32.199219 64.398438 C 49.984375 64.398438 64.398438 49.984375 64.398438 32.199219 C 64.398438 14.417969 49.984375 0 32.199219 0 Z M 32.199219 0 " clip-rule="nonzero"/></clipPath><clipPath id="6f1836fae4"><path d="M 13.863281 10.71875 L 50.195312 10.71875 L 50.195312 49.277344 L 13.863281 49.277344 Z M 13.863281 10.71875 " clip-rule="nonzero"/></clipPath></defs><g clip-path="url(#5f64782570)"><g clip-path="url(#9f4a4ee26f)"><path fill="#104122" d="M 0 0 L 64.398438 0 L 64.398438 64.398438 L 0 64.398438 Z M 0 0 " fill-opacity="1" fill-rule="nonzero"/></g></g><g clip-path="url(#6f1836fae4)"><path fill="#f2f7ff" d="M 50.113281 25.980469 L 48 25.980469 L 48 16.507812 C 48 14.929688 46.714844 13.644531 45.136719 13.644531 L 31.542969 13.644531 C 29.964844 13.644531 28.679688 14.929688 28.679688 16.507812 L 28.679688 25.980469 L 25.664062 25.980469 L 25.664062 16.863281 C 25.664062 16.699219 25.574219 16.546875 25.429688 16.476562 L 14.523438 10.8125 C 14.382812 10.738281 14.222656 10.746094 14.089844 10.828125 C 13.960938 10.902344 13.878906 11.046875 13.878906 11.199219 L 13.878906 48.878906 C 13.878906 49.121094 14.074219 49.320312 14.316406 49.320312 L 50.113281 49.320312 C 50.359375 49.320312 50.554688 49.121094 50.554688 48.878906 L 50.554688 26.417969 C 50.554688 26.175781 50.359375 25.980469 50.113281 25.980469 Z M 31.542969 14.523438 L 45.132812 14.523438 C 46.230469 14.523438 47.117188 15.414062 47.117188 16.507812 L 47.117188 23.085938 L 29.558594 23.085938 L 29.558594 16.507812 C 29.558594 15.410156 30.449219 14.523438 31.542969 14.523438 Z M 29.558594 23.96875 L 47.121094 23.96875 L 47.121094 25.984375 L 29.558594 25.984375 Z M 14.757812 11.921875 L 24.789062 17.125 L 24.789062 48.4375 L 23.101562 48.4375 L 23.101562 38.730469 C 23.101562 38.488281 22.90625 38.292969 22.664062 38.292969 L 17.101562 38.292969 C 16.859375 38.292969 16.664062 38.488281 16.664062 38.730469 L 16.664062 48.4375 L 14.757812 48.4375 Z M 22.222656 48.4375 L 17.539062 48.4375 L 17.539062 39.171875 L 22.222656 39.171875 Z M 35.59375 48.4375 L 33.207031 48.4375 L 33.207031 40.167969 C 34.558594 40.382812 35.59375 41.554688 35.59375 42.960938 Z M 32.328125 48.4375 L 29.941406 48.4375 L 29.941406 42.964844 C 29.941406 41.554688 30.980469 40.382812 32.328125 40.171875 Z M 45.816406 48.4375 L 43.429688 48.4375 L 43.429688 40.167969 C 44.777344 40.382812 45.816406 41.554688 45.816406 42.960938 Z M 42.550781 48.4375 L 40.164062 48.4375 L 40.164062 42.964844 C 40.164062 41.554688 41.199219 40.382812 42.550781 40.171875 Z M 49.675781 48.4375 L 46.695312 48.4375 L 46.695312 42.964844 C 46.695312 40.921875 45.035156 39.257812 42.988281 39.257812 C 40.945312 39.257812 39.285156 40.921875 39.285156 42.964844 L 39.285156 48.4375 L 36.472656 48.4375 L 36.472656 42.964844 C 36.472656 40.921875 34.8125 39.257812 32.769531 39.257812 C 30.722656 39.257812 29.0625 40.921875 29.0625 42.964844 L 29.0625 48.4375 L 25.667969 48.4375 L 25.667969 26.859375 L 49.675781 26.859375 Z M 32.898438 20.632812 L 32.898438 16.847656 C 32.898438 16.605469 33.097656 16.410156 33.339844 16.410156 C 33.582031 16.410156 33.777344 16.605469 33.777344 16.847656 L 33.777344 20.191406 L 35.289062 20.191406 C 35.53125 20.191406 35.730469 20.390625 35.730469 20.632812 C 35.730469 20.875 35.53125 21.070312 35.289062 21.070312 L 33.339844 21.070312 C 33.097656 21.070312 32.898438 20.875 32.898438 20.632812 Z M 36.671875 21.050781 C 36.902344 21.125 37.148438 20.992188 37.222656 20.761719 L 37.519531 19.8125 L 38.789062 19.8125 L 39.140625 20.78125 C 39.207031 20.960938 39.375 21.070312 39.554688 21.070312 C 39.605469 21.070312 39.65625 21.0625 39.703125 21.042969 C 39.933594 20.964844 40.050781 20.707031 39.96875 20.480469 L 38.484375 16.398438 C 38.421875 16.21875 38.25 16.105469 38.0625 16.109375 C 37.875 16.113281 37.707031 16.234375 37.652344 16.417969 L 36.382812 20.5 C 36.308594 20.734375 36.4375 20.980469 36.671875 21.050781 Z M 38.105469 17.929688 L 38.472656 18.9375 L 37.789062 18.9375 Z M 41.015625 21.070312 L 42.277344 21.070312 C 43.0625 21.070312 43.703125 20.429688 43.703125 19.644531 C 43.703125 19.261719 43.550781 18.914062 43.304688 18.65625 C 43.550781 18.398438 43.703125 18.050781 43.703125 17.671875 C 43.703125 16.882812 43.0625 16.242188 42.277344 16.242188 L 41.015625 16.242188 C 40.773438 16.242188 40.574219 16.441406 40.574219 16.683594 L 40.574219 20.632812 C 40.574219 20.875 40.773438 21.070312 41.015625 21.070312 Z M 42.277344 20.191406 L 41.457031 20.191406 L 41.457031 19.097656 L 42.277344 19.097656 C 42.578125 19.097656 42.824219 19.34375 42.824219 19.644531 C 42.824219 19.945312 42.578125 20.191406 42.277344 20.191406 Z M 41.457031 17.125 L 42.277344 17.125 C 42.578125 17.125 42.824219 17.375 42.824219 17.675781 C 42.824219 17.976562 42.578125 18.222656 42.277344 18.222656 L 41.457031 18.222656 Z M 17.101562 29.875 L 22.664062 29.875 C 22.910156 29.875 23.105469 29.675781 23.105469 29.433594 L 23.105469 20.625 C 23.105469 20.457031 23.011719 20.304688 22.863281 20.230469 L 17.292969 17.457031 C 17.160156 17.390625 16.996094 17.398438 16.867188 17.476562 C 16.738281 17.558594 16.664062 17.703125 16.664062 17.851562 L 16.664062 29.433594 C 16.664062 29.675781 16.859375 29.875 17.101562 29.875 Z M 17.539062 25.3125 L 19.4375 25.3125 L 19.4375 29 L 17.539062 29 Z M 20.320312 28.996094 L 20.320312 25.308594 L 22.222656 25.308594 L 22.222656 28.996094 Z M 22.222656 24.433594 L 20.320312 24.433594 L 20.320312 19.945312 L 22.222656 20.894531 Z M 19.441406 19.507812 L 19.441406 24.433594 L 17.542969 24.433594 L 17.542969 18.5625 Z M 16.664062 31.800781 C 16.664062 31.558594 16.859375 31.363281 17.101562 31.363281 L 22.328125 31.363281 C 22.570312 31.363281 22.765625 31.558594 22.765625 31.800781 C 22.765625 32.042969 22.570312 32.242188 22.328125 32.242188 L 17.101562 32.242188 C 16.859375 32.242188 16.664062 32.042969 16.664062 31.800781 Z M 16.664062 34.085938 C 16.664062 33.839844 16.859375 33.644531 17.101562 33.644531 L 22.328125 33.644531 C 22.570312 33.644531 22.765625 33.839844 22.765625 34.085938 C 22.765625 34.328125 22.570312 34.523438 22.328125 34.523438 L 17.101562 34.523438 C 16.859375 34.523438 16.664062 34.328125 16.664062 34.085938 Z M 33.410156 36.40625 C 33.410156 36.648438 33.214844 36.84375 32.972656 36.84375 L 27.746094 36.84375 C 27.503906 36.84375 27.308594 36.648438 27.308594 36.40625 C 27.308594 36.164062 27.503906 35.964844 27.746094 35.964844 L 32.972656 35.964844 C 33.214844 35.964844 33.410156 36.164062 33.410156 36.40625 Z M 40.722656 36.40625 C 40.722656 36.648438 40.527344 36.84375 40.28125 36.84375 L 35.058594 36.84375 C 34.816406 36.84375 34.617188 36.648438 34.617188 36.40625 C 34.617188 36.164062 34.816406 35.964844 35.058594 35.964844 L 40.28125 35.964844 C 40.527344 35.964844 40.722656 36.164062 40.722656 36.40625 Z M 48.152344 36.40625 C 48.152344 36.648438 47.957031 36.84375 47.714844 36.84375 L 42.488281 36.84375 C 42.246094 36.84375 42.050781 36.648438 42.050781 36.40625 C 42.050781 36.164062 42.246094 35.964844 42.488281 35.964844 L 47.714844 35.964844 C 47.957031 35.964844 48.152344 36.164062 48.152344 36.40625 Z M 16.664062 36.40625 C 16.664062 36.164062 16.859375 35.964844 17.101562 35.964844 L 22.328125 35.964844 C 22.570312 35.964844 22.765625 36.164062 22.765625 36.40625 C 22.765625 36.648438 22.570312 36.84375 22.328125 36.84375 L 17.101562 36.84375 C 16.859375 36.84375 16.664062 36.648438 16.664062 36.40625 Z M 32.972656 28.277344 L 27.613281 28.277344 C 27.371094 28.277344 27.171875 28.472656 27.171875 28.71875 L 27.171875 33.777344 C 27.171875 34.019531 27.371094 34.214844 27.613281 34.214844 L 32.976562 34.214844 C 33.21875 34.214844 33.414062 34.019531 33.414062 33.777344 L 33.414062 28.71875 C 33.410156 28.472656 33.214844 28.277344 32.972656 28.277344 Z M 32.53125 33.335938 L 28.050781 33.335938 L 28.050781 29.15625 L 32.535156 29.15625 L 32.535156 33.335938 Z M 40.394531 28.277344 L 35.035156 28.277344 C 34.792969 28.277344 34.597656 28.472656 34.597656 28.71875 L 34.597656 33.777344 C 34.597656 34.019531 34.792969 34.214844 35.035156 34.214844 L 40.398438 34.214844 C 40.640625 34.214844 40.839844 34.019531 40.839844 33.777344 L 40.839844 28.71875 C 40.835938 28.472656 40.636719 28.277344 40.394531 28.277344 Z M 39.960938 33.335938 L 35.476562 33.335938 L 35.476562 29.15625 L 39.960938 29.15625 Z M 41.980469 28.71875 L 41.980469 33.777344 C 41.980469 34.019531 42.175781 34.214844 42.417969 34.214844 L 47.78125 34.214844 C 48.023438 34.214844 48.222656 34.019531 48.222656 33.777344 L 48.222656 28.71875 C 48.222656 28.472656 48.023438 28.277344 47.78125 28.277344 L 42.417969 28.277344 C 42.175781 28.277344 41.980469 28.472656 41.980469 28.71875 Z M 42.859375 29.15625 L 47.34375 29.15625 L 47.34375 33.335938 L 42.859375 33.335938 Z M 42.859375 29.15625 " fill-opacity="1" fill-rule="nonzero"/></g></svg>