<svg xmlns="http://www.w3.org/2000/svg" xmlns:xlink="http://www.w3.org/1999/xlink" width="162" zoomAndPan="magnify" viewBox="0 0 121.5 183.000001" height="244" preserveAspectRatio="xMidYMid meet" version="1.0"><defs><g/><clipPath id="ce446f5ea4"><path d="M 0.0820312 0 L 120 0 L 120 135 L 0.0820312 135 Z M 0.0820312 0 " clip-rule="nonzero"/></clipPath><clipPath id="0befd04267"><path d="M 27.917969 36.472656 L 95.796875 36.472656 L 95.796875 98.382812 L 27.917969 98.382812 Z M 27.917969 36.472656 " clip-rule="nonzero"/></clipPath></defs><g clip-path="url(#ce446f5ea4)"><path fill="#104122" d="M 0.585938 40.785156 C 0.585938 39.597656 0.742188 38.429688 1.046875 37.285156 C 1.355469 36.136719 1.804688 35.050781 2.398438 34.023438 C 2.992188 32.996094 3.707031 32.0625 4.546875 31.222656 C 5.382812 30.382812 6.316406 29.664062 7.34375 29.070312 L 53.519531 2.414062 C 54.546875 1.820312 55.632812 1.371094 56.78125 1.066406 C 57.925781 0.757812 59.09375 0.605469 60.28125 0.605469 C 61.46875 0.605469 62.636719 0.757812 63.78125 1.066406 C 64.929688 1.371094 66.015625 1.820312 67.046875 2.414062 L 113.214844 29.070312 C 114.242188 29.664062 115.175781 30.382812 116.015625 31.21875 C 116.855469 32.058594 117.570312 32.992188 118.164062 34.023438 C 118.757812 35.050781 119.210938 36.136719 119.515625 37.28125 C 119.824219 38.429688 119.980469 39.597656 119.984375 40.785156 L 119.984375 94.097656 C 119.980469 95.285156 119.824219 96.449219 119.515625 97.597656 C 119.207031 98.742188 118.757812 99.832031 118.164062 100.859375 C 117.570312 101.886719 116.851562 102.820312 116.015625 103.660156 C 115.175781 104.5 114.242188 105.21875 113.214844 105.8125 L 67.046875 132.46875 C 66.015625 133.0625 64.929688 133.511719 63.78125 133.816406 C 62.636719 134.125 61.46875 134.277344 60.28125 134.277344 C 59.09375 134.277344 57.929688 134.125 56.78125 133.816406 C 55.632812 133.511719 54.546875 133.0625 53.519531 132.46875 L 7.34375 105.8125 C 6.316406 105.21875 5.382812 104.5 4.546875 103.660156 C 3.707031 102.820312 2.992188 101.886719 2.398438 100.855469 C 1.804688 99.828125 1.355469 98.742188 1.046875 97.597656 C 0.742188 96.449219 0.585938 95.285156 0.585938 94.097656 Z M 0.585938 40.785156 " fill-opacity="1" fill-rule="nonzero"/></g><g clip-path="url(#0befd04267)"><path fill="#ffffff" d="M 94.675781 92.292969 L 85.933594 79.152344 C 85.347656 78.269531 84.363281 77.816406 83.378906 77.867188 L 81.371094 74.847656 C 81.625 74.628906 81.871094 74.398438 82.113281 74.15625 C 83.378906 72.890625 84.375 71.414062 85.074219 69.769531 C 85.792969 68.070312 86.160156 66.261719 86.160156 64.398438 C 86.160156 62.535156 85.792969 60.726562 85.074219 59.023438 C 84.378906 57.378906 83.382812 55.902344 82.113281 54.636719 C 80.976562 53.5 79.667969 52.578125 78.21875 51.898438 L 78.21875 43.714844 C 78.21875 43.039062 77.671875 42.492188 76.996094 42.492188 L 71.804688 42.492188 L 71.804688 37.695312 C 71.804688 37.019531 71.257812 36.472656 70.585938 36.472656 L 41.835938 36.472656 C 41.511719 36.472656 41.203125 36.597656 40.972656 36.828125 L 28.285156 49.457031 C 28.054688 49.6875 27.925781 50 27.925781 50.324219 L 27.929688 91.128906 C 27.929688 91.804688 28.476562 92.351562 29.152344 92.351562 L 34.34375 92.351562 L 34.34375 97.148438 C 34.34375 97.824219 34.890625 98.371094 35.566406 98.371094 L 76.996094 98.371094 C 77.671875 98.371094 78.21875 97.824219 78.21875 97.148438 L 78.21875 76.894531 C 78.46875 76.777344 78.714844 76.652344 78.957031 76.519531 L 80.933594 79.492188 C 80.507812 80.378906 80.542969 81.464844 81.128906 82.347656 L 89.871094 95.488281 C 90.425781 96.324219 91.339844 96.773438 92.273438 96.773438 C 92.824219 96.773438 93.378906 96.617188 93.867188 96.292969 C 95.195312 95.410156 95.554688 93.617188 94.675781 92.292969 Z M 83.222656 64.398438 C 83.222656 70.390625 78.34375 75.269531 72.351562 75.269531 C 66.359375 75.269531 61.480469 70.390625 61.480469 64.398438 C 61.480469 58.402344 66.359375 53.527344 72.351562 53.527344 C 78.34375 53.527344 83.222656 58.402344 83.222656 64.398438 Z M 34.699219 53.371094 C 34.472656 53.601562 34.339844 53.910156 34.339844 54.234375 L 34.339844 89.90625 L 30.375 89.90625 L 30.371094 50.828125 L 42.339844 38.914062 L 69.359375 38.914062 L 69.359375 42.492188 L 46.085938 42.492188 C 45.761719 42.492188 45.453125 42.621094 45.222656 42.851562 Z M 45.3125 46.214844 L 45.3125 53.015625 L 38.515625 53.015625 Z M 36.785156 95.925781 L 36.785156 55.457031 L 46.535156 55.457031 C 47.210938 55.457031 47.757812 54.910156 47.757812 54.234375 L 47.757812 44.933594 L 75.773438 44.933594 L 75.773438 51.023438 C 74.664062 50.738281 73.519531 50.59375 72.351562 50.59375 C 70.488281 50.59375 68.683594 50.960938 66.976562 51.679688 C 65.335938 52.375 63.859375 53.371094 62.589844 54.640625 C 61.324219 55.90625 60.328125 57.382812 59.632812 59.027344 C 58.914062 60.726562 58.546875 62.535156 58.546875 64.398438 C 58.546875 66.261719 58.910156 68.070312 59.632812 69.773438 C 60.328125 71.417969 61.324219 72.894531 62.589844 74.160156 C 63.859375 75.425781 65.335938 76.421875 66.976562 77.117188 C 68.679688 77.835938 70.488281 78.203125 72.351562 78.203125 C 73.519531 78.203125 74.660156 78.058594 75.773438 77.777344 L 75.773438 95.929688 L 36.785156 95.929688 Z M 36.785156 95.925781 " fill-opacity="1" fill-rule="nonzero"/></g><path fill="#ffffff" d="M 41.765625 61.230469 L 53.402344 61.230469 L 53.402344 63.238281 L 41.765625 63.238281 Z M 41.765625 61.230469 " fill-opacity="1" fill-rule="nonzero"/><path fill="#ffffff" d="M 41.765625 67.632812 L 53.402344 67.632812 L 53.402344 69.636719 L 41.765625 69.636719 Z M 41.765625 67.632812 " fill-opacity="1" fill-rule="nonzero"/><path fill="#ffffff" d="M 41.765625 74.035156 L 53.402344 74.035156 L 53.402344 76.039062 L 41.765625 76.039062 Z M 41.765625 74.035156 " fill-opacity="1" fill-rule="nonzero"/><path fill="#ffffff" d="M 41.765625 80.433594 L 70.976562 80.433594 L 70.976562 82.4375 L 41.765625 82.4375 Z M 41.765625 80.433594 " fill-opacity="1" fill-rule="nonzero"/><path fill="#ffffff" d="M 41.765625 86.835938 L 70.976562 86.835938 L 70.976562 88.839844 L 41.765625 88.839844 Z M 41.765625 86.835938 " fill-opacity="1" fill-rule="nonzero"/><g fill="#000000" fill-opacity="1"><g transform="translate(21.865777, 173.682049)"><g><path d="M 6.046875 0.15625 C 5.023438 0.15625 4.125 -0.0507812 3.34375 -0.46875 C 2.570312 -0.894531 1.96875 -1.53125 1.53125 -2.375 C 1.09375 -3.226562 0.875 -4.28125 0.875 -5.53125 C 0.875 -6.769531 1.09375 -7.8125 1.53125 -8.65625 C 1.96875 -9.507812 2.570312 -10.148438 3.34375 -10.578125 C 4.125 -11.003906 5.023438 -11.21875 6.046875 -11.21875 C 7.109375 -11.21875 8.007812 -11.007812 8.75 -10.59375 C 9.488281 -10.175781 10.019531 -9.539062 10.34375 -8.6875 L 8.75 -7.71875 L 8.5625 -7.71875 C 8.320312 -8.289062 8 -8.703125 7.59375 -8.953125 C 7.1875 -9.203125 6.671875 -9.328125 6.046875 -9.328125 C 5.128906 -9.328125 4.410156 -9.019531 3.890625 -8.40625 C 3.378906 -7.800781 3.125 -6.84375 3.125 -5.53125 C 3.125 -4.207031 3.378906 -3.242188 3.890625 -2.640625 C 4.410156 -2.035156 5.128906 -1.734375 6.046875 -1.734375 C 7.484375 -1.734375 8.363281 -2.429688 8.6875 -3.828125 L 8.875 -3.828125 L 10.484375 -2.984375 C 10.179688 -1.929688 9.660156 -1.144531 8.921875 -0.625 C 8.191406 -0.101562 7.234375 0.15625 6.046875 0.15625 Z M 6.046875 0.15625 "/></g></g></g><g fill="#000000" fill-opacity="1"><g transform="translate(32.703344, 173.682049)"><g><path d="M 10.609375 0 L 8.3125 0 L 7.484375 -2.546875 L 3.25 -2.546875 L 2.40625 0 L 0.171875 0 L 3.984375 -11.046875 L 6.796875 -11.046875 Z M 5.25 -8.75 L 3.828125 -4.390625 L 6.875 -4.390625 L 5.4375 -8.75 Z M 5.25 -8.75 "/></g></g></g><g fill="#000000" fill-opacity="1"><g transform="translate(43.472894, 173.682049)"><g><path d="M 4.90625 0.15625 C 4.132812 0.15625 3.445312 0.0625 2.84375 -0.125 C 2.25 -0.3125 1.753906 -0.554688 1.359375 -0.859375 C 0.960938 -1.171875 0.660156 -1.507812 0.453125 -1.875 L 1.640625 -3.34375 L 1.84375 -3.34375 C 2.175781 -2.851562 2.597656 -2.460938 3.109375 -2.171875 C 3.617188 -1.878906 4.21875 -1.734375 4.90625 -1.734375 C 5.488281 -1.734375 5.925781 -1.851562 6.21875 -2.09375 C 6.519531 -2.34375 6.671875 -2.6875 6.671875 -3.125 C 6.671875 -3.382812 6.617188 -3.601562 6.515625 -3.78125 C 6.421875 -3.957031 6.265625 -4.109375 6.046875 -4.234375 C 5.828125 -4.359375 5.53125 -4.46875 5.15625 -4.5625 L 3.734375 -4.890625 C 2.734375 -5.109375 1.988281 -5.476562 1.5 -6 C 1.019531 -6.53125 0.78125 -7.21875 0.78125 -8.0625 C 0.78125 -8.6875 0.9375 -9.234375 1.25 -9.703125 C 1.5625 -10.179688 2.015625 -10.550781 2.609375 -10.8125 C 3.210938 -11.082031 3.925781 -11.21875 4.75 -11.21875 C 5.601562 -11.21875 6.332031 -11.101562 6.9375 -10.875 C 7.550781 -10.65625 8.066406 -10.3125 8.484375 -9.84375 L 7.40625 -8.359375 L 7.21875 -8.359375 C 6.90625 -8.691406 6.546875 -8.9375 6.140625 -9.09375 C 5.734375 -9.257812 5.269531 -9.34375 4.75 -9.34375 C 4.15625 -9.34375 3.703125 -9.234375 3.390625 -9.015625 C 3.078125 -8.804688 2.921875 -8.519531 2.921875 -8.15625 C 2.921875 -7.800781 3.03125 -7.519531 3.25 -7.3125 C 3.46875 -7.113281 3.847656 -6.953125 4.390625 -6.828125 L 5.84375 -6.53125 C 6.914062 -6.300781 7.691406 -5.914062 8.171875 -5.375 C 8.660156 -4.832031 8.90625 -4.128906 8.90625 -3.265625 C 8.90625 -2.566406 8.753906 -1.960938 8.453125 -1.453125 C 8.148438 -0.941406 7.695312 -0.546875 7.09375 -0.265625 C 6.5 0.015625 5.769531 0.15625 4.90625 0.15625 Z M 4.90625 0.15625 "/></g></g></g><g fill="#000000" fill-opacity="1"><g transform="translate(52.965212, 173.682049)"><g><path d="M 3.625 -4.859375 L 3.625 -1.828125 L 8.90625 -1.828125 L 8.90625 0 L 1.4375 0 L 1.4375 -11.046875 L 8.78125 -11.046875 L 8.78125 -9.21875 L 3.625 -9.21875 L 3.625 -6.640625 L 8.125 -6.640625 L 8.125 -4.859375 Z M 3.625 -4.859375 "/></g></g></g><g fill="#000000" fill-opacity="1"><g transform="translate(62.465088, 173.682049)"><g/></g></g><g fill="#000000" fill-opacity="1"><g transform="translate(66.115399, 173.682049)"><g><path d="M 3.625 -11.046875 L 3.625 -1.828125 L 8.59375 -1.828125 L 8.59375 0 L 1.4375 0 L 1.4375 -11.046875 Z M 3.625 -11.046875 "/></g></g></g><g fill="#000000" fill-opacity="1"><g transform="translate(75.063572, 173.682049)"><g><path d="M 6.03125 0.15625 C 5.007812 0.15625 4.113281 -0.046875 3.34375 -0.453125 C 2.570312 -0.867188 1.96875 -1.5 1.53125 -2.34375 C 1.09375 -3.195312 0.875 -4.257812 0.875 -5.53125 C 0.875 -6.789062 1.09375 -7.84375 1.53125 -8.6875 C 1.96875 -9.539062 2.570312 -10.175781 3.34375 -10.59375 C 4.113281 -11.007812 5.007812 -11.21875 6.03125 -11.21875 C 7.039062 -11.21875 7.929688 -11.007812 8.703125 -10.59375 C 9.472656 -10.1875 10.078125 -9.554688 10.515625 -8.703125 C 10.953125 -7.847656 11.171875 -6.789062 11.171875 -5.53125 C 11.171875 -4.257812 10.953125 -3.195312 10.515625 -2.34375 C 10.078125 -1.5 9.472656 -0.867188 8.703125 -0.453125 C 7.929688 -0.046875 7.039062 0.15625 6.03125 0.15625 Z M 6.03125 -1.734375 C 6.96875 -1.734375 7.679688 -2.035156 8.171875 -2.640625 C 8.671875 -3.242188 8.921875 -4.207031 8.921875 -5.53125 C 8.921875 -6.84375 8.671875 -7.800781 8.171875 -8.40625 C 7.679688 -9.019531 6.96875 -9.328125 6.03125 -9.328125 C 5.082031 -9.328125 4.359375 -9.019531 3.859375 -8.40625 C 3.367188 -7.800781 3.125 -6.84375 3.125 -5.53125 C 3.125 -4.207031 3.367188 -3.242188 3.859375 -2.640625 C 4.359375 -2.035156 5.082031 -1.734375 6.03125 -1.734375 Z M 6.03125 -1.734375 "/></g></g></g><g fill="#000000" fill-opacity="1"><g transform="translate(87.102794, 173.682049)"><g><path d="M 5.375 0.15625 C 4.445312 0.15625 3.644531 -0.0507812 2.96875 -0.46875 C 2.300781 -0.894531 1.785156 -1.53125 1.421875 -2.375 C 1.054688 -3.226562 0.875 -4.28125 0.875 -5.53125 C 0.875 -6.789062 1.09375 -7.84375 1.53125 -8.6875 C 1.96875 -9.539062 2.570312 -10.175781 3.34375 -10.59375 C 4.125 -11.007812 5.03125 -11.21875 6.0625 -11.21875 C 7.125 -11.21875 8.023438 -11.019531 8.765625 -10.625 C 9.515625 -10.226562 10.039062 -9.644531 10.34375 -8.875 L 8.75 -7.90625 L 8.5625 -7.90625 C 8.332031 -8.40625 8.007812 -8.765625 7.59375 -8.984375 C 7.1875 -9.210938 6.675781 -9.328125 6.0625 -9.328125 C 5.113281 -9.328125 4.382812 -9.023438 3.875 -8.421875 C 3.375 -7.816406 3.125 -6.851562 3.125 -5.53125 C 3.125 -4.1875 3.359375 -3.210938 3.828125 -2.609375 C 4.296875 -2.003906 4.992188 -1.703125 5.921875 -1.703125 C 6.710938 -1.703125 7.296875 -1.878906 7.671875 -2.234375 C 8.054688 -2.597656 8.25 -3.132812 8.25 -3.84375 L 8.25 -4.328125 L 5.625 -4.328125 L 5.625 -6.09375 L 10.421875 -6.09375 L 10.421875 0 L 8.328125 0 L 8.328125 -1.484375 L 8.171875 -1.5 C 7.941406 -0.96875 7.597656 -0.554688 7.140625 -0.265625 C 6.679688 0.015625 6.09375 0.15625 5.375 0.15625 Z M 5.375 0.15625 "/></g></g></g></svg>