<svg xmlns="http://www.w3.org/2000/svg" xmlns:xlink="http://www.w3.org/1999/xlink" width="87" zoomAndPan="magnify" viewBox="0 0 65.25 65.25" height="87" preserveAspectRatio="xMidYMid meet" version="1.0"><defs><clipPath id="e71ae2e533"><path d="M 0 0 L 64.398438 0 L 64.398438 64.398438 L 0 64.398438 Z M 0 0 " clip-rule="nonzero"/></clipPath><clipPath id="52b8c290f5"><path d="M 32.199219 0 C 14.417969 0 0 14.417969 0 32.199219 C 0 49.984375 14.417969 64.398438 32.199219 64.398438 C 49.984375 64.398438 64.398438 49.984375 64.398438 32.199219 C 64.398438 14.417969 49.984375 0 32.199219 0 Z M 32.199219 0 " clip-rule="nonzero"/></clipPath><clipPath id="415e8f1109"><path d="M 13.386719 13.386719 L 42 13.386719 L 42 42 L 13.386719 42 Z M 13.386719 13.386719 " clip-rule="nonzero"/></clipPath></defs><g clip-path="url(#e71ae2e533)"><g clip-path="url(#52b8c290f5)"><path fill="#104122" d="M 0 0 L 64.398438 0 L 64.398438 64.398438 L 0 64.398438 Z M 0 0 " fill-opacity="1" fill-rule="nonzero"/></g></g><path fill="#ffffff" d="M 35.265625 37.613281 L 37.609375 35.269531 L 42.371094 40.027344 L 40.027344 42.371094 Z M 35.265625 37.613281 " fill-opacity="1" fill-rule="nonzero"/><path fill="#ffffff" d="M 49.882812 44.882812 C 50.917969 45.917969 50.917969 47.597656 49.882812 48.632812 L 48.632812 49.882812 C 47.597656 50.921875 45.917969 50.921875 44.882812 49.882812 L 38.179688 43.179688 C 37.144531 42.144531 37.144531 40.464844 38.179688 39.429688 L 39.429688 38.179688 C 40.464844 37.144531 42.148438 37.144531 43.183594 38.179688 Z M 49.882812 44.882812 " fill-opacity="1" fill-rule="nonzero"/><g clip-path="url(#415e8f1109)"><path fill="#ffffff" d="M 27.621094 13.367188 C 19.746094 13.367188 13.367188 19.746094 13.367188 27.621094 C 13.367188 35.492188 19.746094 41.871094 27.621094 41.871094 C 35.492188 41.871094 41.871094 35.492188 41.871094 27.621094 C 41.871094 19.746094 35.492188 13.367188 27.621094 13.367188 Z M 27.621094 39.234375 C 21.203125 39.234375 16.003906 34.035156 16.003906 27.621094 C 16.003906 21.203125 21.203125 16.003906 27.621094 16.003906 C 34.035156 16.003906 39.234375 21.203125 39.234375 27.621094 C 39.234375 34.035156 34.035156 39.234375 27.621094 39.234375 Z M 27.621094 39.234375 " fill-opacity="1" fill-rule="nonzero"/></g><path fill="#ffffff" d="M 30.542969 34.671875 C 24.855469 34.671875 20.246094 30.0625 20.246094 24.378906 C 20.246094 24.226562 20.261719 24.078125 20.269531 23.925781 C 19.515625 25.140625 19.078125 26.570312 19.078125 28.101562 C 19.078125 32.496094 22.640625 36.058594 27.035156 36.058594 C 28.734375 36.058594 30.304688 35.523438 31.597656 34.621094 C 31.25 34.65625 30.898438 34.671875 30.542969 34.671875 Z M 30.542969 34.671875 " fill-opacity="1" fill-rule="nonzero"/></svg>