<svg xmlns="http://www.w3.org/2000/svg" xmlns:xlink="http://www.w3.org/1999/xlink" width="152" zoomAndPan="magnify" viewBox="0 0 114 179.249993" height="239" preserveAspectRatio="xMidYMid meet" version="1.0"><defs><g/><clipPath id="91e70af95b"><path d="M 0.238281 0 L 113 0 L 113 126.222656 L 0.238281 126.222656 Z M 0.238281 0 " clip-rule="nonzero"/></clipPath><clipPath id="7a4912b01a"><path d="M 42 35.695312 L 71 35.695312 L 71 79 L 42 79 Z M 42 35.695312 " clip-rule="nonzero"/></clipPath><clipPath id="e4083f82d8"><path d="M 29.128906 69 L 84.398438 69 L 84.398438 90.964844 L 29.128906 90.964844 Z M 29.128906 69 " clip-rule="nonzero"/></clipPath></defs><g clip-path="url(#91e70af95b)"><path fill="#104122" d="M 0.707031 38.285156 C 0.707031 37.167969 0.851562 36.074219 1.140625 35 C 1.429688 33.921875 1.851562 32.902344 2.410156 31.9375 C 2.964844 30.972656 3.636719 30.097656 4.425781 29.308594 C 5.210938 28.519531 6.085938 27.847656 7.050781 27.289062 L 50.394531 2.265625 C 51.359375 1.710938 52.378906 1.289062 53.457031 1 C 54.535156 0.710938 55.628906 0.566406 56.742188 0.566406 C 57.859375 0.566406 58.953125 0.710938 60.03125 1 C 61.105469 1.289062 62.128906 1.710938 63.09375 2.265625 L 106.429688 27.289062 C 107.394531 27.84375 108.273438 28.519531 109.058594 29.308594 C 109.847656 30.09375 110.519531 30.972656 111.078125 31.9375 C 111.636719 32.902344 112.058594 33.921875 112.347656 34.996094 C 112.636719 36.074219 112.78125 37.167969 112.785156 38.285156 L 112.785156 88.328125 C 112.78125 89.445312 112.636719 90.539062 112.347656 91.613281 C 112.058594 92.691406 111.632812 93.710938 111.078125 94.675781 C 110.519531 95.640625 109.847656 96.519531 109.058594 97.304688 C 108.273438 98.09375 107.394531 98.769531 106.429688 99.324219 L 63.09375 124.351562 C 62.128906 124.90625 61.105469 125.328125 60.03125 125.613281 C 58.953125 125.902344 57.859375 126.046875 56.742188 126.046875 C 55.628906 126.046875 54.535156 125.902344 53.457031 125.613281 C 52.382812 125.328125 51.359375 124.90625 50.394531 124.351562 L 7.050781 99.324219 C 6.085938 98.765625 5.210938 98.09375 4.425781 97.304688 C 3.636719 96.515625 2.964844 95.640625 2.410156 94.675781 C 1.851562 93.710938 1.429688 92.691406 1.140625 91.613281 C 0.851562 90.539062 0.707031 89.441406 0.707031 88.328125 Z M 0.707031 38.285156 " fill-opacity="1" fill-rule="nonzero"/></g><g clip-path="url(#7a4912b01a)"><path fill="#ffffff" d="M 59.148438 69.929688 L 59.148438 38.125 C 59.148438 37.480469 58.898438 36.863281 58.4375 36.402344 C 57.976562 35.957031 57.359375 35.695312 56.714844 35.695312 C 56.074219 35.695312 55.457031 35.957031 54.996094 36.402344 C 54.535156 36.863281 54.285156 37.480469 54.285156 38.125 L 54.285156 69.929688 C 54.285156 69.929688 49.648438 65.292969 47.0625 62.703125 C 46.601562 62.246094 45.984375 61.996094 45.339844 61.996094 C 44.695312 61.996094 44.078125 62.246094 43.617188 62.703125 C 42.671875 63.648438 42.671875 65.1875 43.617188 66.132812 L 55.085938 77.601562 C 55.519531 78.035156 56.097656 78.273438 56.714844 78.273438 C 57.335938 78.273438 57.910156 78.035156 58.34375 77.601562 L 69.8125 66.132812 C 70.761719 65.1875 70.761719 63.648438 69.8125 62.703125 C 69.355469 62.246094 68.738281 61.996094 68.09375 61.996094 C 67.449219 61.996094 66.832031 62.246094 66.371094 62.703125 C 63.769531 65.292969 59.148438 69.929688 59.148438 69.929688 Z M 59.148438 69.929688 " fill-opacity="1" fill-rule="evenodd"/></g><g clip-path="url(#e4083f82d8)"><path fill="#ffffff" d="M 29.128906 86.273438 C 29.128906 87.492188 29.613281 88.664062 30.480469 89.515625 C 31.347656 90.382812 32.519531 90.871094 33.726562 90.871094 L 79.707031 90.871094 C 80.929688 90.871094 82.097656 90.382812 82.953125 89.515625 C 83.816406 88.648438 84.304688 87.480469 84.304688 86.273438 L 84.304688 72.359375 C 84.304688 71.019531 83.214844 69.929688 81.875 69.929688 C 81.230469 69.929688 80.613281 70.191406 80.152344 70.640625 C 79.691406 71.097656 79.445312 71.714844 79.445312 72.359375 L 79.445312 83.722656 C 79.445312 84.996094 78.417969 86.023438 77.144531 86.023438 L 36.289062 86.023438 C 35.015625 86.023438 33.988281 84.996094 33.988281 83.722656 L 33.988281 72.359375 C 33.988281 71.714844 33.726562 71.097656 33.28125 70.640625 C 32.820312 70.179688 32.203125 69.929688 31.558594 69.929688 C 30.21875 69.929688 29.128906 71.019531 29.128906 72.359375 Z M 29.128906 86.273438 " fill-opacity="1" fill-rule="evenodd"/></g><g fill="#000000" fill-opacity="1"><g transform="translate(9.647331, 170.260269)"><g><path d="M 5.421875 -11.0625 C 7.210938 -11.0625 8.582031 -10.597656 9.53125 -9.671875 C 10.476562 -8.742188 10.953125 -7.363281 10.953125 -5.53125 C 10.953125 -3.707031 10.476562 -2.328125 9.53125 -1.390625 C 8.582031 -0.460938 7.210938 0 5.421875 0 L 1.4375 0 L 1.4375 -11.0625 Z M 5.296875 -1.84375 C 6.429688 -1.84375 7.28125 -2.132812 7.84375 -2.71875 C 8.414062 -3.300781 8.703125 -4.238281 8.703125 -5.53125 C 8.703125 -6.832031 8.414062 -7.769531 7.84375 -8.34375 C 7.28125 -8.925781 6.429688 -9.21875 5.296875 -9.21875 L 3.625 -9.21875 L 3.625 -1.84375 Z M 5.296875 -1.84375 "/></g></g></g><g fill="#000000" fill-opacity="1"><g transform="translate(21.478012, 170.260269)"><g><path d="M 6.03125 0.15625 C 5.019531 0.15625 4.125 -0.046875 3.34375 -0.453125 C 2.570312 -0.867188 1.96875 -1.503906 1.53125 -2.359375 C 1.09375 -3.210938 0.875 -4.269531 0.875 -5.53125 C 0.875 -6.800781 1.09375 -7.859375 1.53125 -8.703125 C 1.96875 -9.554688 2.570312 -10.1875 3.34375 -10.59375 C 4.125 -11.007812 5.019531 -11.21875 6.03125 -11.21875 C 7.039062 -11.21875 7.929688 -11.007812 8.703125 -10.59375 C 9.484375 -10.1875 10.085938 -9.554688 10.515625 -8.703125 C 10.953125 -7.859375 11.171875 -6.800781 11.171875 -5.53125 C 11.171875 -4.269531 10.953125 -3.210938 10.515625 -2.359375 C 10.085938 -1.503906 9.484375 -0.867188 8.703125 -0.453125 C 7.929688 -0.046875 7.039062 0.15625 6.03125 0.15625 Z M 6.03125 -1.734375 C 6.96875 -1.734375 7.679688 -2.035156 8.171875 -2.640625 C 8.671875 -3.242188 8.921875 -4.207031 8.921875 -5.53125 C 8.921875 -6.851562 8.671875 -7.816406 8.171875 -8.421875 C 7.679688 -9.023438 6.96875 -9.328125 6.03125 -9.328125 C 5.082031 -9.328125 4.359375 -9.023438 3.859375 -8.421875 C 3.367188 -7.816406 3.125 -6.851562 3.125 -5.53125 C 3.125 -4.207031 3.367188 -3.242188 3.859375 -2.640625 C 4.359375 -2.035156 5.082031 -1.734375 6.03125 -1.734375 Z M 6.03125 -1.734375 "/></g></g></g><g fill="#000000" fill-opacity="1"><g transform="translate(33.535769, 170.260269)"><g><path d="M 5.28125 0 L 2.84375 0 L 0.296875 -11.0625 L 2.484375 -11.0625 L 4.15625 -3.28125 L 4.34375 -3.28125 L 6.328125 -11.0625 L 8.203125 -11.0625 L 10.21875 -3.28125 L 10.40625 -3.28125 L 12.09375 -11.0625 L 14.1875 -11.0625 L 11.65625 0 L 9.203125 0 L 7.265625 -7.140625 L 7.109375 -7.140625 Z M 5.28125 0 "/></g></g></g><g fill="#000000" fill-opacity="1"><g transform="translate(48.023237, 170.260269)"><g><path d="M 3.5625 0 L 1.4375 0 L 1.4375 -11.0625 L 3.9375 -11.0625 L 8.390625 -3.9375 L 8.578125 -3.96875 L 8.578125 -11.0625 L 10.6875 -11.0625 L 10.6875 0 L 8.453125 0 L 3.75 -7.609375 L 3.5625 -7.578125 Z M 3.5625 0 "/></g></g></g><g fill="#000000" fill-opacity="1"><g transform="translate(60.156687, 170.260269)"><g><path d="M 3.625 -11.0625 L 3.625 -1.828125 L 8.59375 -1.828125 L 8.59375 0 L 1.4375 0 L 1.4375 -11.0625 Z M 3.625 -11.0625 "/></g></g></g><g fill="#000000" fill-opacity="1"><g transform="translate(69.118632, 170.260269)"><g><path d="M 6.03125 0.15625 C 5.019531 0.15625 4.125 -0.046875 3.34375 -0.453125 C 2.570312 -0.867188 1.96875 -1.503906 1.53125 -2.359375 C 1.09375 -3.210938 0.875 -4.269531 0.875 -5.53125 C 0.875 -6.800781 1.09375 -7.859375 1.53125 -8.703125 C 1.96875 -9.554688 2.570312 -10.1875 3.34375 -10.59375 C 4.125 -11.007812 5.019531 -11.21875 6.03125 -11.21875 C 7.039062 -11.21875 7.929688 -11.007812 8.703125 -10.59375 C 9.484375 -10.1875 10.085938 -9.554688 10.515625 -8.703125 C 10.953125 -7.859375 11.171875 -6.800781 11.171875 -5.53125 C 11.171875 -4.269531 10.953125 -3.210938 10.515625 -2.359375 C 10.085938 -1.503906 9.484375 -0.867188 8.703125 -0.453125 C 7.929688 -0.046875 7.039062 0.15625 6.03125 0.15625 Z M 6.03125 -1.734375 C 6.96875 -1.734375 7.679688 -2.035156 8.171875 -2.640625 C 8.671875 -3.242188 8.921875 -4.207031 8.921875 -5.53125 C 8.921875 -6.851562 8.671875 -7.816406 8.171875 -8.421875 C 7.679688 -9.023438 6.96875 -9.328125 6.03125 -9.328125 C 5.082031 -9.328125 4.359375 -9.023438 3.859375 -8.421875 C 3.367188 -7.816406 3.125 -6.851562 3.125 -5.53125 C 3.125 -4.207031 3.367188 -3.242188 3.859375 -2.640625 C 4.359375 -2.035156 5.082031 -1.734375 6.03125 -1.734375 Z M 6.03125 -1.734375 "/></g></g></g><g fill="#000000" fill-opacity="1"><g transform="translate(81.176389, 170.260269)"><g><path d="M 10.625 0 L 8.3125 0 L 7.484375 -2.546875 L 3.25 -2.546875 L 2.421875 0 L 0.171875 0 L 3.984375 -11.0625 L 6.796875 -11.0625 Z M 5.265625 -8.75 L 3.84375 -4.390625 L 6.875 -4.390625 L 5.453125 -8.75 Z M 5.265625 -8.75 "/></g></g></g><g fill="#000000" fill-opacity="1"><g transform="translate(91.962519, 170.260269)"><g><path d="M 5.421875 -11.0625 C 7.210938 -11.0625 8.582031 -10.597656 9.53125 -9.671875 C 10.476562 -8.742188 10.953125 -7.363281 10.953125 -5.53125 C 10.953125 -3.707031 10.476562 -2.328125 9.53125 -1.390625 C 8.582031 -0.460938 7.210938 0 5.421875 0 L 1.4375 0 L 1.4375 -11.0625 Z M 5.296875 -1.84375 C 6.429688 -1.84375 7.28125 -2.132812 7.84375 -2.71875 C 8.414062 -3.300781 8.703125 -4.238281 8.703125 -5.53125 C 8.703125 -6.832031 8.414062 -7.769531 7.84375 -8.34375 C 7.28125 -8.925781 6.429688 -9.21875 5.296875 -9.21875 L 3.625 -9.21875 L 3.625 -1.84375 Z M 5.296875 -1.84375 "/></g></g></g></svg>