<svg xmlns="http://www.w3.org/2000/svg" xmlns:xlink="http://www.w3.org/1999/xlink" width="87" zoomAndPan="magnify" viewBox="0 0 65.25 65.25" height="87" preserveAspectRatio="xMidYMid meet" version="1.0"><defs><clipPath id="13be6b2ce1"><path d="M 0 0 L 64.398438 0 L 64.398438 64.398438 L 0 64.398438 Z M 0 0 " clip-rule="nonzero"/></clipPath><clipPath id="7344579609"><path d="M 32.199219 0 C 14.417969 0 0 14.417969 0 32.199219 C 0 49.984375 14.417969 64.398438 32.199219 64.398438 C 49.984375 64.398438 64.398438 49.984375 64.398438 32.199219 C 64.398438 14.417969 49.984375 0 32.199219 0 Z M 32.199219 0 " clip-rule="nonzero"/></clipPath><clipPath id="2cef71e23d"><path d="M 23 9.34375 L 36 9.34375 L 36 20 L 23 20 Z M 23 9.34375 " clip-rule="nonzero"/></clipPath><clipPath id="67382dd765"><path d="M 11.015625 11 L 24 11 L 24 27 L 11.015625 27 Z M 11.015625 11 " clip-rule="nonzero"/></clipPath><clipPath id="85729d3067"><path d="M 11.015625 13 L 26 13 L 26 30 L 11.015625 30 Z M 11.015625 13 " clip-rule="nonzero"/></clipPath></defs><g clip-path="url(#13be6b2ce1)"><g clip-path="url(#7344579609)"><path fill="#104122" d="M 0 0 L 64.398438 0 L 64.398438 64.398438 L 0 64.398438 Z M 0 0 " fill-opacity="1" fill-rule="nonzero"/></g></g><g clip-path="url(#2cef71e23d)"><path fill="#ffffff" d="M 23.636719 9.441406 C 23.636719 9.441406 23.699219 9.433594 23.820312 9.421875 C 23.9375 9.410156 24.113281 9.386719 24.335938 9.371094 C 24.449219 9.359375 24.574219 9.355469 24.710938 9.347656 C 24.847656 9.347656 24.996094 9.339844 25.152344 9.347656 C 25.472656 9.351562 25.828125 9.394531 26.214844 9.46875 C 26.605469 9.539062 27.007812 9.671875 27.433594 9.820312 C 27.851562 9.976562 28.285156 10.171875 28.71875 10.394531 C 28.824219 10.453125 28.933594 10.507812 29.042969 10.566406 C 29.152344 10.625 29.257812 10.691406 29.367188 10.753906 C 29.476562 10.816406 29.582031 10.882812 29.691406 10.945312 C 29.796875 11.015625 29.90625 11.082031 30.011719 11.152344 C 30.121094 11.222656 30.230469 11.292969 30.339844 11.363281 C 30.445312 11.433594 30.546875 11.503906 30.65625 11.589844 C 30.875 11.761719 31.066406 11.9375 31.253906 12.121094 C 32.007812 12.859375 32.621094 13.703125 33.148438 14.515625 C 33.410156 14.921875 33.644531 15.328125 33.859375 15.714844 C 34.074219 16.101562 34.257812 16.480469 34.425781 16.828125 C 34.589844 17.175781 34.726562 17.503906 34.84375 17.796875 C 34.960938 18.085938 35.046875 18.34375 35.121094 18.558594 C 35.191406 18.769531 35.238281 18.941406 35.269531 19.058594 C 35.296875 19.175781 35.3125 19.238281 35.3125 19.238281 C 35.3125 19.238281 35.289062 19.175781 35.238281 19.066406 C 35.191406 18.957031 35.117188 18.800781 35.019531 18.597656 C 34.921875 18.398438 34.792969 18.15625 34.652344 17.882812 C 34.503906 17.609375 34.328125 17.308594 34.140625 16.976562 C 33.949219 16.648438 33.730469 16.296875 33.496094 15.929688 C 33.265625 15.5625 33.007812 15.183594 32.730469 14.796875 C 32.460938 14.410156 32.164062 14.019531 31.851562 13.640625 C 31.535156 13.261719 31.207031 12.882812 30.847656 12.542969 C 30.671875 12.371094 30.480469 12.207031 30.296875 12.0625 C 30.210938 11.988281 30.101562 11.914062 30 11.839844 C 29.898438 11.773438 29.796875 11.707031 29.695312 11.640625 C 29.589844 11.570312 29.488281 11.503906 29.386719 11.433594 C 29.28125 11.371094 29.175781 11.304688 29.074219 11.242188 C 28.96875 11.179688 28.867188 11.117188 28.765625 11.050781 C 28.664062 10.992188 28.558594 10.933594 28.457031 10.875 C 28.050781 10.632812 27.644531 10.441406 27.257812 10.253906 C 26.863281 10.082031 26.484375 9.929688 26.128906 9.824219 C 25.410156 9.601562 24.78125 9.535156 24.335938 9.5 C 23.890625 9.460938 23.636719 9.441406 23.636719 9.441406 " fill-opacity="1" fill-rule="nonzero"/></g><path fill="#ffffff" d="M 20.078125 10.457031 C 20.078125 10.457031 20.160156 10.449219 20.3125 10.4375 C 20.460938 10.425781 20.683594 10.398438 20.964844 10.378906 C 21.246094 10.355469 21.59375 10.328125 21.988281 10.320312 C 22.386719 10.308594 22.832031 10.304688 23.324219 10.335938 C 23.8125 10.367188 24.34375 10.417969 24.898438 10.519531 C 25.453125 10.617188 26.035156 10.75 26.621094 10.949219 C 27.207031 11.144531 27.804688 11.382812 28.382812 11.683594 C 28.960938 11.988281 29.519531 12.34375 30.046875 12.742188 C 30.304688 12.933594 30.566406 13.148438 30.8125 13.359375 C 31.0625 13.570312 31.300781 13.789062 31.539062 14.011719 C 32.007812 14.457031 32.4375 14.925781 32.832031 15.398438 C 33.226562 15.867188 33.582031 16.347656 33.890625 16.816406 C 34.207031 17.28125 34.472656 17.742188 34.703125 18.175781 C 34.933594 18.605469 35.125 19.011719 35.277344 19.378906 C 35.433594 19.746094 35.550781 20.070312 35.640625 20.339844 C 35.734375 20.609375 35.792969 20.824219 35.832031 20.96875 C 35.871094 21.117188 35.894531 21.195312 35.894531 21.195312 C 35.894531 21.195312 35.859375 21.121094 35.800781 20.980469 C 35.738281 20.84375 35.648438 20.640625 35.527344 20.386719 C 35.285156 19.875 34.914062 19.160156 34.402344 18.347656 C 34.273438 18.144531 34.132812 17.9375 33.988281 17.726562 C 33.84375 17.511719 33.6875 17.292969 33.523438 17.074219 C 33.355469 16.855469 33.1875 16.632812 33 16.414062 C 32.820312 16.1875 32.628906 15.964844 32.433594 15.742188 C 32.035156 15.296875 31.597656 14.859375 31.144531 14.429688 C 30.914062 14.21875 30.679688 14.007812 30.433594 13.804688 C 30.191406 13.601562 29.949219 13.410156 29.691406 13.210938 C 29.191406 12.828125 28.664062 12.480469 28.113281 12.1875 C 27.570312 11.890625 27.011719 11.636719 26.453125 11.433594 C 25.894531 11.230469 25.34375 11.0625 24.8125 10.941406 C 24.277344 10.820312 23.765625 10.726562 23.292969 10.664062 C 22.339844 10.542969 21.535156 10.507812 20.96875 10.492188 C 20.6875 10.480469 20.460938 10.472656 20.3125 10.46875 C 20.160156 10.460938 20.078125 10.457031 20.078125 10.457031 " fill-opacity="1" fill-rule="nonzero"/><path fill="#ffffff" d="M 20.078125 15.371094 C 20.078125 15.371094 20.097656 15.359375 20.132812 15.335938 C 20.164062 15.3125 20.214844 15.277344 20.285156 15.238281 C 20.425781 15.160156 20.640625 15.054688 20.925781 14.957031 C 21.496094 14.757812 22.351562 14.578125 23.390625 14.546875 C 23.910156 14.53125 24.472656 14.550781 25.066406 14.625 C 25.660156 14.695312 26.28125 14.8125 26.910156 15.003906 C 27.535156 15.191406 28.171875 15.429688 28.785156 15.746094 C 29.394531 16.058594 29.992188 16.445312 30.539062 16.867188 C 31.09375 17.292969 31.605469 17.761719 32.089844 18.246094 C 32.570312 18.726562 33.007812 19.238281 33.410156 19.746094 C 33.8125 20.253906 34.167969 20.769531 34.484375 21.269531 C 34.804688 21.769531 35.082031 22.257812 35.320312 22.714844 C 35.796875 23.628906 36.113281 24.429688 36.308594 24.996094 C 36.410156 25.28125 36.472656 25.507812 36.519531 25.660156 C 36.558594 25.816406 36.582031 25.898438 36.582031 25.898438 C 36.582031 25.898438 36.546875 25.820312 36.484375 25.671875 C 36.421875 25.527344 36.324219 25.3125 36.199219 25.042969 C 35.941406 24.503906 35.550781 23.75 35.019531 22.886719 C 34.75 22.453125 34.449219 21.992188 34.113281 21.519531 C 33.777344 21.046875 33.402344 20.5625 33 20.078125 C 32.597656 19.59375 32.152344 19.117188 31.683594 18.652344 C 31.214844 18.1875 30.707031 17.746094 30.179688 17.335938 C 29.652344 16.921875 29.101562 16.558594 28.519531 16.25 C 27.941406 15.945312 27.347656 15.691406 26.753906 15.496094 C 26.160156 15.300781 25.570312 15.152344 25.003906 15.054688 C 24.4375 14.960938 23.894531 14.898438 23.390625 14.882812 C 22.378906 14.84375 21.535156 14.933594 20.957031 15.066406 C 20.671875 15.132812 20.449219 15.207031 20.300781 15.265625 C 20.226562 15.296875 20.171875 15.324219 20.136719 15.34375 C 20.097656 15.363281 20.078125 15.371094 20.078125 15.371094 " fill-opacity="1" fill-rule="nonzero"/><g clip-path="url(#67382dd765)"><path fill="#ffffff" d="M 11.875 26.984375 C 11.875 26.984375 11.84375 26.636719 11.828125 26.023438 C 11.820312 25.410156 11.835938 24.535156 11.9375 23.488281 C 11.992188 22.964844 12.070312 22.398438 12.171875 21.804688 C 12.277344 21.207031 12.421875 20.585938 12.59375 19.945312 C 12.765625 19.308594 12.980469 18.660156 13.242188 18.011719 C 13.5 17.363281 13.796875 16.71875 14.144531 16.101562 C 14.492188 15.480469 14.878906 14.886719 15.304688 14.328125 C 15.359375 14.257812 15.40625 14.191406 15.46875 14.117188 L 15.632812 13.917969 C 15.746094 13.789062 15.871094 13.648438 15.996094 13.527344 C 16.242188 13.277344 16.503906 13.054688 16.777344 12.851562 C 17.046875 12.644531 17.328125 12.460938 17.613281 12.308594 C 17.898438 12.148438 18.1875 12.011719 18.472656 11.894531 C 19.042969 11.65625 19.605469 11.507812 20.128906 11.398438 C 20.652344 11.296875 21.136719 11.246094 21.5625 11.214844 C 21.992188 11.191406 22.367188 11.183594 22.671875 11.191406 C 22.980469 11.199219 23.222656 11.214844 23.382812 11.226562 C 23.546875 11.238281 23.636719 11.246094 23.636719 11.246094 C 23.636719 11.246094 23.285156 11.277344 22.679688 11.34375 C 22.378906 11.378906 22.011719 11.421875 21.597656 11.496094 C 21.183594 11.566406 20.71875 11.660156 20.222656 11.800781 C 19.726562 11.9375 19.207031 12.125 18.675781 12.367188 C 18.148438 12.609375 17.621094 12.925781 17.125 13.308594 C 16.875 13.5 16.636719 13.710938 16.414062 13.941406 C 16.292969 14.054688 16.199219 14.175781 16.085938 14.296875 L 15.921875 14.492188 C 15.875 14.546875 15.820312 14.621094 15.769531 14.683594 C 15.359375 15.214844 14.976562 15.785156 14.640625 16.382812 C 14.296875 16.972656 13.988281 17.589844 13.726562 18.210938 C 13.460938 18.835938 13.234375 19.460938 13.035156 20.078125 C 12.839844 20.695312 12.683594 21.300781 12.546875 21.878906 C 12.410156 22.457031 12.308594 23.011719 12.222656 23.523438 C 12.136719 24.035156 12.074219 24.511719 12.027344 24.933594 C 11.980469 25.351562 11.949219 25.722656 11.925781 26.027344 C 11.878906 26.632812 11.875 26.984375 11.875 26.984375 " fill-opacity="1" fill-rule="nonzero"/></g><g clip-path="url(#85729d3067)"><path fill="#ffffff" d="M 11.875 29.722656 C 11.875 29.722656 11.867188 29.625 11.851562 29.441406 C 11.839844 29.257812 11.816406 28.992188 11.800781 28.648438 C 11.765625 27.960938 11.746094 26.976562 11.839844 25.796875 C 11.890625 25.207031 11.96875 24.570312 12.089844 23.902344 C 12.214844 23.230469 12.378906 22.53125 12.605469 21.820312 C 12.832031 21.109375 13.121094 20.394531 13.472656 19.691406 C 13.824219 18.988281 14.261719 18.308594 14.757812 17.679688 C 15.007812 17.363281 15.273438 17.0625 15.554688 16.773438 C 15.820312 16.496094 16.109375 16.21875 16.40625 15.957031 C 16.992188 15.4375 17.605469 14.957031 18.246094 14.566406 C 18.890625 14.175781 19.550781 13.859375 20.210938 13.644531 C 20.867188 13.429688 21.515625 13.300781 22.117188 13.269531 C 22.71875 13.230469 23.269531 13.269531 23.746094 13.34375 C 24.226562 13.417969 24.636719 13.523438 24.964844 13.625 C 25.296875 13.722656 25.546875 13.820312 25.71875 13.882812 C 25.890625 13.953125 25.980469 13.988281 25.980469 13.988281 C 25.980469 13.988281 25.886719 13.964844 25.710938 13.917969 C 25.53125 13.878906 25.269531 13.816406 24.933594 13.753906 C 24.597656 13.691406 24.1875 13.625 23.71875 13.59375 C 23.25 13.566406 22.71875 13.5625 22.152344 13.640625 C 21.867188 13.675781 21.574219 13.738281 21.277344 13.804688 C 20.980469 13.882812 20.675781 13.976562 20.371094 14.09375 C 19.761719 14.332031 19.140625 14.640625 18.542969 15.035156 C 17.945312 15.429688 17.355469 15.882812 16.796875 16.390625 C 16.515625 16.644531 16.25 16.910156 15.972656 17.1875 C 15.707031 17.457031 15.453125 17.742188 15.210938 18.039062 C 14.734375 18.632812 14.320312 19.28125 13.960938 19.945312 C 13.605469 20.609375 13.3125 21.296875 13.070312 21.980469 C 12.828125 22.660156 12.636719 23.335938 12.492188 23.984375 C 12.339844 24.632812 12.230469 25.253906 12.148438 25.832031 C 11.984375 26.988281 11.929688 27.964844 11.902344 28.644531 C 11.890625 28.988281 11.882812 29.257812 11.882812 29.441406 C 11.878906 29.625 11.875 29.722656 11.875 29.722656 " fill-opacity="1" fill-rule="nonzero"/></g><path fill="#ffffff" d="M 17.460938 14.335938 C 17.460938 14.335938 17.527344 14.269531 17.660156 14.148438 C 17.796875 14.03125 18 13.863281 18.28125 13.679688 C 18.835938 13.308594 19.707031 12.855469 20.832031 12.570312 C 21.113281 12.496094 21.410156 12.4375 21.71875 12.382812 C 22.03125 12.335938 22.351562 12.296875 22.6875 12.277344 C 23.351562 12.234375 24.058594 12.257812 24.785156 12.355469 C 25.507812 12.457031 26.246094 12.628906 26.96875 12.882812 C 27.332031 13.003906 27.6875 13.152344 28.042969 13.308594 C 28.222656 13.390625 28.386719 13.46875 28.574219 13.558594 C 28.742188 13.652344 28.90625 13.730469 29.082031 13.835938 C 29.765625 14.238281 30.382812 14.707031 30.957031 15.210938 C 31.53125 15.714844 32.046875 16.261719 32.519531 16.808594 C 32.992188 17.355469 33.410156 17.914062 33.789062 18.453125 C 34.167969 18.996094 34.496094 19.523438 34.785156 20.023438 C 35.359375 21.015625 35.757812 21.890625 36.003906 22.511719 C 36.128906 22.824219 36.207031 23.074219 36.261719 23.242188 C 36.3125 23.414062 36.339844 23.507812 36.339844 23.507812 C 36.339844 23.507812 36.300781 23.417969 36.230469 23.253906 C 36.160156 23.089844 36.046875 22.855469 35.894531 22.558594 C 35.59375 21.96875 35.121094 21.144531 34.496094 20.203125 C 34.179688 19.730469 33.824219 19.230469 33.429688 18.714844 C 33.035156 18.199219 32.597656 17.675781 32.125 17.15625 C 31.65625 16.632812 31.132812 16.125 30.578125 15.644531 C 30.027344 15.164062 29.421875 14.714844 28.789062 14.351562 C 28.640625 14.257812 28.460938 14.167969 28.296875 14.078125 C 28.140625 14.003906 27.96875 13.914062 27.800781 13.835938 C 27.464844 13.6875 27.125 13.542969 26.777344 13.421875 C 26.089844 13.179688 25.394531 12.980469 24.707031 12.871094 C 24.019531 12.761719 23.34375 12.703125 22.703125 12.71875 C 22.0625 12.730469 21.457031 12.796875 20.90625 12.902344 C 20.355469 13.007812 19.859375 13.148438 19.429688 13.304688 C 18.996094 13.460938 18.632812 13.625 18.339844 13.78125 C 18.050781 13.9375 17.828125 14.074219 17.679688 14.175781 C 17.535156 14.277344 17.460938 14.335938 17.460938 14.335938 " fill-opacity="1" fill-rule="nonzero"/><path fill="#ffffff" d="M 36.582031 29.351562 C 36.582031 29.351562 36.527344 29.203125 36.414062 28.9375 C 36.304688 28.667969 36.128906 28.277344 35.902344 27.785156 C 35.449219 26.796875 34.738281 25.417969 33.726562 23.863281 C 33.21875 23.085938 32.632812 22.273438 31.949219 21.464844 C 31.269531 20.660156 30.480469 19.867188 29.582031 19.160156 C 28.683594 18.457031 27.664062 17.851562 26.546875 17.445312 C 25.425781 17.050781 24.226562 16.882812 23.011719 16.96875 C 22.695312 16.972656 22.410156 17.027344 22.113281 17.0625 C 21.820312 17.089844 21.527344 17.175781 21.234375 17.238281 L 21.015625 17.289062 L 20.804688 17.363281 L 20.378906 17.503906 C 20.234375 17.542969 20.101562 17.613281 19.964844 17.671875 C 19.832031 17.730469 19.695312 17.792969 19.558594 17.851562 C 18.5 18.378906 17.566406 19.113281 16.792969 19.949219 C 16.019531 20.785156 15.386719 21.703125 14.875 22.621094 C 14.363281 23.542969 13.957031 24.460938 13.628906 25.324219 C 12.980469 27.0625 12.613281 28.574219 12.402344 29.636719 C 12.300781 30.167969 12.226562 30.589844 12.183594 30.878906 C 12.140625 31.164062 12.121094 31.320312 12.121094 31.320312 C 12.121094 31.320312 12.128906 31.164062 12.152344 30.875 C 12.175781 30.582031 12.210938 30.15625 12.289062 29.617188 C 12.367188 29.078125 12.476562 28.425781 12.636719 27.679688 C 12.796875 26.9375 13.011719 26.101562 13.308594 25.210938 C 13.605469 24.320312 13.980469 23.371094 14.484375 22.410156 C 14.984375 21.453125 15.609375 20.480469 16.410156 19.597656 C 17.207031 18.714844 18.171875 17.902344 19.304688 17.339844 C 19.449219 17.273438 19.59375 17.210938 19.738281 17.144531 C 19.882812 17.082031 20.023438 17.007812 20.175781 16.960938 L 20.628906 16.808594 L 20.855469 16.730469 L 21.089844 16.675781 C 21.402344 16.605469 21.707031 16.511719 22.03125 16.480469 C 22.351562 16.4375 22.679688 16.378906 22.984375 16.378906 L 23.449219 16.359375 L 23.566406 16.355469 L 23.636719 16.351562 L 23.699219 16.355469 L 23.9375 16.367188 L 24.417969 16.390625 C 24.578125 16.402344 24.738281 16.429688 24.894531 16.449219 C 25.53125 16.527344 26.144531 16.707031 26.742188 16.910156 C 27.929688 17.339844 28.984375 18.011719 29.910156 18.753906 C 30.835938 19.5 31.617188 20.34375 32.289062 21.183594 C 32.96875 22.027344 33.53125 22.878906 34.015625 23.683594 C 34.5 24.484375 34.890625 25.25 35.21875 25.9375 C 35.546875 26.621094 35.804688 27.230469 36.007812 27.738281 C 36.210938 28.242188 36.351562 28.648438 36.445312 28.925781 C 36.539062 29.199219 36.582031 29.351562 36.582031 29.351562 " fill-opacity="1" fill-rule="nonzero"/><path fill="#ffffff" d="M 36.339844 30.460938 C 36.339844 30.460938 36.300781 30.453125 36.230469 30.445312 C 36.191406 30.441406 36.148438 30.433594 36.09375 30.429688 C 36.042969 30.417969 35.980469 30.40625 35.910156 30.390625 C 35.769531 30.363281 35.601562 30.316406 35.40625 30.25 C 35.214844 30.175781 34.996094 30.078125 34.765625 29.945312 C 34.300781 29.675781 33.792969 29.261719 33.296875 28.707031 C 32.796875 28.15625 32.320312 27.464844 31.847656 26.6875 C 31.371094 25.914062 30.910156 25.046875 30.410156 24.140625 C 29.910156 23.242188 29.382812 22.289062 28.742188 21.386719 C 28.421875 20.9375 28.066406 20.503906 27.671875 20.109375 C 27.273438 19.714844 26.835938 19.359375 26.339844 19.105469 C 26.09375 18.976562 25.832031 18.871094 25.566406 18.796875 C 25.433594 18.753906 25.296875 18.726562 25.160156 18.699219 L 24.953125 18.667969 L 24.734375 18.640625 C 24.160156 18.578125 23.570312 18.558594 22.992188 18.605469 C 22.414062 18.652344 21.84375 18.765625 21.296875 18.945312 C 20.753906 19.128906 20.234375 19.382812 19.757812 19.695312 C 18.800781 20.3125 18.015625 21.160156 17.382812 22.0625 C 16.75 22.96875 16.246094 23.925781 15.828125 24.863281 C 15.410156 25.800781 15.058594 26.707031 14.757812 27.554688 C 14.453125 28.40625 14.175781 29.1875 13.925781 29.875 C 13.667969 30.566406 13.429688 31.164062 13.191406 31.636719 C 12.953125 32.109375 12.699219 32.453125 12.488281 32.644531 C 12.382812 32.738281 12.289062 32.796875 12.222656 32.828125 C 12.191406 32.847656 12.164062 32.859375 12.148438 32.863281 C 12.128906 32.871094 12.121094 32.875 12.121094 32.875 C 12.121094 32.875 12.128906 32.871094 12.148438 32.863281 C 12.164062 32.855469 12.1875 32.84375 12.21875 32.824219 C 12.28125 32.785156 12.371094 32.722656 12.464844 32.621094 C 12.664062 32.421875 12.878906 32.066406 13.089844 31.589844 C 13.300781 31.109375 13.507812 30.507812 13.726562 29.808594 C 13.945312 29.109375 14.171875 28.3125 14.449219 27.453125 C 14.726562 26.589844 15.035156 25.65625 15.4375 24.695312 C 15.839844 23.730469 16.320312 22.730469 16.964844 21.773438 C 17.609375 20.824219 18.421875 19.910156 19.449219 19.222656 C 19.960938 18.878906 20.523438 18.601562 21.113281 18.398438 C 21.703125 18.199219 22.324219 18.074219 22.945312 18.019531 C 23.566406 17.96875 24.1875 17.980469 24.804688 18.054688 L 25.03125 18.082031 L 25.265625 18.121094 C 25.421875 18.152344 25.578125 18.1875 25.730469 18.234375 C 26.035156 18.324219 26.328125 18.445312 26.609375 18.59375 C 27.167969 18.886719 27.648438 19.28125 28.074219 19.707031 C 28.496094 20.136719 28.859375 20.605469 29.183594 21.078125 C 29.832031 22.027344 30.347656 23.003906 30.816406 23.925781 C 31.289062 24.847656 31.722656 25.722656 32.15625 26.507812 C 32.589844 27.292969 33.027344 27.988281 33.476562 28.554688 C 33.925781 29.125 34.394531 29.554688 34.828125 29.839844 C 35.046875 29.984375 35.253906 30.089844 35.4375 30.179688 C 35.621094 30.257812 35.785156 30.320312 35.917969 30.359375 C 35.984375 30.378906 36.046875 30.394531 36.097656 30.410156 C 36.148438 30.417969 36.195312 30.429688 36.230469 30.4375 C 36.300781 30.453125 36.339844 30.460938 36.339844 30.460938 " fill-opacity="1" fill-rule="nonzero"/><path fill="#ffffff" d="M 15.847656 39.867188 C 15.847656 39.867188 15.832031 39.824219 15.808594 39.742188 C 15.785156 39.660156 15.761719 39.535156 15.757812 39.371094 C 15.746094 39.039062 15.859375 38.550781 16.15625 38.003906 C 16.449219 37.460938 16.894531 36.851562 17.457031 36.203125 C 18.015625 35.554688 18.679688 34.851562 19.429688 34.113281 C 20.183594 33.382812 20.996094 32.585938 21.859375 31.746094 C 22.714844 30.90625 23.605469 30.011719 24.457031 29.027344 C 24.882812 28.535156 25.296875 28.023438 25.671875 27.476562 C 26.046875 26.933594 26.390625 26.355469 26.628906 25.742188 C 26.867188 25.132812 27.003906 24.480469 26.914062 23.855469 C 26.828125 23.226562 26.503906 22.648438 26.046875 22.179688 C 25.820312 21.945312 25.5625 21.730469 25.289062 21.539062 L 25.136719 21.433594 L 25.082031 21.398438 C 25.007812 21.351562 24.9375 21.304688 24.867188 21.261719 C 24.726562 21.175781 24.578125 21.09375 24.429688 21.015625 C 23.84375 20.707031 23.210938 20.496094 22.574219 20.480469 C 22.257812 20.472656 21.945312 20.511719 21.644531 20.59375 C 21.347656 20.679688 21.058594 20.8125 20.792969 20.980469 C 20.257812 21.3125 19.796875 21.765625 19.398438 22.261719 C 19 22.757812 18.660156 23.292969 18.355469 23.832031 C 18.054688 24.378906 17.785156 24.925781 17.539062 25.46875 C 17.046875 26.554688 16.652344 27.621094 16.289062 28.601562 C 15.929688 29.585938 15.613281 30.496094 15.316406 31.296875 C 15.015625 32.097656 14.746094 32.792969 14.480469 33.351562 C 14.226562 33.910156 13.964844 34.328125 13.742188 34.570312 C 13.628906 34.691406 13.527344 34.769531 13.453125 34.8125 C 13.378906 34.855469 13.335938 34.867188 13.335938 34.867188 C 13.335938 34.867188 13.378906 34.851562 13.449219 34.804688 C 13.515625 34.757812 13.613281 34.675781 13.714844 34.546875 C 13.917969 34.292969 14.140625 33.867188 14.371094 33.300781 C 14.597656 32.734375 14.835938 32.03125 15.089844 31.21875 C 15.339844 30.40625 15.621094 29.484375 15.945312 28.484375 C 16.269531 27.484375 16.644531 26.402344 17.113281 25.28125 C 17.347656 24.722656 17.605469 24.152344 17.910156 23.589844 C 18.214844 23.023438 18.558594 22.460938 18.972656 21.925781 C 19.390625 21.394531 19.878906 20.878906 20.488281 20.496094 C 20.796875 20.304688 21.128906 20.148438 21.484375 20.042969 C 21.84375 19.9375 22.21875 19.890625 22.589844 19.898438 C 23.339844 19.917969 24.058594 20.15625 24.703125 20.488281 C 24.867188 20.574219 25.023438 20.660156 25.179688 20.761719 C 25.257812 20.808594 25.332031 20.855469 25.40625 20.902344 L 25.519531 20.980469 L 25.628906 21.058594 C 25.925781 21.269531 26.210938 21.507812 26.46875 21.777344 C 26.726562 22.046875 26.957031 22.347656 27.132812 22.6875 C 27.308594 23.023438 27.429688 23.398438 27.480469 23.773438 C 27.585938 24.535156 27.421875 25.289062 27.148438 25.953125 C 26.875 26.617188 26.503906 27.222656 26.109375 27.78125 C 25.707031 28.34375 25.277344 28.863281 24.835938 29.359375 C 23.949219 30.34375 23.027344 31.226562 22.148438 32.050781 C 21.269531 32.875 20.417969 33.628906 19.652344 34.34375 C 18.882812 35.058594 18.183594 35.71875 17.605469 36.339844 C 17.027344 36.957031 16.558594 37.535156 16.25 38.058594 C 16.097656 38.320312 15.980469 38.566406 15.902344 38.785156 C 15.828125 39.007812 15.792969 39.207031 15.785156 39.371094 C 15.78125 39.535156 15.796875 39.660156 15.816406 39.742188 C 15.832031 39.824219 15.847656 39.867188 15.847656 39.867188 " fill-opacity="1" fill-rule="nonzero"/><path fill="#ffffff" d="M 15.042969 38.714844 C 15.042969 38.714844 15.03125 38.679688 15.011719 38.609375 C 14.996094 38.542969 14.976562 38.433594 14.980469 38.296875 C 14.984375 38.015625 15.09375 37.609375 15.347656 37.152344 C 15.59375 36.695312 15.960938 36.175781 16.414062 35.617188 C 16.871094 35.054688 17.410156 34.445312 18.023438 33.808594 C 18.632812 33.167969 19.304688 32.480469 20.015625 31.765625 C 20.730469 31.046875 21.476562 30.285156 22.222656 29.480469 C 22.960938 28.671875 23.714844 27.820312 24.328125 26.871094 C 24.632812 26.402344 24.90625 25.902344 25.046875 25.386719 C 25.113281 25.128906 25.140625 24.867188 25.105469 24.628906 C 25.070312 24.386719 24.96875 24.167969 24.808594 23.984375 C 24.730469 23.890625 24.632812 23.804688 24.535156 23.726562 C 24.410156 23.632812 24.308594 23.566406 24.191406 23.488281 C 23.960938 23.34375 23.714844 23.222656 23.464844 23.144531 C 22.964844 22.980469 22.433594 23 21.949219 23.199219 C 21.464844 23.394531 21.035156 23.742188 20.65625 24.128906 C 20.277344 24.515625 19.941406 24.953125 19.640625 25.398438 C 19.039062 26.300781 18.550781 27.242188 18.113281 28.144531 C 17.679688 29.054688 17.300781 29.929688 16.953125 30.742188 C 16.609375 31.554688 16.296875 32.300781 16.007812 32.960938 C 15.722656 33.617188 15.460938 34.191406 15.222656 34.652344 C 14.988281 35.113281 14.765625 35.457031 14.582031 35.667969 C 14.488281 35.769531 14.40625 35.839844 14.34375 35.878906 C 14.28125 35.914062 14.246094 35.925781 14.246094 35.925781 C 14.246094 35.925781 14.28125 35.910156 14.339844 35.871094 C 14.394531 35.828125 14.472656 35.753906 14.554688 35.644531 C 14.722656 35.425781 14.90625 35.066406 15.117188 34.597656 C 15.324219 34.128906 15.546875 33.546875 15.792969 32.875 C 16.039062 32.199219 16.3125 31.4375 16.625 30.609375 C 16.933594 29.78125 17.285156 28.886719 17.699219 27.953125 C 18.109375 27.023438 18.582031 26.054688 19.195312 25.105469 C 19.5 24.632812 19.84375 24.167969 20.25 23.734375 C 20.660156 23.308594 21.140625 22.910156 21.734375 22.664062 C 22.027344 22.542969 22.347656 22.464844 22.675781 22.453125 C 23.003906 22.4375 23.335938 22.484375 23.644531 22.582031 C 23.953125 22.679688 24.238281 22.820312 24.507812 22.988281 C 24.636719 23.070312 24.777344 23.171875 24.886719 23.257812 C 25.019531 23.359375 25.144531 23.472656 25.253906 23.601562 C 25.480469 23.863281 25.632812 24.203125 25.679688 24.542969 C 25.730469 24.886719 25.683594 25.222656 25.601562 25.53125 C 25.433594 26.152344 25.128906 26.683594 24.804688 27.183594 C 24.136719 28.171875 23.355469 29.023438 22.59375 29.828125 C 21.824219 30.632812 21.046875 31.367188 20.316406 32.070312 C 19.585938 32.769531 18.882812 33.421875 18.253906 34.035156 C 17.625 34.652344 17.050781 35.222656 16.574219 35.753906 C 16.09375 36.28125 15.707031 36.769531 15.441406 37.207031 C 15.175781 37.640625 15.03125 38.023438 15.011719 38.296875 C 14.996094 38.433594 15.007812 38.539062 15.019531 38.609375 C 15.03125 38.679688 15.042969 38.714844 15.042969 38.714844 " fill-opacity="1" fill-rule="nonzero"/><path fill="#ffffff" d="M 22.757812 26.265625 C 22.757812 26.265625 22.804688 26.179688 22.871094 26.007812 C 22.902344 25.917969 22.9375 25.8125 22.957031 25.679688 C 22.976562 25.550781 22.988281 25.390625 22.925781 25.238281 C 22.890625 25.164062 22.835938 25.09375 22.757812 25.054688 C 22.675781 25.015625 22.578125 25.011719 22.484375 25.035156 C 22.289062 25.078125 22.117188 25.226562 21.96875 25.402344 C 21.820312 25.582031 21.695312 25.804688 21.644531 26.050781 C 21.589844 26.296875 21.632812 26.5625 21.796875 26.777344 C 21.871094 26.882812 21.980469 26.980469 22.089844 27.054688 C 22.207031 27.125 22.324219 27.136719 22.453125 27.117188 C 22.710938 27.074219 22.964844 26.890625 23.175781 26.675781 C 23.386719 26.453125 23.558594 26.179688 23.664062 25.886719 C 23.773438 25.597656 23.785156 25.285156 23.675781 25.035156 C 23.621094 24.910156 23.535156 24.796875 23.421875 24.699219 C 23.394531 24.675781 23.363281 24.652344 23.332031 24.632812 L 23.226562 24.5625 C 23.164062 24.527344 23.089844 24.488281 23.019531 24.460938 C 22.730469 24.339844 22.433594 24.347656 22.144531 24.492188 C 21.851562 24.632812 21.585938 24.882812 21.34375 25.164062 C 21.101562 25.445312 20.886719 25.761719 20.683594 26.085938 C 20.277344 26.742188 19.921875 27.4375 19.582031 28.128906 C 19.246094 28.824219 18.925781 29.515625 18.609375 30.183594 C 18.292969 30.851562 17.988281 31.5 17.679688 32.105469 C 17.371094 32.710938 17.070312 33.277344 16.765625 33.792969 C 16.464844 34.304688 16.167969 34.761719 15.878906 35.152344 C 15.59375 35.542969 15.316406 35.863281 15.078125 36.113281 C 14.832031 36.359375 14.625 36.535156 14.476562 36.648438 C 14.332031 36.761719 14.246094 36.816406 14.246094 36.816406 C 14.246094 36.816406 14.324219 36.753906 14.460938 36.628906 C 14.597656 36.503906 14.785156 36.3125 15.003906 36.046875 C 15.445312 35.523438 15.980469 34.699219 16.515625 33.652344 C 16.785156 33.132812 17.058594 32.554688 17.335938 31.941406 C 17.609375 31.324219 17.898438 30.671875 18.1875 29.992188 C 18.476562 29.3125 18.78125 28.613281 19.109375 27.90625 C 19.4375 27.195312 19.78125 26.480469 20.199219 25.789062 C 20.410156 25.445312 20.636719 25.105469 20.902344 24.789062 C 21.171875 24.476562 21.476562 24.171875 21.886719 23.964844 C 22.089844 23.867188 22.320312 23.796875 22.558594 23.789062 C 22.796875 23.777344 23.035156 23.824219 23.242188 23.914062 C 23.347656 23.957031 23.441406 24.003906 23.542969 24.066406 L 23.601562 24.101562 L 23.636719 24.128906 L 23.671875 24.152344 C 23.71875 24.183594 23.761719 24.21875 23.804688 24.257812 C 23.976562 24.402344 24.121094 24.597656 24.207031 24.8125 C 24.296875 25.027344 24.328125 25.261719 24.308594 25.476562 C 24.289062 25.691406 24.234375 25.894531 24.15625 26.078125 C 24 26.449219 23.757812 26.753906 23.476562 26.996094 C 23.199219 27.234375 22.863281 27.425781 22.476562 27.4375 C 22.289062 27.445312 22.082031 27.378906 21.953125 27.261719 C 21.816406 27.152344 21.703125 27.039062 21.613281 26.902344 C 21.429688 26.628906 21.398438 26.285156 21.480469 26.011719 C 21.558594 25.730469 21.714844 25.507812 21.882812 25.328125 C 22.054688 25.148438 22.253906 25.011719 22.46875 24.964844 C 22.578125 24.945312 22.691406 24.953125 22.78125 25.003906 C 22.875 25.054688 22.933594 25.136719 22.964844 25.21875 C 23.027344 25.390625 23.007812 25.554688 22.984375 25.683594 C 22.957031 25.816406 22.917969 25.925781 22.882812 26.011719 C 22.808594 26.179688 22.757812 26.265625 22.757812 26.265625 " fill-opacity="1" fill-rule="nonzero"/><path fill="#ffffff" d="M 17.132812 41.34375 C 16.996094 40.933594 16.90625 40.503906 16.894531 40.066406 C 16.882812 39.632812 16.941406 39.1875 17.078125 38.769531 C 17.21875 38.347656 17.417969 37.945312 17.660156 37.582031 C 17.90625 37.214844 18.1875 36.875 18.488281 36.554688 C 18.785156 36.234375 19.105469 35.9375 19.429688 35.648438 C 19.753906 35.359375 20.085938 35.082031 20.421875 34.808594 L 21.429688 34.003906 L 21.929688 33.601562 L 22.429688 33.195312 C 22.761719 32.921875 23.09375 32.652344 23.421875 32.375 L 23.910156 31.964844 L 24.394531 31.542969 C 24.71875 31.265625 25.03125 30.976562 25.347656 30.6875 C 25.507812 30.546875 25.660156 30.398438 25.8125 30.25 C 25.964844 30.105469 26.121094 29.960938 26.269531 29.808594 C 26.417969 29.65625 26.570312 29.507812 26.714844 29.351562 C 26.855469 29.195312 27.003906 29.042969 27.140625 28.882812 C 27.417969 28.5625 27.6875 28.238281 27.933594 27.898438 C 28.183594 27.5625 28.410156 27.210938 28.636719 26.84375 C 28.867188 26.484375 29.09375 26.109375 29.355469 25.75 L 29.636719 25.359375 L 29.800781 25.816406 L 29.996094 26.359375 C 30.066406 26.539062 30.136719 26.71875 30.210938 26.894531 C 30.292969 27.070312 30.363281 27.246094 30.453125 27.417969 C 30.539062 27.589844 30.621094 27.765625 30.71875 27.929688 L 30.863281 28.179688 L 31.015625 28.425781 C 31.113281 28.589844 31.226562 28.746094 31.332031 28.90625 C 31.449219 29.054688 31.558594 29.214844 31.683594 29.359375 C 31.746094 29.433594 31.808594 29.507812 31.871094 29.582031 L 32.066406 29.792969 C 32.128906 29.867188 32.199219 29.929688 32.265625 30 C 32.335938 30.070312 32.40625 30.136719 32.476562 30.199219 C 32.617188 30.328125 32.765625 30.453125 32.914062 30.574219 L 33.144531 30.75 L 33.382812 30.914062 C 33.542969 31.023438 33.707031 31.125 33.875 31.21875 L 34.132812 31.355469 C 34.222656 31.398438 34.308594 31.441406 34.394531 31.480469 C 34.574219 31.558594 34.753906 31.636719 34.9375 31.699219 C 35.304688 31.824219 35.683594 31.929688 36.074219 31.96875 C 35.679688 31.964844 35.289062 31.898438 34.90625 31.796875 C 34.714844 31.746094 34.527344 31.683594 34.339844 31.617188 C 34.152344 31.546875 33.96875 31.472656 33.789062 31.386719 C 33.609375 31.300781 33.433594 31.207031 33.261719 31.109375 L 33.007812 30.953125 L 32.757812 30.785156 C 32.597656 30.667969 32.433594 30.550781 32.28125 30.421875 C 32.203125 30.359375 32.125 30.296875 32.054688 30.226562 C 31.980469 30.160156 31.902344 30.097656 31.832031 30.023438 L 31.621094 29.8125 C 31.550781 29.742188 31.484375 29.667969 31.417969 29.59375 C 31.277344 29.449219 31.15625 29.289062 31.027344 29.136719 C 30.910156 28.976562 30.78125 28.820312 30.671875 28.652344 L 30.503906 28.402344 L 30.347656 28.144531 C 30.238281 27.976562 30.148438 27.800781 30.050781 27.625 C 29.953125 27.449219 29.871094 27.265625 29.78125 27.089844 C 29.695312 26.90625 29.617188 26.722656 29.539062 26.539062 L 29.320312 25.980469 L 29.769531 26.046875 C 29.53125 26.390625 29.316406 26.753906 29.09375 27.125 C 28.875 27.496094 28.644531 27.871094 28.390625 28.226562 C 28.136719 28.589844 27.859375 28.925781 27.574219 29.261719 C 27.433594 29.425781 27.285156 29.585938 27.136719 29.746094 C 26.992188 29.910156 26.835938 30.0625 26.683594 30.21875 C 26.535156 30.378906 26.375 30.523438 26.222656 30.675781 C 26.066406 30.824219 25.910156 30.980469 25.75 31.125 C 25.429688 31.414062 25.109375 31.707031 24.777344 31.984375 L 24.285156 32.40625 L 23.785156 32.820312 C 23.453125 33.097656 23.117188 33.367188 22.777344 33.628906 L 22.269531 34.027344 L 21.753906 34.421875 L 20.726562 35.199219 C 20.386719 35.457031 20.046875 35.714844 19.71875 35.984375 C 19.386719 36.253906 19.070312 36.535156 18.765625 36.824219 C 18.460938 37.117188 18.171875 37.425781 17.917969 37.761719 C 17.671875 38.097656 17.453125 38.457031 17.296875 38.84375 C 17.136719 39.230469 17.046875 39.648438 17.023438 40.070312 C 17 40.492188 17.039062 40.921875 17.132812 41.34375 " fill-opacity="1" fill-rule="nonzero"/><path fill="#ffffff" d="M 35.3125 34.050781 C 35.3125 34.050781 35.175781 34.074219 34.933594 34.113281 C 34.8125 34.136719 34.660156 34.136719 34.484375 34.136719 C 34.394531 34.132812 34.296875 34.144531 34.199219 34.128906 C 34.101562 34.117188 34 34.101562 33.890625 34.085938 C 33.78125 34.078125 33.675781 34.046875 33.558594 34.015625 C 33.445312 33.984375 33.324219 33.960938 33.207031 33.914062 C 33.09375 33.867188 32.972656 33.816406 32.851562 33.765625 C 32.726562 33.714844 32.617188 33.640625 32.492188 33.578125 C 32.433594 33.542969 32.371094 33.511719 32.3125 33.472656 C 32.257812 33.433594 32.199219 33.390625 32.140625 33.351562 C 32.03125 33.265625 31.90625 33.191406 31.800781 33.089844 C 31.695312 32.992188 31.585938 32.894531 31.480469 32.800781 C 31.382812 32.691406 31.28125 32.585938 31.183594 32.476562 C 31.082031 32.371094 31.003906 32.253906 30.914062 32.136719 C 30.828125 32.023438 30.738281 31.910156 30.664062 31.789062 C 30.589844 31.667969 30.515625 31.546875 30.445312 31.429688 C 30.375 31.308594 30.316406 31.183594 30.253906 31.066406 C 30.125 30.828125 30.039062 30.582031 29.945312 30.359375 C 29.855469 30.128906 29.796875 29.90625 29.730469 29.703125 C 29.671875 29.5 29.632812 29.308594 29.597656 29.140625 C 29.554688 28.976562 29.539062 28.824219 29.519531 28.703125 C 29.488281 28.457031 29.476562 28.316406 29.476562 28.316406 C 29.476562 28.316406 29.539062 28.445312 29.632812 28.667969 C 29.683594 28.78125 29.738281 28.917969 29.8125 29.070312 C 29.882812 29.222656 29.960938 29.394531 30.050781 29.585938 C 30.144531 29.765625 30.242188 29.96875 30.351562 30.175781 C 30.46875 30.378906 30.574219 30.601562 30.714844 30.8125 C 30.78125 30.917969 30.847656 31.03125 30.917969 31.140625 C 30.992188 31.246094 31.066406 31.351562 31.140625 31.464844 C 31.210938 31.574219 31.300781 31.675781 31.378906 31.78125 C 31.464844 31.882812 31.539062 31.996094 31.632812 32.089844 C 31.722656 32.1875 31.808594 32.289062 31.898438 32.386719 C 31.996094 32.476562 32.085938 32.566406 32.179688 32.65625 C 32.226562 32.703125 32.273438 32.746094 32.328125 32.785156 C 32.375 32.828125 32.425781 32.867188 32.472656 32.90625 C 32.523438 32.949219 32.574219 32.988281 32.621094 33.027344 C 32.671875 33.066406 32.722656 33.097656 32.773438 33.132812 C 32.878906 33.199219 32.972656 33.277344 33.078125 33.335938 C 33.183594 33.394531 33.285156 33.449219 33.382812 33.503906 C 33.484375 33.5625 33.589844 33.597656 33.683594 33.644531 C 33.785156 33.6875 33.878906 33.734375 33.976562 33.757812 C 34.167969 33.816406 34.34375 33.886719 34.503906 33.914062 C 34.664062 33.945312 34.808594 33.988281 34.929688 33.996094 C 35.175781 34.023438 35.3125 34.050781 35.3125 34.050781 " fill-opacity="1" fill-rule="nonzero"/><path fill="#ffffff" d="M 23.257812 27.65625 C 23.257812 27.65625 23.183594 27.761719 23.039062 27.929688 C 22.894531 28.101562 22.683594 28.339844 22.410156 28.601562 C 22.136719 28.871094 21.804688 29.167969 21.410156 29.449219 C 21.207031 29.589844 21 29.730469 20.730469 29.84375 C 20.664062 29.867188 20.589844 29.894531 20.503906 29.914062 C 20.417969 29.925781 20.304688 29.941406 20.15625 29.890625 C 20.136719 29.878906 20.117188 29.871094 20.097656 29.859375 L 20.070312 29.84375 L 20.058594 29.835938 C 20.042969 29.824219 20.082031 29.859375 20.023438 29.808594 L 20.023438 29.804688 L 19.988281 29.773438 L 19.972656 29.757812 C 19.960938 29.746094 19.949219 29.730469 19.9375 29.714844 C 19.917969 29.6875 19.898438 29.65625 19.878906 29.625 C 19.851562 29.566406 19.835938 29.527344 19.820312 29.476562 C 19.808594 29.433594 19.800781 29.386719 19.792969 29.34375 C 19.761719 29.011719 19.828125 28.75 19.894531 28.492188 C 19.964844 28.242188 20.058594 28.007812 20.152344 27.785156 C 20.34375 27.339844 20.554688 26.949219 20.753906 26.621094 C 20.949219 26.296875 21.128906 26.035156 21.261719 25.855469 C 21.394531 25.675781 21.480469 25.578125 21.480469 25.578125 C 21.480469 25.578125 21.441406 25.703125 21.367188 25.910156 C 21.292969 26.121094 21.191406 26.417969 21.058594 26.769531 C 20.9375 27.121094 20.785156 27.53125 20.644531 27.96875 C 20.574219 28.1875 20.507812 28.414062 20.453125 28.640625 C 20.402344 28.859375 20.359375 29.097656 20.378906 29.265625 C 20.382812 29.285156 20.386719 29.300781 20.390625 29.320312 L 20.398438 29.347656 L 20.390625 29.335938 L 20.382812 29.335938 L 20.433594 29.382812 L 20.433594 29.386719 C 20.378906 29.335938 20.417969 29.371094 20.40625 29.359375 L 20.402344 29.355469 L 20.378906 29.34375 C 20.351562 29.332031 20.363281 29.347656 20.402344 29.339844 C 20.4375 29.335938 20.480469 29.320312 20.527344 29.304688 C 20.722656 29.234375 20.929688 29.121094 21.125 29.007812 C 21.320312 28.894531 21.511719 28.777344 21.691406 28.664062 C 21.871094 28.546875 22.042969 28.4375 22.199219 28.339844 C 22.515625 28.132812 22.777344 27.960938 22.964844 27.84375 C 23.152344 27.722656 23.257812 27.65625 23.257812 27.65625 " fill-opacity="1" fill-rule="nonzero"/><path fill="#ffffff" d="M 19.53125 29.421875 C 19.488281 29.652344 19.433594 29.878906 19.367188 30.105469 C 19.339844 30.214844 19.308594 30.328125 19.277344 30.4375 L 19.183594 30.765625 C 19.160156 30.871094 19.132812 30.980469 19.105469 31.089844 L 19.039062 31.410156 L 19 31.722656 C 18.996094 31.828125 18.992188 31.929688 18.988281 32.03125 L 18.714844 31.742188 C 18.632812 31.746094 18.65625 31.753906 18.664062 31.742188 C 18.679688 31.730469 18.703125 31.714844 18.726562 31.695312 C 18.773438 31.65625 18.828125 31.609375 18.878906 31.554688 C 18.984375 31.453125 19.089844 31.339844 19.195312 31.226562 C 19.414062 30.996094 19.621094 30.761719 19.878906 30.535156 C 19.910156 30.503906 19.945312 30.476562 19.984375 30.445312 L 20.085938 30.375 L 20.28125 30.238281 C 20.347656 30.191406 20.410156 30.148438 20.472656 30.101562 L 20.65625 29.960938 L 21.042969 29.679688 C 21.179688 29.589844 21.316406 29.5 21.457031 29.421875 C 21.367188 29.558594 21.269531 29.683594 21.175781 29.816406 C 21.078125 29.941406 20.988281 30.070312 20.878906 30.199219 L 20.71875 30.390625 C 20.667969 30.453125 20.609375 30.511719 20.554688 30.566406 L 20.300781 30.820312 L 20.230469 30.894531 C 20.136719 31.003906 20.039062 31.125 19.9375 31.246094 C 19.839844 31.371094 19.734375 31.492188 19.628906 31.617188 C 19.523438 31.738281 19.414062 31.859375 19.292969 31.980469 C 19.230469 32.039062 19.167969 32.097656 19.089844 32.15625 C 19.050781 32.1875 19.011719 32.21875 18.957031 32.246094 C 18.898438 32.273438 18.847656 32.320312 18.683594 32.320312 L 18.386719 32.320312 L 18.410156 32.03125 C 18.421875 31.90625 18.429688 31.777344 18.445312 31.652344 C 18.472656 31.53125 18.5 31.410156 18.53125 31.289062 C 18.570312 31.175781 18.605469 31.058594 18.648438 30.945312 C 18.695312 30.835938 18.746094 30.726562 18.792969 30.617188 C 18.847656 30.511719 18.902344 30.40625 18.960938 30.304688 C 19.019531 30.203125 19.078125 30.101562 19.140625 30.003906 C 19.261719 29.804688 19.390625 29.613281 19.53125 29.421875 " fill-opacity="1" fill-rule="nonzero"/><path fill="#ffffff" d="M 17.753906 41.921875 C 17.753906 41.921875 17.773438 41.828125 17.820312 41.65625 C 17.84375 41.570312 17.875 41.464844 17.910156 41.339844 C 17.949219 41.214844 17.992188 41.074219 18.050781 40.914062 C 18.15625 40.597656 18.304688 40.21875 18.496094 39.792969 C 18.597656 39.585938 18.699219 39.355469 18.824219 39.125 C 18.890625 39.007812 18.957031 38.890625 19.027344 38.769531 C 19.097656 38.652344 19.160156 38.523438 19.246094 38.40625 C 19.414062 38.171875 19.578125 37.914062 19.769531 37.667969 C 19.960938 37.417969 20.171875 37.175781 20.390625 36.929688 C 20.832031 36.4375 21.3125 35.9375 21.828125 35.441406 C 22.347656 34.941406 22.886719 34.433594 23.457031 33.941406 C 24.023438 33.449219 24.609375 32.957031 25.207031 32.480469 C 25.8125 32.007812 26.425781 31.550781 27.058594 31.128906 C 27.378906 30.917969 27.699219 30.714844 28.070312 30.554688 C 28.164062 30.515625 28.261719 30.476562 28.394531 30.453125 C 28.425781 30.449219 28.464844 30.445312 28.507812 30.445312 C 28.535156 30.445312 28.558594 30.445312 28.582031 30.449219 C 28.613281 30.457031 28.644531 30.464844 28.675781 30.476562 C 28.679688 30.476562 28.71875 30.496094 28.707031 30.488281 L 28.714844 30.492188 L 28.730469 30.503906 L 28.757812 30.519531 C 28.785156 30.53125 28.820312 30.558594 28.847656 30.578125 C 28.949219 30.660156 29.019531 30.730469 29.082031 30.808594 C 29.148438 30.882812 29.207031 30.957031 29.261719 31.035156 C 29.695312 31.640625 30.019531 32.234375 30.386719 32.765625 C 30.75 33.292969 31.128906 33.765625 31.550781 34.109375 C 31.65625 34.195312 31.765625 34.269531 31.875 34.335938 C 31.980469 34.394531 32.109375 34.457031 32.222656 34.519531 C 32.453125 34.640625 32.667969 34.757812 32.875 34.867188 C 33.078125 34.980469 33.277344 35.054688 33.457031 35.144531 C 33.636719 35.230469 33.800781 35.308594 33.953125 35.378906 C 34.257812 35.511719 34.496094 35.613281 34.660156 35.683594 C 34.824219 35.75 34.914062 35.785156 34.914062 35.785156 C 34.914062 35.785156 34.824219 35.761719 34.652344 35.714844 C 34.480469 35.664062 34.226562 35.589844 33.910156 35.488281 C 33.597656 35.371094 33.207031 35.25 32.777344 35.070312 C 32.5625 34.976562 32.335938 34.878906 32.097656 34.777344 C 31.976562 34.722656 31.859375 34.675781 31.726562 34.609375 C 31.597656 34.542969 31.46875 34.46875 31.347656 34.378906 C 30.855469 34.035156 30.425781 33.554688 30.027344 33.023438 C 29.828125 32.757812 29.632812 32.476562 29.4375 32.195312 C 29.242188 31.914062 29.054688 31.617188 28.847656 31.347656 C 28.792969 31.28125 28.742188 31.21875 28.6875 31.160156 C 28.636719 31.097656 28.574219 31.046875 28.535156 31.015625 C 28.523438 31.007812 28.523438 31.003906 28.511719 30.996094 L 28.457031 30.96875 C 28.441406 30.960938 28.472656 30.976562 28.472656 30.976562 C 28.527344 30.992188 28.503906 30.984375 28.484375 30.992188 C 28.4375 31 28.363281 31.027344 28.289062 31.0625 C 27.992188 31.203125 27.679688 31.402344 27.378906 31.605469 C 26.765625 32.015625 26.164062 32.476562 25.574219 32.945312 C 24.980469 33.410156 24.394531 33.890625 23.828125 34.375 C 23.265625 34.859375 22.707031 35.339844 22.1875 35.820312 C 21.667969 36.300781 21.167969 36.769531 20.714844 37.230469 C 20.488281 37.460938 20.273438 37.695312 20.074219 37.917969 C 19.871094 38.148438 19.703125 38.382812 19.523438 38.597656 C 19.355469 38.824219 19.21875 39.054688 19.070312 39.265625 C 18.929688 39.480469 18.816406 39.699219 18.699219 39.894531 C 18.476562 40.300781 18.292969 40.65625 18.160156 40.957031 C 18.085938 41.109375 18.03125 41.246094 17.976562 41.363281 C 17.925781 41.484375 17.882812 41.585938 17.851562 41.667969 C 17.785156 41.832031 17.753906 41.921875 17.753906 41.921875 " fill-opacity="1" fill-rule="nonzero"/><path fill="#ffffff" d="M 34.460938 36.816406 C 34.460938 36.816406 34.378906 36.792969 34.222656 36.75 C 34.070312 36.703125 33.84375 36.636719 33.5625 36.546875 C 33.277344 36.453125 32.933594 36.339844 32.542969 36.195312 C 32.152344 36.050781 31.710938 35.882812 31.242188 35.667969 C 31.007812 35.5625 30.761719 35.445312 30.515625 35.316406 C 30.390625 35.242188 30.261719 35.179688 30.140625 35.089844 C 30.078125 35.046875 30.015625 35.011719 29.953125 34.960938 C 29.890625 34.910156 29.828125 34.859375 29.765625 34.808594 C 29.535156 34.589844 29.339844 34.316406 29.183594 34.03125 C 29.105469 33.890625 29.039062 33.742188 28.972656 33.601562 C 28.910156 33.460938 28.84375 33.320312 28.777344 33.214844 C 28.742188 33.160156 28.707031 33.121094 28.679688 33.101562 C 28.652344 33.082031 28.640625 33.082031 28.609375 33.078125 C 28.578125 33.078125 28.527344 33.089844 28.472656 33.113281 L 28.449219 33.121094 L 28.441406 33.125 C 28.445312 33.121094 28.421875 33.132812 28.449219 33.121094 L 28.386719 33.152344 L 28.277344 33.210938 L 28.058594 33.324219 C 27.988281 33.363281 27.921875 33.40625 27.855469 33.449219 C 27.71875 33.53125 27.582031 33.613281 27.445312 33.695312 C 27.167969 33.878906 26.882812 34.054688 26.605469 34.242188 C 26.328125 34.433594 26.046875 34.621094 25.769531 34.816406 C 25.214844 35.203125 24.664062 35.59375 24.128906 35.992188 C 23.605469 36.398438 23.070312 36.789062 22.617188 37.203125 C 22.371094 37.414062 22.179688 37.640625 21.976562 37.851562 C 21.785156 38.082031 21.585938 38.296875 21.425781 38.535156 C 21.078125 38.992188 20.792969 39.457031 20.539062 39.890625 C 20.414062 40.113281 20.296875 40.324219 20.195312 40.53125 C 20.085938 40.734375 19.992188 40.933594 19.902344 41.117188 C 19.726562 41.492188 19.582031 41.820312 19.472656 42.097656 C 19.246094 42.648438 19.140625 42.972656 19.140625 42.972656 C 19.140625 42.972656 19.152344 42.886719 19.1875 42.730469 C 19.222656 42.574219 19.277344 42.347656 19.359375 42.058594 C 19.441406 41.769531 19.546875 41.421875 19.691406 41.03125 C 19.835938 40.636719 20.011719 40.199219 20.238281 39.734375 C 20.464844 39.269531 20.722656 38.769531 21.0625 38.28125 C 21.21875 38.027344 21.414062 37.785156 21.601562 37.535156 C 21.8125 37.292969 22.027344 37.035156 22.257812 36.824219 L 22.429688 36.65625 L 22.453125 36.636719 L 22.484375 36.605469 L 22.527344 36.566406 L 22.625 36.488281 C 22.746094 36.378906 22.871094 36.273438 23 36.164062 C 23.25 35.949219 23.519531 35.746094 23.785156 35.539062 C 24.320312 35.128906 24.871094 34.722656 25.433594 34.332031 C 25.710938 34.132812 26 33.949219 26.28125 33.757812 C 26.566406 33.570312 26.859375 33.390625 27.144531 33.210938 C 27.441406 33.035156 27.742188 32.84375 28.039062 32.714844 L 28.210938 32.628906 C 28.242188 32.617188 28.226562 32.625 28.234375 32.621094 L 28.253906 32.613281 L 28.289062 32.601562 C 28.386719 32.566406 28.496094 32.539062 28.628906 32.542969 C 28.757812 32.546875 28.902344 32.601562 29.003906 32.683594 C 29.101562 32.765625 29.167969 32.855469 29.21875 32.9375 C 29.316406 33.101562 29.375 33.253906 29.4375 33.398438 C 29.5 33.542969 29.554688 33.679688 29.617188 33.8125 C 29.742188 34.074219 29.890625 34.300781 30.078125 34.492188 C 30.125 34.539062 30.171875 34.582031 30.21875 34.625 C 30.269531 34.667969 30.328125 34.707031 30.378906 34.746094 C 30.484375 34.832031 30.605469 34.898438 30.714844 34.972656 C 30.941406 35.117188 31.167969 35.246094 31.390625 35.367188 C 32.285156 35.839844 33.0625 36.1875 33.605469 36.433594 C 33.875 36.558594 34.089844 36.652344 34.234375 36.71875 C 34.382812 36.78125 34.460938 36.816406 34.460938 36.816406 " fill-opacity="1" fill-rule="nonzero"/><path fill="#ffffff" d="M 19.828125 43.378906 C 19.828125 43.378906 19.867188 43.324219 19.933594 43.222656 C 20.003906 43.121094 20.101562 42.96875 20.238281 42.78125 C 20.503906 42.40625 20.894531 41.878906 21.386719 41.265625 C 21.632812 40.957031 21.90625 40.625 22.203125 40.285156 C 22.496094 39.941406 22.8125 39.585938 23.152344 39.226562 C 23.496094 38.867188 23.847656 38.5 24.230469 38.144531 C 24.613281 37.789062 25.011719 37.4375 25.433594 37.109375 C 25.863281 36.789062 26.3125 36.484375 26.820312 36.253906 C 27.078125 36.148438 27.347656 36.050781 27.660156 36.046875 L 27.675781 36.042969 C 27.683594 36.042969 27.671875 36.042969 27.695312 36.042969 L 27.722656 36.042969 L 27.773438 36.046875 L 28.054688 36.058594 C 28.175781 36.0625 28.3125 36.082031 28.441406 36.097656 C 28.953125 36.15625 29.417969 36.265625 29.859375 36.390625 C 30.300781 36.507812 30.707031 36.652344 31.078125 36.789062 C 31.449219 36.925781 31.785156 37.066406 32.078125 37.199219 C 32.375 37.324219 32.625 37.449219 32.832031 37.550781 C 33.242188 37.757812 33.46875 37.890625 33.46875 37.890625 C 33.46875 37.890625 33.21875 37.808594 32.785156 37.660156 C 32.566406 37.589844 32.304688 37.503906 32 37.410156 C 31.695312 37.316406 31.351562 37.21875 30.976562 37.113281 C 30.597656 37.015625 30.191406 36.910156 29.757812 36.820312 C 29.324219 36.726562 28.859375 36.65625 28.394531 36.617188 C 28.277344 36.609375 28.167969 36.59375 28.042969 36.59375 L 27.683594 36.59375 C 27.703125 36.59375 27.6875 36.59375 27.691406 36.59375 L 27.679688 36.597656 L 27.53125 36.617188 C 27.480469 36.625 27.425781 36.644531 27.371094 36.660156 C 27.320312 36.671875 27.265625 36.691406 27.214844 36.714844 C 27.160156 36.734375 27.105469 36.753906 27.050781 36.777344 C 26.621094 36.980469 26.199219 37.269531 25.796875 37.582031 C 25.386719 37.890625 24.996094 38.226562 24.617188 38.566406 C 24.242188 38.910156 23.871094 39.25 23.523438 39.59375 C 23.179688 39.933594 22.839844 40.265625 22.527344 40.585938 C 22.210938 40.90625 21.917969 41.207031 21.644531 41.488281 C 20.554688 42.621094 19.828125 43.378906 19.828125 43.378906 " fill-opacity="1" fill-rule="nonzero"/><path fill="#ffffff" d="M 20.671875 43.785156 C 20.671875 43.785156 20.703125 43.734375 20.769531 43.644531 C 20.835938 43.558594 20.929688 43.425781 21.054688 43.261719 C 21.308594 42.933594 21.675781 42.46875 22.140625 41.9375 C 22.371094 41.667969 22.628906 41.378906 22.90625 41.085938 C 23.1875 40.789062 23.480469 40.476562 23.804688 40.171875 C 24.125 39.863281 24.457031 39.542969 24.816406 39.242188 C 25.175781 38.9375 25.550781 38.640625 25.945312 38.363281 C 26.351562 38.097656 26.765625 37.839844 27.246094 37.667969 C 27.308594 37.648438 27.367188 37.625 27.429688 37.609375 L 27.621094 37.5625 C 27.683594 37.546875 27.757812 37.546875 27.824219 37.542969 C 27.863281 37.539062 27.882812 37.535156 27.9375 37.535156 L 28.019531 37.539062 C 28.136719 37.542969 28.246094 37.546875 28.359375 37.554688 C 28.480469 37.566406 28.597656 37.578125 28.710938 37.59375 C 29.167969 37.652344 29.589844 37.742188 29.988281 37.851562 C 30.1875 37.902344 30.378906 37.960938 30.5625 38.015625 C 30.746094 38.078125 30.921875 38.136719 31.089844 38.195312 C 31.425781 38.3125 31.726562 38.433594 31.996094 38.546875 C 32.261719 38.65625 32.488281 38.761719 32.675781 38.851562 C 33.050781 39.027344 33.257812 39.144531 33.257812 39.144531 C 33.257812 39.144531 33.03125 39.078125 32.632812 38.960938 C 32.4375 38.90625 32.195312 38.835938 31.921875 38.761719 C 31.644531 38.683594 31.332031 38.605469 30.992188 38.519531 C 30.652344 38.441406 30.28125 38.359375 29.890625 38.285156 C 29.5 38.207031 29.082031 38.152344 28.660156 38.113281 C 28.558594 38.105469 28.453125 38.097656 28.347656 38.089844 C 28.238281 38.089844 28.125 38.089844 28.011719 38.089844 L 27.925781 38.089844 L 27.867188 38.101562 C 27.820312 38.109375 27.777344 38.105469 27.730469 38.121094 L 27.585938 38.15625 C 27.539062 38.167969 27.488281 38.191406 27.441406 38.207031 C 27.046875 38.351562 26.65625 38.597656 26.28125 38.855469 C 25.902344 39.109375 25.535156 39.390625 25.183594 39.679688 C 24.832031 39.972656 24.484375 40.261719 24.15625 40.554688 C 23.832031 40.84375 23.515625 41.125 23.21875 41.398438 C 22.921875 41.671875 22.644531 41.929688 22.386719 42.171875 C 21.355469 43.140625 20.671875 43.785156 20.671875 43.785156 " fill-opacity="1" fill-rule="nonzero"/><path fill="#ffffff" d="M 21.457031 44.082031 C 21.457031 44.082031 21.601562 43.941406 21.859375 43.707031 C 22.117188 43.472656 22.488281 43.144531 22.949219 42.769531 C 23.179688 42.582031 23.429688 42.378906 23.699219 42.171875 C 23.96875 41.964844 24.257812 41.746094 24.5625 41.53125 C 24.863281 41.316406 25.175781 41.089844 25.507812 40.878906 C 25.835938 40.664062 26.171875 40.453125 26.519531 40.25 C 26.871094 40.054688 27.226562 39.863281 27.605469 39.707031 C 27.703125 39.664062 27.796875 39.632812 27.90625 39.597656 C 28 39.570312 28.085938 39.546875 28.1875 39.523438 C 28.386719 39.472656 28.578125 39.4375 28.765625 39.410156 C 29.144531 39.347656 29.511719 39.328125 29.859375 39.316406 C 30.203125 39.304688 30.527344 39.316406 30.828125 39.335938 C 31.425781 39.367188 31.921875 39.441406 32.261719 39.503906 C 32.605469 39.5625 32.800781 39.613281 32.800781 39.613281 C 32.800781 39.613281 32.601562 39.613281 32.253906 39.617188 C 31.910156 39.621094 31.414062 39.632812 30.828125 39.667969 C 30.535156 39.6875 30.21875 39.714844 29.886719 39.75 C 29.554688 39.789062 29.210938 39.847656 28.859375 39.917969 C 28.683594 39.953125 28.503906 39.996094 28.335938 40.046875 C 28.253906 40.070312 28.160156 40.101562 28.070312 40.132812 C 27.996094 40.164062 27.910156 40.195312 27.824219 40.230469 C 27.488281 40.378906 27.148438 40.566406 26.816406 40.761719 C 26.476562 40.957031 26.140625 41.15625 25.816406 41.363281 C 25.488281 41.566406 25.167969 41.769531 24.855469 41.964844 C 24.542969 42.164062 24.242188 42.355469 23.957031 42.535156 C 23.671875 42.722656 23.398438 42.890625 23.148438 43.046875 C 22.648438 43.363281 22.226562 43.625 21.929688 43.800781 C 21.632812 43.980469 21.457031 44.082031 21.457031 44.082031 " fill-opacity="1" fill-rule="nonzero"/><path fill="#ffffff" d="M 23.675781 44.523438 C 23.675781 44.523438 23.765625 44.414062 23.933594 44.230469 C 24.105469 44.046875 24.351562 43.785156 24.660156 43.492188 C 24.96875 43.195312 25.339844 42.863281 25.753906 42.523438 C 26.167969 42.183594 26.621094 41.835938 27.105469 41.519531 C 27.351562 41.363281 27.597656 41.210938 27.867188 41.085938 C 27.941406 41.054688 28.003906 41.019531 28.082031 40.992188 L 28.136719 40.972656 L 28.171875 40.960938 L 28.199219 40.953125 L 28.296875 40.925781 C 28.421875 40.886719 28.574219 40.855469 28.714844 40.828125 C 28.992188 40.785156 29.257812 40.757812 29.511719 40.753906 C 29.761719 40.746094 29.996094 40.761719 30.214844 40.777344 C 30.429688 40.792969 30.625 40.820312 30.800781 40.847656 C 30.972656 40.871094 31.121094 40.90625 31.246094 40.933594 C 31.488281 40.988281 31.625 41.035156 31.625 41.035156 C 31.625 41.035156 31.484375 41.039062 31.234375 41.050781 C 31.109375 41.054688 30.960938 41.0625 30.789062 41.074219 C 30.617188 41.082031 30.421875 41.101562 30.214844 41.117188 C 30.007812 41.136719 29.78125 41.164062 29.546875 41.199219 C 29.3125 41.230469 29.070312 41.28125 28.828125 41.339844 C 28.710938 41.378906 28.601562 41.402344 28.464844 41.453125 L 28.367188 41.488281 L 28.34375 41.496094 L 28.339844 41.496094 L 28.347656 41.496094 L 28.34375 41.496094 L 28.332031 41.5 L 28.292969 41.519531 C 28.238281 41.539062 28.179688 41.570312 28.125 41.597656 C 27.894531 41.722656 27.660156 41.867188 27.429688 42.015625 C 26.964844 42.320312 26.503906 42.640625 26.070312 42.941406 C 25.636719 43.242188 25.230469 43.523438 24.875 43.757812 C 24.523438 43.996094 24.222656 44.1875 24.011719 44.320312 C 23.800781 44.453125 23.675781 44.523438 23.675781 44.523438 " fill-opacity="1" fill-rule="nonzero"/><path fill="#ffffff" d="M 25.980469 44.523438 C 25.980469 44.523438 26.019531 44.449219 26.097656 44.332031 C 26.175781 44.210938 26.292969 44.046875 26.441406 43.855469 C 26.742188 43.476562 27.179688 43.007812 27.699219 42.605469 C 27.828125 42.507812 27.964844 42.410156 28.117188 42.324219 C 28.191406 42.28125 28.265625 42.238281 28.375 42.203125 C 28.410156 42.191406 28.445312 42.179688 28.484375 42.167969 C 28.519531 42.15625 28.570312 42.144531 28.609375 42.136719 C 28.78125 42.101562 28.933594 42.089844 29.082031 42.089844 C 29.226562 42.089844 29.363281 42.101562 29.488281 42.117188 C 29.734375 42.152344 29.933594 42.210938 30.070312 42.257812 C 30.203125 42.308594 30.277344 42.347656 30.277344 42.347656 C 30.277344 42.347656 30.199219 42.359375 30.054688 42.378906 C 29.917969 42.402344 29.71875 42.425781 29.492188 42.46875 C 29.378906 42.488281 29.253906 42.511719 29.128906 42.542969 C 29.007812 42.570312 28.875 42.605469 28.761719 42.648438 C 28.730469 42.660156 28.707031 42.664062 28.671875 42.679688 L 28.566406 42.726562 C 28.535156 42.746094 28.472656 42.777344 28.414062 42.816406 C 28.300781 42.894531 28.175781 42.984375 28.054688 43.078125 C 27.8125 43.261719 27.566406 43.453125 27.332031 43.628906 C 27.09375 43.808594 26.871094 43.96875 26.671875 44.101562 C 26.472656 44.234375 26.300781 44.34375 26.179688 44.414062 C 26.054688 44.488281 25.980469 44.523438 25.980469 44.523438 " fill-opacity="1" fill-rule="nonzero"/><path fill="#ffffff" d="M 35.617188 32.703125 C 32.089844 37.855469 25.054688 39.171875 19.90625 35.644531 C 14.757812 32.117188 13.441406 25.082031 16.96875 19.933594 C 20.496094 14.78125 27.527344 13.46875 32.679688 16.992188 C 37.828125 20.519531 39.144531 27.554688 35.617188 32.703125 Z M 15.25 18.753906 C 11.070312 24.855469 12.628906 33.183594 18.726562 37.363281 C 24.828125 41.539062 33.15625 39.980469 37.335938 33.882812 C 41.511719 27.785156 39.953125 19.453125 33.855469 15.273438 C 27.757812 11.097656 19.425781 12.65625 15.25 18.753906 " fill-opacity="1" fill-rule="nonzero"/><path fill="#ffffff" d="M 41.347656 33.691406 C 41.347656 33.691406 41.933594 34.289062 40.777344 35.980469 C 39.617188 37.671875 38.605469 37.691406 38.605469 37.691406 L 34.828125 35.105469 L 37.570312 31.101562 L 41.347656 33.691406 " fill-opacity="1" fill-rule="nonzero"/><path fill="#ffffff" d="M 55.242188 41.914062 C 55.242188 41.914062 56.625 43.710938 55.011719 46.066406 C 53.398438 48.421875 51.425781 47.488281 51.425781 47.488281 L 40.527344 40.164062 L 44.347656 34.589844 L 55.242188 41.914062 " fill-opacity="1" fill-rule="nonzero"/><path fill="#ffffff" d="M 40.21875 34.195312 L 38.671875 36.457031 L 42.109375 38.8125 L 43.65625 36.550781 L 40.21875 34.195312 " fill-opacity="1" fill-rule="nonzero"/></svg>