<svg xmlns="http://www.w3.org/2000/svg" xmlns:xlink="http://www.w3.org/1999/xlink" width="152" zoomAndPan="magnify" viewBox="0 0 114 179.249993" height="239" preserveAspectRatio="xMidYMid meet" version="1.0"><defs><g/><clipPath id="4d79155ac1"><path d="M 0.238281 0 L 113 0 L 113 126.222656 L 0.238281 126.222656 Z M 0.238281 0 " clip-rule="nonzero"/></clipPath><clipPath id="855b189dc6"><path d="M 33.710938 43 L 80 43 L 80 92.742188 L 33.710938 92.742188 Z M 33.710938 43 " clip-rule="nonzero"/></clipPath><clipPath id="dc2e7f585f"><path d="M 49 33.742188 L 65 33.742188 L 65 42 L 49 42 Z M 49 33.742188 " clip-rule="nonzero"/></clipPath></defs><g clip-path="url(#4d79155ac1)"><path fill="#104122" d="M 0.707031 38.285156 C 0.707031 37.171875 0.851562 36.078125 1.140625 35.003906 C 1.429688 33.925781 1.851562 32.90625 2.410156 31.941406 C 2.964844 30.976562 3.636719 30.097656 4.425781 29.3125 C 5.210938 28.523438 6.085938 27.847656 7.050781 27.289062 L 50.398438 2.265625 C 51.363281 1.710938 52.386719 1.289062 53.460938 1 C 54.539062 0.710938 55.636719 0.566406 56.75 0.566406 C 57.863281 0.566406 58.960938 0.710938 60.035156 1 C 61.113281 1.289062 62.132812 1.710938 63.097656 2.265625 L 106.441406 27.289062 C 107.40625 27.847656 108.28125 28.519531 109.070312 29.308594 C 109.859375 30.097656 110.53125 30.972656 111.089844 31.9375 C 111.644531 32.902344 112.070312 33.925781 112.359375 35 C 112.648438 36.078125 112.792969 37.171875 112.796875 38.285156 L 112.796875 88.335938 C 112.792969 89.453125 112.648438 90.546875 112.359375 91.625 C 112.070312 92.699219 111.644531 93.71875 111.089844 94.683594 C 110.53125 95.648438 109.859375 96.527344 109.070312 97.316406 C 108.28125 98.105469 107.40625 98.777344 106.441406 99.335938 L 63.097656 124.363281 C 62.132812 124.917969 61.113281 125.339844 60.035156 125.625 C 58.960938 125.914062 57.863281 126.058594 56.75 126.058594 C 55.636719 126.058594 54.539062 125.914062 53.464844 125.625 C 52.386719 125.339844 51.363281 124.917969 50.398438 124.363281 L 7.050781 99.335938 C 6.085938 98.777344 5.210938 98.101562 4.425781 97.3125 C 3.636719 96.523438 2.96875 95.648438 2.410156 94.683594 C 1.851562 93.71875 1.429688 92.699219 1.140625 91.621094 C 0.851562 90.546875 0.707031 89.453125 0.707031 88.335938 Z M 0.707031 38.285156 " fill-opacity="1" fill-rule="nonzero"/></g><g clip-path="url(#855b189dc6)"><path fill="#ffffff" d="M 79.710938 92.839844 L 33.742188 92.839844 L 33.742188 43.050781 L 44.980469 43.050781 L 44.980469 45.558594 L 36.25 45.558594 L 36.25 90.332031 L 77.203125 90.332031 L 77.203125 45.558594 L 69.355469 45.558594 L 69.355469 43.050781 L 79.710938 43.050781 L 79.710938 92.839844 " fill-opacity="1" fill-rule="nonzero"/></g><path fill="#ffffff" d="M 49.214844 45.609375 L 64.96875 45.609375 L 64.96875 42.117188 L 49.214844 42.117188 Z M 67.476562 48.117188 L 46.707031 48.117188 L 46.707031 39.609375 L 67.476562 39.609375 L 67.476562 48.117188 " fill-opacity="1" fill-rule="nonzero"/><g clip-path="url(#dc2e7f585f)"><path fill="#ffffff" d="M 64.582031 41.234375 L 62.074219 41.234375 C 62.074219 38.488281 59.839844 36.253906 57.089844 36.253906 C 54.34375 36.253906 52.109375 38.488281 52.109375 41.234375 L 49.601562 41.234375 C 49.601562 37.105469 52.960938 33.742188 57.089844 33.742188 C 61.222656 33.742188 64.582031 37.105469 64.582031 41.234375 " fill-opacity="1" fill-rule="nonzero"/></g><path fill="#ffffff" d="M 43.128906 61.9375 L 38.492188 55.820312 L 40.492188 54.308594 L 43.019531 57.644531 L 46.925781 51.925781 L 49 53.339844 L 43.128906 61.9375 " fill-opacity="1" fill-rule="nonzero"/><path fill="#ffffff" d="M 69.546875 62.414062 L 47.953125 62.28125 L 47.96875 59.773438 L 69.558594 59.90625 L 69.546875 62.414062 " fill-opacity="1" fill-rule="nonzero"/><path fill="#ffffff" d="M 43.128906 73.773438 L 38.492188 67.660156 L 40.492188 66.144531 L 43.019531 69.484375 L 46.925781 63.761719 L 49 65.179688 L 43.128906 73.773438 " fill-opacity="1" fill-rule="nonzero"/><path fill="#ffffff" d="M 69.546875 74.246094 L 47.953125 74.117188 L 47.96875 71.609375 L 69.558594 71.738281 L 69.546875 74.246094 " fill-opacity="1" fill-rule="nonzero"/><path fill="#ffffff" d="M 43.128906 85.207031 L 38.492188 79.09375 L 40.492188 77.578125 L 43.019531 80.917969 L 46.925781 75.195312 L 49 76.609375 L 43.128906 85.207031 " fill-opacity="1" fill-rule="nonzero"/><path fill="#ffffff" d="M 69.964844 85.683594 L 48.375 85.554688 L 48.390625 83.046875 L 69.980469 83.175781 L 69.964844 85.683594 " fill-opacity="1" fill-rule="nonzero"/><g fill="#000000" fill-opacity="1"><g transform="translate(9.291291, 169.68704)"><g><path d="M 5.375 0.15625 C 4.445312 0.15625 3.644531 -0.0507812 2.96875 -0.46875 C 2.300781 -0.894531 1.785156 -1.53125 1.421875 -2.375 C 1.054688 -3.226562 0.875 -4.28125 0.875 -5.53125 C 0.875 -6.789062 1.09375 -7.84375 1.53125 -8.6875 C 1.96875 -9.539062 2.578125 -10.175781 3.359375 -10.59375 C 4.140625 -11.007812 5.039062 -11.21875 6.0625 -11.21875 C 7.125 -11.21875 8.03125 -11.019531 8.78125 -10.625 C 9.53125 -10.238281 10.054688 -9.65625 10.359375 -8.875 L 8.75 -7.90625 L 8.5625 -7.921875 C 8.34375 -8.410156 8.023438 -8.769531 7.609375 -9 C 7.203125 -9.226562 6.6875 -9.34375 6.0625 -9.34375 C 5.113281 -9.34375 4.382812 -9.039062 3.875 -8.4375 C 3.375 -7.832031 3.125 -6.863281 3.125 -5.53125 C 3.125 -4.195312 3.359375 -3.222656 3.828125 -2.609375 C 4.304688 -2.003906 5.003906 -1.703125 5.921875 -1.703125 C 6.722656 -1.703125 7.3125 -1.878906 7.6875 -2.234375 C 8.0625 -2.597656 8.25 -3.140625 8.25 -3.859375 L 8.25 -4.328125 L 5.640625 -4.328125 L 5.640625 -6.109375 L 10.421875 -6.109375 L 10.421875 0 L 8.34375 0 L 8.34375 -1.484375 L 8.1875 -1.5 C 7.957031 -0.976562 7.609375 -0.570312 7.140625 -0.28125 C 6.679688 0.0078125 6.09375 0.15625 5.375 0.15625 Z M 5.375 0.15625 "/></g></g></g><g fill="#000000" fill-opacity="1"><g transform="translate(20.831293, 169.68704)"><g><path d="M 5.859375 0.15625 C 4.335938 0.15625 3.207031 -0.203125 2.46875 -0.921875 C 1.738281 -1.648438 1.375 -2.722656 1.375 -4.140625 L 1.375 -11.0625 L 3.515625 -11.0625 L 3.515625 -4.15625 C 3.515625 -3.351562 3.707031 -2.75 4.09375 -2.34375 C 4.476562 -1.9375 5.066406 -1.734375 5.859375 -1.734375 C 7.429688 -1.734375 8.21875 -2.539062 8.21875 -4.15625 L 8.21875 -11.0625 L 10.359375 -11.0625 L 10.359375 -4.140625 C 10.359375 -2.722656 9.988281 -1.648438 9.25 -0.921875 C 8.519531 -0.203125 7.390625 0.15625 5.859375 0.15625 Z M 5.859375 0.15625 "/></g></g></g><g fill="#000000" fill-opacity="1"><g transform="translate(32.560475, 169.68704)"><g><path d="M 3.625 0 L 1.4375 0 L 1.4375 -11.0625 L 3.625 -11.0625 Z M 3.625 0 "/></g></g></g><g fill="#000000" fill-opacity="1"><g transform="translate(37.630509, 169.68704)"><g><path d="M 5.421875 -11.0625 C 7.210938 -11.0625 8.582031 -10.597656 9.53125 -9.671875 C 10.476562 -8.742188 10.953125 -7.363281 10.953125 -5.53125 C 10.953125 -3.707031 10.476562 -2.328125 9.53125 -1.390625 C 8.582031 -0.460938 7.210938 0 5.421875 0 L 1.4375 0 L 1.4375 -11.0625 Z M 5.296875 -1.84375 C 6.429688 -1.84375 7.28125 -2.132812 7.84375 -2.71875 C 8.414062 -3.300781 8.703125 -4.238281 8.703125 -5.53125 C 8.703125 -6.832031 8.414062 -7.769531 7.84375 -8.34375 C 7.28125 -8.925781 6.429688 -9.21875 5.296875 -9.21875 L 3.625 -9.21875 L 3.625 -1.84375 Z M 5.296875 -1.84375 "/></g></g></g><g fill="#000000" fill-opacity="1"><g transform="translate(49.458065, 169.68704)"><g><path d="M 3.625 -4.859375 L 3.625 -1.828125 L 8.90625 -1.828125 L 8.90625 0 L 1.4375 0 L 1.4375 -11.0625 L 8.78125 -11.0625 L 8.78125 -9.234375 L 3.625 -9.234375 L 3.625 -6.640625 L 8.140625 -6.640625 L 8.140625 -4.859375 Z M 3.625 -4.859375 "/></g></g></g><g fill="#000000" fill-opacity="1"><g transform="translate(58.970054, 169.68704)"><g><path d="M 3.625 -11.0625 L 3.625 -1.828125 L 8.59375 -1.828125 L 8.59375 0 L 1.4375 0 L 1.4375 -11.0625 Z M 3.625 -11.0625 "/></g></g></g><g fill="#000000" fill-opacity="1"><g transform="translate(67.929635, 169.68704)"><g><path d="M 3.625 0 L 1.4375 0 L 1.4375 -11.0625 L 3.625 -11.0625 Z M 3.625 0 "/></g></g></g><g fill="#000000" fill-opacity="1"><g transform="translate(72.999669, 169.68704)"><g><path d="M 3.5625 0 L 1.4375 0 L 1.4375 -11.0625 L 3.9375 -11.0625 L 8.390625 -3.9375 L 8.578125 -3.96875 L 8.578125 -11.0625 L 10.6875 -11.0625 L 10.6875 0 L 8.453125 0 L 3.75 -7.609375 L 3.5625 -7.578125 Z M 3.5625 0 "/></g></g></g><g fill="#000000" fill-opacity="1"><g transform="translate(85.129914, 169.68704)"><g><path d="M 3.625 -4.859375 L 3.625 -1.828125 L 8.90625 -1.828125 L 8.90625 0 L 1.4375 0 L 1.4375 -11.0625 L 8.78125 -11.0625 L 8.78125 -9.234375 L 3.625 -9.234375 L 3.625 -6.640625 L 8.140625 -6.640625 L 8.140625 -4.859375 Z M 3.625 -4.859375 "/></g></g></g><g fill="#000000" fill-opacity="1"><g transform="translate(94.641902, 169.68704)"><g><path d="M 4.90625 0.15625 C 4.132812 0.15625 3.445312 0.0625 2.84375 -0.125 C 2.25 -0.3125 1.753906 -0.554688 1.359375 -0.859375 C 0.960938 -1.171875 0.660156 -1.515625 0.453125 -1.890625 L 1.65625 -3.359375 L 1.84375 -3.359375 C 2.175781 -2.859375 2.597656 -2.460938 3.109375 -2.171875 C 3.617188 -1.878906 4.21875 -1.734375 4.90625 -1.734375 C 5.488281 -1.734375 5.925781 -1.851562 6.21875 -2.09375 C 6.519531 -2.34375 6.671875 -2.6875 6.671875 -3.125 C 6.671875 -3.382812 6.625 -3.601562 6.53125 -3.78125 C 6.4375 -3.957031 6.273438 -4.109375 6.046875 -4.234375 C 5.828125 -4.359375 5.53125 -4.46875 5.15625 -4.5625 L 3.734375 -4.890625 C 2.734375 -5.117188 1.988281 -5.492188 1.5 -6.015625 C 1.019531 -6.546875 0.78125 -7.234375 0.78125 -8.078125 C 0.78125 -8.703125 0.9375 -9.25 1.25 -9.71875 C 1.5625 -10.195312 2.015625 -10.566406 2.609375 -10.828125 C 3.210938 -11.085938 3.929688 -11.21875 4.765625 -11.21875 C 5.617188 -11.21875 6.347656 -11.101562 6.953125 -10.875 C 7.554688 -10.65625 8.066406 -10.316406 8.484375 -9.859375 L 7.40625 -8.375 L 7.21875 -8.375 C 6.90625 -8.695312 6.546875 -8.941406 6.140625 -9.109375 C 5.742188 -9.273438 5.285156 -9.359375 4.765625 -9.359375 C 4.160156 -9.359375 3.703125 -9.25 3.390625 -9.03125 C 3.078125 -8.820312 2.921875 -8.53125 2.921875 -8.15625 C 2.921875 -7.8125 3.03125 -7.535156 3.25 -7.328125 C 3.46875 -7.117188 3.847656 -6.957031 4.390625 -6.84375 L 5.84375 -6.546875 C 6.914062 -6.316406 7.691406 -5.929688 8.171875 -5.390625 C 8.660156 -4.847656 8.90625 -4.140625 8.90625 -3.265625 C 8.90625 -2.566406 8.753906 -1.960938 8.453125 -1.453125 C 8.160156 -0.941406 7.710938 -0.546875 7.109375 -0.265625 C 6.515625 0.015625 5.78125 0.15625 4.90625 0.15625 Z M 4.90625 0.15625 "/></g></g></g></svg>