<svg xmlns="http://www.w3.org/2000/svg" xmlns:xlink="http://www.w3.org/1999/xlink" width="167" zoomAndPan="magnify" viewBox="0 0 125.25 179.999999" height="240" preserveAspectRatio="xMidYMid meet" version="1.0"><defs><g/><clipPath id="a8bbda81a3"><path d="M 0.015625 1 L 112.589844 1 L 112.589844 126.53125 L 0.015625 126.53125 Z M 0.015625 1 " clip-rule="nonzero"/></clipPath><clipPath id="42e66f7bf7"><path d="M 27.582031 34.710938 L 84.988281 34.710938 L 84.988281 92.863281 L 27.582031 92.863281 Z M 27.582031 34.710938 " clip-rule="nonzero"/></clipPath></defs><g clip-path="url(#a8bbda81a3)"><path fill="#104122" d="M 0.484375 38.753906 C 0.484375 37.640625 0.628906 36.550781 0.917969 35.476562 C 1.207031 34.402344 1.628906 33.382812 2.183594 32.417969 C 2.738281 31.457031 3.410156 30.582031 4.195312 29.792969 C 4.980469 29.007812 5.855469 28.335938 6.816406 27.777344 L 50.085938 2.796875 C 51.050781 2.242188 52.070312 1.820312 53.144531 1.535156 C 54.21875 1.246094 55.3125 1.101562 56.425781 1.101562 C 57.539062 1.101562 58.632812 1.246094 59.707031 1.535156 C 60.78125 1.820312 61.800781 2.242188 62.765625 2.796875 L 106.027344 27.777344 C 106.992188 28.332031 107.867188 29.003906 108.652344 29.792969 C 109.4375 30.578125 110.109375 31.453125 110.667969 32.417969 C 111.222656 33.378906 111.648438 34.398438 111.933594 35.472656 C 112.222656 36.546875 112.371094 37.640625 112.371094 38.753906 L 112.371094 88.714844 C 112.371094 89.828125 112.222656 90.921875 111.933594 91.996094 C 111.644531 93.070312 111.222656 94.085938 110.667969 95.050781 C 110.109375 96.015625 109.4375 96.890625 108.652344 97.675781 C 107.867188 98.464844 106.992188 99.136719 106.027344 99.691406 L 62.765625 124.675781 C 61.800781 125.230469 60.78125 125.648438 59.707031 125.9375 C 58.632812 126.222656 57.539062 126.367188 56.425781 126.367188 C 55.3125 126.367188 54.21875 126.222656 53.144531 125.9375 C 52.070312 125.648438 51.050781 125.230469 50.085938 124.675781 L 6.816406 99.691406 C 5.855469 99.136719 4.980469 98.460938 4.195312 97.675781 C 3.410156 96.886719 2.738281 96.011719 2.183594 95.050781 C 1.628906 94.085938 1.207031 93.066406 0.917969 91.992188 C 0.628906 90.917969 0.484375 89.828125 0.484375 88.714844 Z M 0.484375 38.753906 " fill-opacity="1" fill-rule="nonzero"/></g><g clip-path="url(#42e66f7bf7)"><path fill="#ffffff" d="M 68.960938 92.707031 L 32.769531 92.707031 C 29.917969 92.707031 27.585938 90.378906 27.585938 87.527344 L 27.585938 39.902344 C 27.585938 37.050781 29.917969 34.71875 32.769531 34.71875 L 68.960938 34.71875 C 71.808594 34.71875 74.140625 37.050781 74.140625 39.902344 L 74.140625 46.269531 L 84.492188 52.246094 C 85.039062 52.5625 85.226562 53.257812 84.914062 53.808594 L 74.140625 72.46875 L 74.140625 87.527344 C 74.140625 90.378906 71.8125 92.707031 68.960938 92.707031 Z M 74.140625 48.910156 L 74.140625 67.894531 L 82.359375 53.65625 Z M 34.738281 86.636719 C 33.226562 86.636719 33.226562 84.339844 34.738281 84.339844 L 66.988281 84.339844 C 68.5 84.339844 68.5 86.636719 66.988281 86.636719 Z M 53.089844 74.699219 C 51.578125 74.699219 51.578125 72.402344 53.089844 72.402344 L 66.988281 72.402344 C 68.5 72.402344 68.5 74.699219 66.988281 74.699219 Z M 34.738281 80.667969 C 33.226562 80.667969 33.226562 78.371094 34.738281 78.371094 L 66.988281 78.371094 C 68.5 78.371094 68.5 80.667969 66.988281 80.667969 Z M 53.089844 62.761719 C 51.578125 62.761719 51.578125 60.460938 53.089844 60.460938 L 66.988281 60.460938 C 68.5 60.460938 68.5 62.761719 66.988281 62.761719 Z M 53.089844 68.726562 C 51.578125 68.726562 51.578125 66.429688 53.089844 66.429688 L 66.988281 66.429688 C 68.5 66.429688 68.5 68.726562 66.988281 68.726562 Z M 53.089844 56.789062 C 51.578125 56.789062 51.578125 54.496094 53.089844 54.496094 L 66.988281 54.496094 C 68.5 54.496094 68.5 56.789062 66.988281 56.789062 Z M 34.738281 54.496094 L 48.796875 54.496094 C 49.429688 54.496094 49.945312 55.007812 49.945312 55.644531 L 49.945312 72.558594 C 49.945312 73.195312 49.429688 73.707031 48.796875 73.707031 L 34.738281 73.707031 C 34.105469 73.707031 33.59375 73.191406 33.59375 72.558594 L 33.59375 55.644531 C 33.59375 55.007812 34.105469 54.496094 34.738281 54.496094 Z M 47.648438 56.789062 L 35.886719 56.789062 L 35.886719 71.410156 L 47.648438 71.410156 Z M 34.738281 40.789062 L 66.988281 40.789062 C 67.621094 40.789062 68.136719 41.300781 68.136719 41.933594 L 68.136719 50.957031 C 68.136719 51.589844 67.621094 52.105469 66.988281 52.105469 L 34.738281 52.105469 C 34.105469 52.105469 33.59375 51.589844 33.59375 50.957031 L 33.59375 41.933594 C 33.59375 41.300781 34.105469 40.789062 34.738281 40.789062 Z M 65.839844 43.082031 L 35.886719 43.082031 L 35.886719 49.808594 L 65.839844 49.808594 Z M 32.765625 90.40625 L 68.957031 90.40625 C 70.542969 90.40625 71.84375 89.105469 71.84375 87.519531 L 71.84375 39.894531 C 71.84375 38.3125 70.542969 37.011719 68.957031 37.011719 L 32.765625 37.011719 C 31.183594 37.011719 29.882812 38.3125 29.882812 39.894531 L 29.882812 87.519531 C 29.882812 89.105469 31.183594 90.40625 32.765625 90.40625 Z M 32.765625 90.40625 " fill-opacity="1" fill-rule="nonzero"/></g><g fill="#000000" fill-opacity="1"><g transform="translate(6.243155, 170.969074)"><g><path d="M 3.546875 0 L 1.4375 0 L 1.4375 -11.046875 L 3.9375 -11.046875 L 8.375 -3.9375 L 8.578125 -3.96875 L 8.578125 -11.046875 L 10.671875 -11.046875 L 10.671875 0 L 8.4375 0 L 3.75 -7.609375 L 3.546875 -7.578125 Z M 3.546875 0 "/></g></g></g><g fill="#000000" fill-opacity="1"><g transform="translate(18.351649, 170.969074)"><g><path d="M 3.625 -4.859375 L 3.625 -1.828125 L 8.90625 -1.828125 L 8.90625 0 L 1.4375 0 L 1.4375 -11.046875 L 8.78125 -11.046875 L 8.78125 -9.21875 L 3.625 -9.21875 L 3.625 -6.640625 L 8.125 -6.640625 L 8.125 -4.859375 Z M 3.625 -4.859375 "/></g></g></g><g fill="#000000" fill-opacity="1"><g transform="translate(27.846581, 170.969074)"><g><path d="M 5.28125 0 L 2.828125 0 L 0.296875 -11.046875 L 2.484375 -11.046875 L 4.15625 -3.28125 L 4.34375 -3.28125 L 6.328125 -11.046875 L 8.1875 -11.046875 L 10.203125 -3.28125 L 10.390625 -3.28125 L 12.078125 -11.046875 L 14.171875 -11.046875 L 11.65625 0 L 9.203125 0 L 7.265625 -7.125 L 7.109375 -7.125 Z M 5.28125 0 "/></g></g></g><g fill="#000000" fill-opacity="1"><g transform="translate(42.304258, 170.969074)"><g><path d="M 4.90625 0.15625 C 4.132812 0.15625 3.445312 0.0625 2.84375 -0.125 C 2.25 -0.3125 1.753906 -0.554688 1.359375 -0.859375 C 0.960938 -1.171875 0.660156 -1.507812 0.453125 -1.875 L 1.640625 -3.34375 L 1.84375 -3.34375 C 2.175781 -2.851562 2.597656 -2.460938 3.109375 -2.171875 C 3.617188 -1.878906 4.21875 -1.734375 4.90625 -1.734375 C 5.488281 -1.734375 5.925781 -1.851562 6.21875 -2.09375 C 6.519531 -2.34375 6.671875 -2.6875 6.671875 -3.125 C 6.671875 -3.382812 6.617188 -3.601562 6.515625 -3.78125 C 6.421875 -3.957031 6.265625 -4.109375 6.046875 -4.234375 C 5.828125 -4.359375 5.53125 -4.46875 5.15625 -4.5625 L 3.734375 -4.890625 C 2.734375 -5.109375 1.988281 -5.476562 1.5 -6 C 1.019531 -6.53125 0.78125 -7.21875 0.78125 -8.0625 C 0.78125 -8.6875 0.9375 -9.234375 1.25 -9.703125 C 1.5625 -10.179688 2.015625 -10.550781 2.609375 -10.8125 C 3.210938 -11.082031 3.925781 -11.21875 4.75 -11.21875 C 5.601562 -11.21875 6.332031 -11.101562 6.9375 -10.875 C 7.550781 -10.65625 8.066406 -10.3125 8.484375 -9.84375 L 7.40625 -8.359375 L 7.21875 -8.359375 C 6.90625 -8.691406 6.546875 -8.9375 6.140625 -9.09375 C 5.734375 -9.257812 5.269531 -9.34375 4.75 -9.34375 C 4.15625 -9.34375 3.703125 -9.234375 3.390625 -9.015625 C 3.078125 -8.804688 2.921875 -8.519531 2.921875 -8.15625 C 2.921875 -7.800781 3.03125 -7.519531 3.25 -7.3125 C 3.46875 -7.113281 3.847656 -6.953125 4.390625 -6.828125 L 5.84375 -6.53125 C 6.914062 -6.300781 7.691406 -5.914062 8.171875 -5.375 C 8.660156 -4.832031 8.90625 -4.128906 8.90625 -3.265625 C 8.90625 -2.566406 8.753906 -1.960938 8.453125 -1.453125 C 8.148438 -0.941406 7.695312 -0.546875 7.09375 -0.265625 C 6.5 0.015625 5.769531 0.15625 4.90625 0.15625 Z M 4.90625 0.15625 "/></g></g></g><g fill="#000000" fill-opacity="1"><g transform="translate(51.791636, 170.969074)"><g><path d="M 3.625 -11.046875 L 3.625 -1.828125 L 8.59375 -1.828125 L 8.59375 0 L 1.4375 0 L 1.4375 -11.046875 Z M 3.625 -11.046875 "/></g></g></g><g fill="#000000" fill-opacity="1"><g transform="translate(60.735152, 170.969074)"><g><path d="M 3.625 -4.859375 L 3.625 -1.828125 L 8.90625 -1.828125 L 8.90625 0 L 1.4375 0 L 1.4375 -11.046875 L 8.78125 -11.046875 L 8.78125 -9.21875 L 3.625 -9.21875 L 3.625 -6.640625 L 8.125 -6.640625 L 8.125 -4.859375 Z M 3.625 -4.859375 "/></g></g></g><g fill="#000000" fill-opacity="1"><g transform="translate(70.230084, 170.969074)"><g><path d="M 8.859375 -11.046875 L 8.859375 -9.21875 L 5.671875 -9.21875 L 5.671875 0 L 3.5 0 L 3.5 -9.21875 L 0.296875 -9.21875 L 0.296875 -11.046875 Z M 8.859375 -11.046875 "/></g></g></g><g fill="#000000" fill-opacity="1"><g transform="translate(79.385102, 170.969074)"><g><path d="M 8.859375 -11.046875 L 8.859375 -9.21875 L 5.671875 -9.21875 L 5.671875 0 L 3.5 0 L 3.5 -9.21875 L 0.296875 -9.21875 L 0.296875 -11.046875 Z M 8.859375 -11.046875 "/></g></g></g><g fill="#000000" fill-opacity="1"><g transform="translate(88.54012, 170.969074)"><g><path d="M 3.625 -4.859375 L 3.625 -1.828125 L 8.90625 -1.828125 L 8.90625 0 L 1.4375 0 L 1.4375 -11.046875 L 8.78125 -11.046875 L 8.78125 -9.21875 L 3.625 -9.21875 L 3.625 -6.640625 L 8.125 -6.640625 L 8.125 -4.859375 Z M 3.625 -4.859375 "/></g></g></g><g fill="#000000" fill-opacity="1"><g transform="translate(98.035052, 170.969074)"><g><path d="M 1.4375 0 L 1.4375 -11.046875 L 5.875 -11.046875 C 7.019531 -11.046875 7.882812 -10.78125 8.46875 -10.25 C 9.050781 -9.726562 9.34375 -9.003906 9.34375 -8.078125 C 9.34375 -7.410156 9.171875 -6.863281 8.828125 -6.4375 C 8.484375 -6.007812 7.972656 -5.679688 7.296875 -5.453125 L 7.296875 -5.296875 C 7.648438 -5.140625 7.929688 -4.910156 8.140625 -4.609375 C 8.359375 -4.316406 8.5625 -3.878906 8.75 -3.296875 L 9.859375 0 L 7.609375 0 L 6.53125 -3.296875 C 6.414062 -3.628906 6.289062 -3.890625 6.15625 -4.078125 C 6.019531 -4.265625 5.84375 -4.398438 5.625 -4.484375 C 5.414062 -4.566406 5.140625 -4.609375 4.796875 -4.609375 L 3.625 -4.609375 L 3.625 0 Z M 5.609375 -6.328125 C 6.671875 -6.328125 7.203125 -6.820312 7.203125 -7.8125 C 7.203125 -8.820312 6.671875 -9.328125 5.609375 -9.328125 L 3.625 -9.328125 L 3.625 -6.328125 Z M 5.609375 -6.328125 "/></g></g></g><g fill="#000000" fill-opacity="1"><g transform="translate(108.360885, 170.969074)"><g><path d="M 4.90625 0.15625 C 4.132812 0.15625 3.445312 0.0625 2.84375 -0.125 C 2.25 -0.3125 1.753906 -0.554688 1.359375 -0.859375 C 0.960938 -1.171875 0.660156 -1.507812 0.453125 -1.875 L 1.640625 -3.34375 L 1.84375 -3.34375 C 2.175781 -2.851562 2.597656 -2.460938 3.109375 -2.171875 C 3.617188 -1.878906 4.21875 -1.734375 4.90625 -1.734375 C 5.488281 -1.734375 5.925781 -1.851562 6.21875 -2.09375 C 6.519531 -2.34375 6.671875 -2.6875 6.671875 -3.125 C 6.671875 -3.382812 6.617188 -3.601562 6.515625 -3.78125 C 6.421875 -3.957031 6.265625 -4.109375 6.046875 -4.234375 C 5.828125 -4.359375 5.53125 -4.46875 5.15625 -4.5625 L 3.734375 -4.890625 C 2.734375 -5.109375 1.988281 -5.476562 1.5 -6 C 1.019531 -6.53125 0.78125 -7.21875 0.78125 -8.0625 C 0.78125 -8.6875 0.9375 -9.234375 1.25 -9.703125 C 1.5625 -10.179688 2.015625 -10.550781 2.609375 -10.8125 C 3.210938 -11.082031 3.925781 -11.21875 4.75 -11.21875 C 5.601562 -11.21875 6.332031 -11.101562 6.9375 -10.875 C 7.550781 -10.65625 8.066406 -10.3125 8.484375 -9.84375 L 7.40625 -8.359375 L 7.21875 -8.359375 C 6.90625 -8.691406 6.546875 -8.9375 6.140625 -9.09375 C 5.734375 -9.257812 5.269531 -9.34375 4.75 -9.34375 C 4.15625 -9.34375 3.703125 -9.234375 3.390625 -9.015625 C 3.078125 -8.804688 2.921875 -8.519531 2.921875 -8.15625 C 2.921875 -7.800781 3.03125 -7.519531 3.25 -7.3125 C 3.46875 -7.113281 3.847656 -6.953125 4.390625 -6.828125 L 5.84375 -6.53125 C 6.914062 -6.300781 7.691406 -5.914062 8.171875 -5.375 C 8.660156 -4.832031 8.90625 -4.128906 8.90625 -3.265625 C 8.90625 -2.566406 8.753906 -1.960938 8.453125 -1.453125 C 8.148438 -0.941406 7.695312 -0.546875 7.09375 -0.265625 C 6.5 0.015625 5.769531 0.15625 4.90625 0.15625 Z M 4.90625 0.15625 "/></g></g></g></svg>