<svg xmlns="http://www.w3.org/2000/svg" xmlns:xlink="http://www.w3.org/1999/xlink" width="87" zoomAndPan="magnify" viewBox="0 0 65.25 65.25" height="87" preserveAspectRatio="xMidYMid meet" version="1.0"><defs><clipPath id="5cf6e380d4"><path d="M 0 0 L 64.398438 0 L 64.398438 64.398438 L 0 64.398438 Z M 0 0 " clip-rule="nonzero"/></clipPath><clipPath id="79da334768"><path d="M 32.199219 0 C 14.417969 0 0 14.417969 0 32.199219 C 0 49.984375 14.417969 64.398438 32.199219 64.398438 C 49.984375 64.398438 64.398438 49.984375 64.398438 32.199219 C 64.398438 14.417969 49.984375 0 32.199219 0 Z M 32.199219 0 " clip-rule="nonzero"/></clipPath><clipPath id="f8cef15d1a"><path d="M 14.886719 11.84375 L 54.183594 11.84375 L 54.183594 51.140625 L 14.886719 51.140625 Z M 14.886719 11.84375 " clip-rule="nonzero"/></clipPath></defs><g clip-path="url(#5cf6e380d4)"><g clip-path="url(#79da334768)"><path fill="#104122" d="M 0 0 L 64.398438 0 L 64.398438 64.398438 L 0 64.398438 Z M 0 0 " fill-opacity="1" fill-rule="nonzero"/></g></g><g clip-path="url(#f8cef15d1a)"><path fill="#ffffff" d="M 20.21875 27.027344 C 20.21875 26.6875 20.492188 26.414062 20.828125 26.414062 L 36.289062 26.414062 C 36.625 26.414062 36.898438 26.6875 36.898438 27.027344 C 36.898438 27.363281 36.625 27.636719 36.289062 27.636719 L 20.828125 27.636719 C 20.492188 27.636719 20.21875 27.363281 20.21875 27.027344 Z M 34.640625 44.636719 L 20.828125 44.636719 C 20.492188 44.636719 20.21875 44.910156 20.21875 45.246094 C 20.21875 45.585938 20.492188 45.859375 20.828125 45.859375 L 34.640625 45.859375 C 34.976562 45.859375 35.25 45.585938 35.25 45.246094 C 35.25 44.910156 34.976562 44.636719 34.640625 44.636719 Z M 20.828125 23.082031 L 31.925781 23.082031 C 32.265625 23.082031 32.539062 22.808594 32.539062 22.46875 C 32.539062 22.132812 32.265625 21.859375 31.925781 21.859375 L 20.828125 21.859375 C 20.492188 21.859375 20.21875 22.132812 20.21875 22.46875 C 20.21875 22.808594 20.492188 23.082031 20.828125 23.082031 Z M 53.683594 48.996094 L 52.117188 50.609375 C 51.855469 50.878906 51.507812 51.011719 51.160156 51.011719 C 50.828125 51.011719 50.492188 50.890625 50.234375 50.636719 L 46.179688 46.703125 C 46.066406 46.835938 45.898438 46.917969 45.714844 46.917969 L 42.230469 46.917969 L 42.230469 50.402344 C 42.230469 50.738281 41.957031 51.011719 41.617188 51.011719 L 15.5 51.011719 C 15.160156 51.011719 14.886719 50.738281 14.886719 50.402344 L 14.886719 16.550781 C 14.886719 16.210938 15.160156 15.9375 15.5 15.9375 L 18.984375 15.9375 L 18.984375 12.453125 C 18.984375 12.117188 19.257812 11.84375 19.59375 11.84375 L 41.480469 11.84375 C 41.644531 11.84375 41.800781 11.90625 41.914062 12.023438 L 46.144531 16.253906 C 46.261719 16.367188 46.324219 16.523438 46.324219 16.6875 L 46.324219 32.472656 C 46.976562 33.675781 47.347656 35.054688 47.347656 36.515625 C 47.347656 38.140625 46.890625 39.660156 46.097656 40.953125 L 47.828125 42.652344 C 47.996094 42.574219 48.179688 42.53125 48.371094 42.53125 C 48.726562 42.527344 49.0625 42.65625 49.316406 42.902344 L 53.65625 47.113281 C 54.179688 47.625 54.195312 48.46875 53.683594 48.996094 Z M 45.375 41.960938 C 45.210938 42.15625 45.039062 42.347656 44.855469 42.527344 L 46.378906 44.019531 L 46.914062 43.46875 Z M 46.125 36.515625 C 46.125 32.496094 42.851562 29.226562 38.835938 29.226562 C 34.816406 29.226562 31.542969 32.496094 31.542969 36.515625 C 31.542969 40.535156 34.816406 43.804688 38.835938 43.804688 C 42.851562 43.804688 46.125 40.535156 46.125 36.515625 Z M 38 20.167969 L 40.140625 20.167969 L 38 18.027344 Z M 42.09375 16.074219 L 44.234375 16.074219 L 42.09375 13.933594 Z M 20.207031 15.9375 L 37.386719 15.9375 C 37.546875 15.9375 37.703125 16 37.820312 16.117188 L 42.050781 20.347656 C 42.164062 20.464844 42.230469 20.617188 42.230469 20.78125 L 42.230469 28.710938 C 43.324219 29.1875 44.300781 29.890625 45.101562 30.761719 L 45.101562 17.296875 L 41.480469 17.296875 C 41.144531 17.296875 40.871094 17.023438 40.871094 16.6875 L 40.871094 13.066406 L 20.207031 13.066406 Z M 41.003906 46.304688 L 41.003906 44.75 C 40.3125 44.933594 39.585938 45.03125 38.835938 45.03125 C 35.914062 45.03125 33.332031 43.550781 31.796875 41.304688 L 20.828125 41.304688 C 20.492188 41.304688 20.21875 41.03125 20.21875 40.691406 C 20.21875 40.355469 20.492188 40.082031 20.828125 40.082031 L 31.105469 40.082031 C 30.632812 39.0625 30.355469 37.933594 30.324219 36.75 L 20.828125 36.75 C 20.492188 36.75 20.21875 36.476562 20.21875 36.136719 C 20.21875 35.796875 20.492188 35.523438 20.828125 35.523438 L 30.378906 35.523438 C 30.519531 34.320312 30.910156 33.191406 31.503906 32.191406 L 20.828125 32.191406 C 20.492188 32.191406 20.21875 31.917969 20.21875 31.582031 C 20.21875 31.242188 20.492188 30.96875 20.828125 30.96875 L 32.382812 30.96875 C 33.945312 29.152344 36.257812 28.003906 38.835938 28.003906 C 39.585938 28.003906 40.3125 28.101562 41.003906 28.285156 L 41.003906 21.394531 L 37.386719 21.394531 C 37.046875 21.394531 36.773438 21.117188 36.773438 20.78125 L 36.773438 17.160156 L 16.113281 17.160156 L 16.113281 49.789062 L 41.003906 49.789062 Z M 45.101562 45.695312 L 45.101562 44.484375 L 43.929688 43.332031 C 43.40625 43.726562 42.835938 44.058594 42.230469 44.324219 L 42.230469 45.695312 Z M 52.800781 47.992188 L 48.464844 43.78125 C 48.4375 43.757812 48.410156 43.753906 48.390625 43.753906 C 48.390625 43.753906 48.386719 43.753906 48.386719 43.753906 C 48.367188 43.753906 48.339844 43.757812 48.3125 43.785156 L 46.746094 45.398438 C 46.707031 45.441406 46.707031 45.511719 46.75 45.550781 L 51.089844 49.761719 C 51.128906 49.800781 51.199219 49.796875 51.238281 49.757812 L 52.804688 48.144531 C 52.84375 48.101562 52.84375 48.03125 52.800781 47.992188 Z M 45.121094 36.515625 C 45.121094 39.984375 42.300781 42.800781 38.835938 42.800781 C 35.367188 42.800781 32.546875 39.984375 32.546875 36.515625 C 32.546875 33.050781 35.367188 30.230469 38.835938 30.230469 C 42.300781 30.230469 45.121094 33.050781 45.121094 36.515625 Z M 43.894531 36.515625 C 43.894531 33.726562 41.625 31.453125 38.835938 31.453125 C 36.042969 31.453125 33.773438 33.726562 33.773438 36.515625 C 33.773438 39.308594 36.042969 41.578125 38.835938 41.578125 C 41.625 41.578125 43.894531 39.308594 43.894531 36.515625 Z M 43.894531 36.515625 " fill-opacity="1" fill-rule="nonzero"/></g></svg>