<svg xmlns="http://www.w3.org/2000/svg" xmlns:xlink="http://www.w3.org/1999/xlink" width="87" zoomAndPan="magnify" viewBox="0 0 65.25 65.25" height="87" preserveAspectRatio="xMidYMid meet" version="1.0"><defs><clipPath id="f9d9bda2bb"><path d="M 0 0 L 64.398438 0 L 64.398438 64.398438 L 0 64.398438 Z M 0 0 " clip-rule="nonzero"/></clipPath><clipPath id="91167d1b19"><path d="M 32.199219 0 C 14.417969 0 0 14.417969 0 32.199219 C 0 49.984375 14.417969 64.398438 32.199219 64.398438 C 49.984375 64.398438 64.398438 49.984375 64.398438 32.199219 C 64.398438 14.417969 49.984375 0 32.199219 0 Z M 32.199219 0 " clip-rule="nonzero"/></clipPath><clipPath id="041fab5faa"><path d="M 16.464844 10.71875 L 47.605469 10.71875 L 47.605469 53.722656 L 16.464844 53.722656 Z M 16.464844 10.71875 " clip-rule="nonzero"/></clipPath></defs><g clip-path="url(#f9d9bda2bb)"><g clip-path="url(#91167d1b19)"><path fill="#104122" d="M 0 0 L 64.398438 0 L 64.398438 64.398438 L 0 64.398438 Z M 0 0 " fill-opacity="1" fill-rule="nonzero"/></g></g><g clip-path="url(#041fab5faa)"><path fill="#ffffff" d="M 44.898438 14.398438 L 38.996094 14.398438 L 38.996094 13.195312 C 38.992188 12.894531 38.9375 12.605469 38.820312 12.324219 C 38.703125 12.046875 38.539062 11.800781 38.324219 11.585938 C 38.113281 11.371094 37.867188 11.207031 37.585938 11.089844 C 37.308594 10.976562 37.015625 10.917969 36.714844 10.917969 L 27.683594 10.917969 C 27.378906 10.917969 27.089844 10.976562 26.808594 11.089844 C 26.53125 11.207031 26.285156 11.371094 26.070312 11.585938 C 25.855469 11.800781 25.691406 12.046875 25.574219 12.324219 C 25.460938 12.605469 25.402344 12.894531 25.402344 13.195312 L 25.402344 14.398438 L 19.496094 14.398438 C 19.09375 14.398438 18.707031 14.476562 18.335938 14.628906 C 17.960938 14.785156 17.632812 15.003906 17.347656 15.289062 C 17.0625 15.574219 16.84375 15.902344 16.691406 16.273438 C 16.535156 16.648438 16.457031 17.035156 16.457031 17.4375 L 16.457031 50.441406 C 16.457031 50.84375 16.535156 51.230469 16.691406 51.601562 C 16.84375 51.976562 17.0625 52.304688 17.347656 52.589844 C 17.632812 52.875 17.960938 53.09375 18.335938 53.246094 C 18.707031 53.402344 19.09375 53.480469 19.496094 53.480469 L 44.898438 53.480469 C 45.300781 53.480469 45.691406 53.402344 46.0625 53.246094 C 46.433594 53.09375 46.761719 52.875 47.046875 52.589844 C 47.332031 52.304688 47.550781 51.976562 47.707031 51.601562 C 47.859375 51.230469 47.9375 50.84375 47.9375 50.441406 L 47.9375 17.4375 C 47.9375 17.035156 47.859375 16.648438 47.707031 16.273438 C 47.550781 15.902344 47.332031 15.574219 47.046875 15.289062 C 46.761719 15.003906 46.433594 14.785156 46.0625 14.628906 C 45.691406 14.476562 45.300781 14.398438 44.898438 14.398438 Z M 27.683594 12.4375 L 36.714844 12.4375 C 36.925781 12.4375 37.101562 12.511719 37.25 12.660156 C 37.398438 12.808594 37.472656 12.988281 37.472656 13.195312 C 37.472656 13.203125 37.472656 17.125 37.472656 17.125 C 37.472656 17.335938 37.398438 17.515625 37.25 17.664062 C 37.101562 17.8125 36.925781 17.886719 36.714844 17.886719 L 27.683594 17.886719 C 27.472656 17.886719 27.292969 17.8125 27.144531 17.664062 C 26.996094 17.515625 26.921875 17.335938 26.921875 17.125 C 26.921875 17.125 26.921875 13.210938 26.921875 13.195312 C 26.921875 12.988281 26.996094 12.808594 27.144531 12.660156 C 27.292969 12.511719 27.472656 12.4375 27.683594 12.4375 Z M 46.417969 50.441406 C 46.417969 50.640625 46.378906 50.835938 46.304688 51.019531 C 46.226562 51.207031 46.117188 51.371094 45.972656 51.515625 C 45.832031 51.65625 45.667969 51.765625 45.480469 51.84375 C 45.292969 51.921875 45.101562 51.960938 44.898438 51.960938 L 19.496094 51.960938 C 19.296875 51.960938 19.101562 51.921875 18.917969 51.84375 C 18.730469 51.765625 18.566406 51.65625 18.421875 51.515625 C 18.28125 51.371094 18.171875 51.207031 18.09375 51.019531 C 18.015625 50.835938 17.976562 50.640625 17.976562 50.441406 L 17.976562 17.4375 C 17.976562 17.238281 18.015625 17.042969 18.09375 16.855469 C 18.171875 16.671875 18.28125 16.507812 18.421875 16.363281 C 18.566406 16.222656 18.730469 16.113281 18.917969 16.035156 C 19.101562 15.957031 19.296875 15.917969 19.496094 15.917969 L 25.402344 15.917969 L 25.402344 17.125 C 25.402344 17.425781 25.460938 17.71875 25.574219 17.996094 C 25.691406 18.277344 25.855469 18.523438 26.070312 18.738281 C 26.285156 18.949219 26.53125 19.117188 26.808594 19.230469 C 27.089844 19.347656 27.378906 19.40625 27.683594 19.40625 L 36.714844 19.40625 C 37.015625 19.40625 37.308594 19.347656 37.585938 19.230469 C 37.867188 19.117188 38.113281 18.949219 38.324219 18.738281 C 38.539062 18.523438 38.703125 18.277344 38.820312 17.996094 C 38.9375 17.71875 38.992188 17.425781 38.996094 17.125 L 38.996094 15.917969 L 44.898438 15.917969 C 45.101562 15.917969 45.292969 15.957031 45.480469 16.035156 C 45.667969 16.113281 45.832031 16.222656 45.972656 16.363281 C 46.117188 16.507812 46.226562 16.671875 46.304688 16.855469 C 46.378906 17.042969 46.417969 17.238281 46.417969 17.4375 Z M 46.417969 50.441406 " fill-opacity="1" fill-rule="nonzero"/></g><path fill="#ffffff" d="M 44.195312 44.980469 L 21.160156 44.980469 C 20.953125 44.980469 20.777344 45.058594 20.628906 45.207031 C 20.484375 45.355469 20.410156 45.53125 20.410156 45.738281 C 20.410156 45.945312 20.484375 46.125 20.628906 46.273438 C 20.777344 46.421875 20.953125 46.496094 21.160156 46.5 L 44.195312 46.5 C 44.402344 46.496094 44.578125 46.417969 44.722656 46.269531 C 44.867188 46.125 44.941406 45.945312 44.941406 45.738281 C 44.941406 45.53125 44.867188 45.355469 44.722656 45.207031 C 44.578125 45.058594 44.402344 44.984375 44.195312 44.980469 Z M 44.195312 44.980469 " fill-opacity="1" fill-rule="nonzero"/><path fill="#ffffff" d="M 36.386719 49.242188 L 21.160156 49.242188 C 20.953125 49.246094 20.777344 49.320312 20.632812 49.46875 C 20.488281 49.617188 20.414062 49.796875 20.414062 50.003906 C 20.414062 50.210938 20.488281 50.386719 20.632812 50.535156 C 20.777344 50.683594 20.953125 50.757812 21.160156 50.761719 L 36.386719 50.761719 C 36.59375 50.757812 36.769531 50.683594 36.914062 50.535156 C 37.058594 50.386719 37.132812 50.207031 37.132812 50.003906 C 37.132812 49.796875 37.058594 49.617188 36.914062 49.46875 C 36.769531 49.320312 36.59375 49.246094 36.386719 49.242188 Z M 36.386719 49.242188 " fill-opacity="1" fill-rule="nonzero"/><path fill="#ffffff" d="M 25.445312 42.765625 C 25.75 42.765625 26.039062 42.707031 26.320312 42.589844 C 26.597656 42.476562 26.84375 42.308594 27.058594 42.097656 C 27.273438 41.882812 27.4375 41.636719 27.554688 41.355469 C 27.667969 41.078125 27.726562 40.789062 27.726562 40.484375 L 27.726562 38.773438 L 29.621094 37.511719 C 29.789062 37.394531 29.894531 37.234375 29.933594 37.03125 C 29.972656 36.828125 29.933594 36.640625 29.820312 36.46875 C 29.703125 36.292969 29.546875 36.1875 29.34375 36.144531 C 29.140625 36.101562 28.953125 36.136719 28.777344 36.246094 L 27.726562 36.949219 C 27.75 36.628906 27.710938 36.320312 27.605469 36.019531 C 27.5 35.71875 27.339844 35.453125 27.125 35.21875 C 26.90625 34.984375 26.652344 34.804688 26.363281 34.675781 C 26.070312 34.546875 25.765625 34.480469 25.445312 34.480469 L 21.722656 34.480469 C 21.417969 34.480469 21.128906 34.539062 20.847656 34.652344 C 20.570312 34.769531 20.324219 34.933594 20.109375 35.148438 C 19.894531 35.359375 19.730469 35.609375 19.613281 35.886719 C 19.5 36.164062 19.441406 36.457031 19.441406 36.757812 L 19.441406 40.484375 C 19.441406 40.789062 19.5 41.078125 19.613281 41.355469 C 19.730469 41.636719 19.894531 41.882812 20.109375 42.097656 C 20.324219 42.308594 20.570312 42.476562 20.847656 42.589844 C 21.128906 42.707031 21.417969 42.765625 21.722656 42.765625 Z M 20.960938 40.484375 L 20.960938 36.757812 C 20.960938 36.550781 21.035156 36.371094 21.183594 36.222656 C 21.332031 36.074219 21.511719 36 21.722656 36 L 25.445312 36 C 25.65625 36 25.835938 36.074219 25.984375 36.222656 C 26.132812 36.371094 26.207031 36.550781 26.207031 36.757812 L 26.207031 37.960938 L 24.75 38.933594 L 23.789062 37.113281 C 23.695312 36.925781 23.546875 36.796875 23.34375 36.734375 C 23.140625 36.671875 22.949219 36.691406 22.761719 36.789062 C 22.574219 36.886719 22.449219 37.035156 22.386719 37.238281 C 22.328125 37.441406 22.347656 37.632812 22.445312 37.820312 L 23.796875 40.386719 C 23.847656 40.480469 23.914062 40.5625 24 40.628906 C 24.085938 40.695312 24.179688 40.742188 24.28125 40.765625 C 24.386719 40.792969 24.492188 40.796875 24.597656 40.78125 C 24.703125 40.761719 24.800781 40.722656 24.890625 40.664062 L 26.207031 39.789062 L 26.207031 40.484375 C 26.207031 40.695312 26.132812 40.875 25.984375 41.023438 C 25.835938 41.171875 25.65625 41.246094 25.445312 41.246094 L 21.722656 41.246094 C 21.511719 41.246094 21.332031 41.171875 21.183594 41.023438 C 21.035156 40.875 20.960938 40.695312 20.960938 40.484375 Z M 20.960938 40.484375 " fill-opacity="1" fill-rule="nonzero"/><path fill="#ffffff" d="M 44.195312 35.730469 L 31.742188 35.730469 C 31.535156 35.734375 31.359375 35.8125 31.214844 35.957031 C 31.070312 36.105469 30.996094 36.285156 30.996094 36.492188 C 30.996094 36.699219 31.070312 36.875 31.214844 37.023438 C 31.359375 37.171875 31.535156 37.246094 31.742188 37.25 L 44.195312 37.25 C 44.402344 37.246094 44.578125 37.171875 44.722656 37.023438 C 44.867188 36.875 44.941406 36.699219 44.941406 36.492188 C 44.941406 36.285156 44.867188 36.105469 44.722656 35.957031 C 44.578125 35.8125 44.402344 35.734375 44.195312 35.730469 Z M 44.195312 35.730469 " fill-opacity="1" fill-rule="nonzero"/><path fill="#ffffff" d="M 39.972656 41.511719 C 40.179688 41.507812 40.355469 41.433594 40.5 41.285156 C 40.648438 41.136719 40.71875 40.960938 40.71875 40.753906 C 40.71875 40.546875 40.648438 40.367188 40.5 40.222656 C 40.355469 40.074219 40.179688 39.996094 39.972656 39.992188 L 31.742188 39.992188 C 31.535156 39.996094 31.359375 40.074219 31.214844 40.222656 C 31.070312 40.367188 30.996094 40.546875 30.996094 40.753906 C 30.996094 40.960938 31.070312 41.136719 31.214844 41.285156 C 31.359375 41.433594 31.535156 41.507812 31.742188 41.511719 Z M 39.972656 41.511719 " fill-opacity="1" fill-rule="nonzero"/><path fill="#ffffff" d="M 31.230469 32.511719 L 34.371094 32.511719 C 34.671875 32.511719 34.964844 32.453125 35.242188 32.339844 C 35.523438 32.222656 35.769531 32.058594 35.980469 31.84375 C 36.195312 31.628906 36.359375 31.382812 36.476562 31.105469 C 36.59375 30.824219 36.652344 30.535156 36.652344 30.230469 L 36.652344 23.269531 C 36.652344 22.964844 36.59375 22.675781 36.476562 22.394531 C 36.359375 22.117188 36.195312 21.871094 35.980469 21.65625 C 35.769531 21.441406 35.523438 21.277344 35.242188 21.164062 C 34.964844 21.046875 34.671875 20.988281 34.371094 20.988281 L 31.230469 20.988281 C 30.925781 20.988281 30.636719 21.046875 30.355469 21.164062 C 30.078125 21.277344 29.832031 21.441406 29.617188 21.65625 C 29.402344 21.871094 29.238281 22.117188 29.121094 22.394531 C 29.007812 22.675781 28.949219 22.964844 28.949219 23.269531 L 28.949219 30.230469 C 28.949219 30.535156 29.007812 30.824219 29.121094 31.105469 C 29.238281 31.382812 29.402344 31.628906 29.617188 31.84375 C 29.832031 32.058594 30.078125 32.222656 30.355469 32.339844 C 30.636719 32.453125 30.925781 32.511719 31.230469 32.511719 Z M 30.46875 23.269531 C 30.46875 23.058594 30.542969 22.878906 30.691406 22.730469 C 30.839844 22.582031 31.019531 22.507812 31.230469 22.507812 L 34.371094 22.507812 C 34.582031 22.507812 34.757812 22.582031 34.90625 22.730469 C 35.054688 22.878906 35.128906 23.058594 35.132812 23.269531 L 35.132812 30.230469 C 35.128906 30.441406 35.054688 30.621094 34.90625 30.769531 C 34.757812 30.917969 34.582031 30.992188 34.371094 30.992188 L 31.230469 30.992188 C 31.019531 30.992188 30.839844 30.917969 30.691406 30.769531 C 30.542969 30.621094 30.46875 30.441406 30.46875 30.230469 Z M 30.46875 23.269531 " fill-opacity="1" fill-rule="nonzero"/><path fill="#ffffff" d="M 41.699219 20.988281 L 39.039062 20.988281 C 38.828125 20.988281 38.648438 21.0625 38.5 21.210938 C 38.351562 21.359375 38.277344 21.539062 38.277344 21.75 L 38.277344 31.753906 C 38.28125 31.960938 38.359375 32.136719 38.507812 32.28125 C 38.65625 32.425781 38.832031 32.496094 39.039062 32.496094 C 39.246094 32.496094 39.421875 32.425781 39.570312 32.28125 C 39.71875 32.136719 39.792969 31.960938 39.800781 31.753906 L 39.800781 27.828125 L 41.699219 27.828125 C 42.148438 27.824219 42.582031 27.734375 43 27.558594 C 43.414062 27.382812 43.78125 27.136719 44.097656 26.816406 C 44.414062 26.496094 44.660156 26.128906 44.832031 25.710938 C 45.003906 25.292969 45.089844 24.859375 45.089844 24.410156 C 45.089844 23.957031 45.003906 23.523438 44.832031 23.105469 C 44.660156 22.6875 44.414062 22.320312 44.097656 22 C 43.78125 21.679688 43.414062 21.433594 43 21.257812 C 42.582031 21.082031 42.148438 20.992188 41.699219 20.988281 Z M 41.699219 26.308594 L 39.800781 26.308594 L 39.800781 22.507812 L 41.699219 22.507812 C 41.949219 22.511719 42.191406 22.5625 42.421875 22.660156 C 42.648438 22.757812 42.855469 22.894531 43.03125 23.070312 C 43.207031 23.25 43.339844 23.453125 43.4375 23.6875 C 43.53125 23.917969 43.578125 24.160156 43.578125 24.410156 C 43.578125 24.660156 43.53125 24.898438 43.4375 25.132812 C 43.339844 25.363281 43.207031 25.566406 43.03125 25.746094 C 42.855469 25.921875 42.648438 26.0625 42.421875 26.160156 C 42.191406 26.257812 41.949219 26.304688 41.699219 26.308594 Z M 41.699219 26.308594 " fill-opacity="1" fill-rule="nonzero"/><path fill="#ffffff" d="M 24.054688 30.992188 C 23.824219 30.992188 23.601562 30.949219 23.390625 30.859375 C 23.175781 30.769531 22.988281 30.644531 22.824219 30.480469 C 22.664062 30.316406 22.539062 30.128906 22.449219 29.917969 C 22.363281 29.703125 22.316406 29.480469 22.316406 29.25 C 22.3125 29.042969 22.238281 28.867188 22.089844 28.722656 C 21.941406 28.578125 21.761719 28.507812 21.554688 28.507812 C 21.347656 28.507812 21.171875 28.582031 21.023438 28.726562 C 20.875 28.871094 20.800781 29.046875 20.796875 29.253906 C 20.796875 29.6875 20.882812 30.101562 21.046875 30.503906 C 21.214844 30.902344 21.449219 31.253906 21.753906 31.558594 C 22.0625 31.863281 22.414062 32.101562 22.8125 32.265625 C 23.214844 32.429688 23.628906 32.511719 24.0625 32.511719 C 24.496094 32.511719 24.910156 32.429688 25.3125 32.261719 C 25.710938 32.097656 26.0625 31.859375 26.367188 31.554688 C 26.675781 31.25 26.910156 30.894531 27.074219 30.496094 C 27.238281 30.097656 27.320312 29.679688 27.320312 29.246094 C 27.320312 28.8125 27.238281 28.398438 27.070312 28 C 26.90625 27.597656 26.667969 27.246094 26.363281 26.941406 C 26.058594 26.636719 25.703125 26.402344 25.304688 26.234375 C 24.90625 26.070312 24.488281 25.988281 24.054688 25.988281 C 23.824219 25.988281 23.605469 25.941406 23.390625 25.855469 C 23.179688 25.765625 22.992188 25.640625 22.828125 25.476562 C 22.664062 25.3125 22.539062 25.125 22.453125 24.910156 C 22.363281 24.699219 22.320312 24.476562 22.320312 24.246094 C 22.320312 24.015625 22.367188 23.792969 22.453125 23.582031 C 22.542969 23.367188 22.667969 23.179688 22.832031 23.015625 C 22.996094 22.855469 23.183594 22.726562 23.394531 22.640625 C 23.609375 22.550781 23.832031 22.507812 24.0625 22.507812 C 24.292969 22.507812 24.515625 22.550781 24.726562 22.640625 C 24.941406 22.730469 25.128906 22.855469 25.292969 23.015625 C 25.453125 23.179688 25.578125 23.367188 25.667969 23.582031 C 25.757812 23.792969 25.800781 24.015625 25.800781 24.246094 C 25.804688 24.453125 25.882812 24.628906 26.027344 24.773438 C 26.175781 24.917969 26.355469 24.992188 26.5625 24.992188 C 26.769531 24.992188 26.945312 24.917969 27.09375 24.773438 C 27.242188 24.628906 27.316406 24.453125 27.320312 24.246094 C 27.320312 23.8125 27.238281 23.398438 27.074219 23 C 26.90625 22.597656 26.671875 22.246094 26.363281 21.941406 C 26.058594 21.636719 25.707031 21.402344 25.308594 21.234375 C 24.90625 21.070312 24.492188 20.988281 24.058594 20.988281 C 23.625 20.988281 23.210938 21.070312 22.8125 21.238281 C 22.414062 21.402344 22.058594 21.636719 21.753906 21.945312 C 21.449219 22.25 21.214844 22.601562 21.046875 23.003906 C 20.882812 23.402344 20.800781 23.816406 20.800781 24.25 C 20.800781 24.683594 20.882812 25.097656 21.050781 25.496094 C 21.214844 25.898438 21.449219 26.25 21.757812 26.554688 C 22.0625 26.859375 22.414062 27.097656 22.816406 27.261719 C 23.214844 27.425781 23.628906 27.507812 24.0625 27.507812 C 24.292969 27.511719 24.511719 27.558594 24.722656 27.648438 C 24.933594 27.738281 25.121094 27.867188 25.28125 28.027344 C 25.441406 28.191406 25.566406 28.378906 25.652344 28.59375 C 25.738281 28.804688 25.78125 29.023438 25.78125 29.253906 C 25.78125 29.484375 25.734375 29.703125 25.648438 29.914062 C 25.5625 30.128906 25.4375 30.316406 25.273438 30.476562 C 25.113281 30.640625 24.925781 30.765625 24.714844 30.855469 C 24.503906 30.945312 24.285156 30.988281 24.054688 30.992188 Z M 24.054688 30.992188 " fill-opacity="1" fill-rule="nonzero"/></svg>