<svg xmlns="http://www.w3.org/2000/svg" xmlns:xlink="http://www.w3.org/1999/xlink" width="87" zoomAndPan="magnify" viewBox="0 0 65.25 65.25" height="87" preserveAspectRatio="xMidYMid meet" version="1.0"><defs><clipPath id="d8fb9365b1"><path d="M 0 0 L 64.398438 0 L 64.398438 64.398438 L 0 64.398438 Z M 0 0 " clip-rule="nonzero"/></clipPath><clipPath id="24b8c97353"><path d="M 32.199219 0 C 14.417969 0 0 14.417969 0 32.199219 C 0 49.984375 14.417969 64.398438 32.199219 64.398438 C 49.984375 64.398438 64.398438 49.984375 64.398438 32.199219 C 64.398438 14.417969 49.984375 0 32.199219 0 Z M 32.199219 0 " clip-rule="nonzero"/></clipPath><clipPath id="3a790632c0"><path d="M 9.195312 11 L 55 11 L 55 53.722656 L 9.195312 53.722656 Z M 9.195312 11 " clip-rule="nonzero"/></clipPath></defs><g clip-path="url(#d8fb9365b1)"><g clip-path="url(#24b8c97353)"><path fill="#104122" d="M 0 0 L 64.398438 0 L 64.398438 64.398438 L 0 64.398438 Z M 0 0 " fill-opacity="1" fill-rule="nonzero"/></g></g><g clip-path="url(#3a790632c0)"><path fill="#ffffff" d="M 47.601562 28.886719 L 43.84375 28.886719 L 43.84375 34.210938 L 45.054688 34.210938 C 45.40625 34.210938 45.695312 34.5 45.695312 34.855469 L 45.695312 36.378906 C 45.695312 37.570312 44.722656 38.542969 43.53125 38.542969 L 43.398438 38.542969 L 45.261719 40.40625 C 47.65625 38.734375 50.988281 40.441406 50.988281 43.394531 C 50.988281 45.40625 49.355469 47.039062 47.34375 47.039062 C 44.390625 47.039062 42.679688 43.707031 44.351562 41.3125 L 41.582031 38.542969 L 32.835938 38.542969 L 32.835938 46.085938 C 35.710938 46.59375 36.859375 50.160156 34.769531 52.246094 C 33.347656 53.671875 31.039062 53.671875 29.617188 52.246094 C 27.527344 50.160156 28.675781 46.59375 31.550781 46.085938 L 31.550781 38.542969 L 22.800781 38.542969 L 20.03125 41.3125 C 21.703125 43.707031 19.996094 47.039062 17.042969 47.039062 C 15.03125 47.039062 13.398438 45.40625 13.398438 43.394531 C 13.398438 40.441406 16.730469 38.734375 19.125 40.40625 L 20.988281 38.542969 L 20.855469 38.542969 C 19.664062 38.542969 18.691406 37.570312 18.691406 36.378906 L 18.691406 34.855469 C 18.691406 34.5 18.976562 34.210938 19.332031 34.210938 L 20.542969 34.210938 L 20.542969 28.886719 L 16.785156 28.886719 C 16.273438 31.761719 12.710938 32.910156 10.621094 30.820312 C 9.199219 29.398438 9.199219 27.09375 10.621094 25.667969 C 12.710938 23.582031 16.273438 24.730469 16.785156 27.605469 L 20.542969 27.605469 L 20.542969 24.902344 L 17.539062 21.617188 C 16.875 20.894531 16.78125 19.832031 17.269531 19.011719 L 13.425781 14.804688 C 13.1875 14.546875 13.203125 14.140625 13.464844 13.902344 C 13.722656 13.664062 14.128906 13.683594 14.367188 13.945312 L 18.210938 18.148438 C 19.074219 17.738281 20.125 17.925781 20.785156 18.648438 L 22.191406 20.191406 C 22.359375 20.148438 22.523438 20.128906 22.6875 20.128906 L 28.796875 20.128906 C 29 20.03125 29.207031 19.945312 29.421875 19.871094 C 30.242188 19.578125 31.050781 19.457031 31.976562 19.457031 C 29.027344 18.414062 28.136719 14.625 30.375 12.386719 C 32.046875 10.714844 34.757812 10.714844 36.429688 12.386719 C 38.667969 14.625 37.777344 18.414062 34.828125 19.457031 L 34.964844 19.457031 C 35.960938 19.457031 36.90625 19.699219 37.742188 20.128906 L 41.699219 20.128906 C 42.878906 20.128906 43.84375 21.09375 43.84375 22.273438 L 43.84375 27.605469 L 47.601562 27.605469 C 48.113281 24.730469 51.675781 23.578125 53.765625 25.667969 C 55.1875 27.089844 55.1875 29.398438 53.765625 30.820312 C 51.675781 32.910156 48.113281 31.761719 47.601562 28.886719 Z M 31.550781 32.238281 C 31.480469 32.023438 31.441406 31.796875 31.441406 31.558594 C 31.441406 30.289062 32.414062 29.902344 33.34375 29.445312 L 36.699219 27.789062 L 36.699219 25.832031 C 36.699219 25.476562 36.988281 25.191406 37.339844 25.191406 C 37.695312 25.191406 37.984375 25.476562 37.984375 25.832031 L 37.984375 28.183594 L 37.980469 28.183594 C 37.980469 28.421875 37.851562 28.648438 37.625 28.757812 L 33.75 30.671875 C 33.375 30.855469 33.011719 31.03125 32.835938 31.261719 L 32.835938 31.984375 C 32.875 32.0625 32.929688 32.132812 32.992188 32.195312 C 33.15625 32.359375 33.378906 32.460938 33.625 32.460938 L 34.164062 32.460938 L 39.785156 29.59375 L 39.785156 25.558594 C 39.785156 22.910156 37.613281 20.738281 34.964844 20.738281 L 31.914062 20.738281 C 30.4375 20.738281 29.183594 21.1875 28.039062 22.121094 L 25.640625 24.082031 C 25.121094 24.507812 24.363281 24.453125 23.90625 23.957031 L 19.839844 19.511719 C 19.300781 18.921875 18.28125 19.257812 18.242188 20.089844 C 18.234375 20.328125 18.3125 20.570312 18.480469 20.753906 L 22.898438 25.585938 C 23.863281 26.640625 25.320312 26.933594 26.617188 26.332031 L 29.234375 25.121094 C 29.660156 24.925781 30.140625 25.246094 30.140625 25.703125 L 30.144531 25.703125 L 30.144531 32.460938 L 31.550781 32.460938 Z M 21.828125 26.304688 L 21.828125 34.210938 L 28.59375 34.210938 C 28.804688 34.210938 28.988281 34.3125 29.105469 34.46875 L 29.71875 35.140625 L 34.652344 35.140625 L 35.261719 34.433594 C 35.390625 34.289062 35.566406 34.214844 35.746094 34.214844 L 35.746094 34.210938 L 42.558594 34.210938 L 42.558594 22.273438 C 42.558594 21.800781 42.171875 21.414062 41.699219 21.414062 L 39.433594 21.414062 C 40.445312 22.503906 41.066406 23.960938 41.066406 25.558594 L 41.066406 29.988281 C 41.066406 30.21875 40.9375 30.445312 40.714844 30.558594 L 34.628906 33.660156 C 34.539062 33.714844 34.429688 33.742188 34.316406 33.742188 L 30.125 33.742188 C 29.429688 33.742188 28.859375 33.175781 28.859375 32.476562 L 28.859375 26.703125 L 27.152344 27.496094 C 25.355469 28.328125 23.292969 27.910156 21.957031 26.449219 Z M 23.3125 21.414062 L 24.839844 23.082031 L 26.882812 21.414062 Z M 35.523438 13.292969 C 34.351562 12.121094 32.453125 12.121094 31.28125 13.292969 C 30.109375 14.464844 30.109375 16.367188 31.28125 17.535156 C 32.453125 18.707031 34.351562 18.707031 35.523438 17.535156 C 36.695312 16.367188 36.695312 14.464844 35.523438 13.292969 Z M 28.3125 35.496094 L 19.972656 35.496094 L 19.972656 36.378906 C 19.972656 36.863281 20.371094 37.261719 20.855469 37.261719 L 43.53125 37.261719 C 44.015625 37.261719 44.414062 36.863281 44.414062 36.378906 L 44.414062 35.496094 L 36.039062 35.496094 L 35.460938 36.164062 C 35.34375 36.320312 35.15625 36.421875 34.945312 36.421875 L 29.441406 36.421875 C 29.269531 36.421875 29.09375 36.351562 28.96875 36.210938 Z M 11.527344 29.914062 C 13.011719 31.398438 15.558594 30.34375 15.558594 28.246094 C 15.558594 26.148438 13.011719 25.09375 11.527344 26.574219 C 10.605469 27.496094 10.605469 28.992188 11.527344 29.914062 Z M 52.859375 26.574219 C 51.375 25.09375 48.828125 26.148438 48.828125 28.246094 C 48.828125 30.34375 51.375 31.398438 52.859375 29.914062 C 53.777344 28.992188 53.78125 27.496094 52.859375 26.574219 Z M 18.710938 45.066406 C 20.195312 43.582031 19.140625 41.035156 17.042969 41.035156 C 14.945312 41.035156 13.890625 43.582031 15.375 45.066406 C 16.296875 45.988281 17.789062 45.988281 18.710938 45.066406 Z M 33.863281 51.339844 C 35.34375 49.859375 34.289062 47.3125 32.191406 47.3125 C 30.097656 47.3125 29.039062 49.859375 30.523438 51.339844 C 31.445312 52.261719 32.941406 52.261719 33.863281 51.339844 Z M 49.703125 43.394531 C 49.703125 41.296875 47.15625 40.246094 45.675781 41.726562 C 44.191406 43.207031 45.246094 45.757812 47.34375 45.757812 C 48.648438 45.757812 49.703125 44.699219 49.703125 43.394531 Z M 49.703125 43.394531 " fill-opacity="1" fill-rule="evenodd"/></g></svg>